<svg width="535" height="292" viewBox="0 0 535 292" fill="none" xmlns="http://www.w3.org/2000/svg">
<rect width="535" height="1" transform="translate(0 217)" fill="#BFBFBF"/>
<rect width="75" height="182" transform="translate(0 35)" fill="#01B848"/>
<path d="M20.8301 18.3027C20.2637 18.3027 19.6973 18.2246 19.1309 18.0684C18.571 17.9186 18.0566 17.6712 17.5879 17.3262C17.1191 16.9746 16.7253 16.5156 16.4062 15.9492C16.0938 15.3828 15.9049 14.6829 15.8398 13.8496H18.2031C18.2682 14.2598 18.3919 14.6081 18.5742 14.8945C18.7565 15.1745 18.9681 15.4023 19.209 15.5781C19.4564 15.7539 19.7201 15.8841 20 15.9688C20.2865 16.0469 20.5632 16.0859 20.8301 16.0859C21.2012 16.0859 21.5365 16.0241 21.8359 15.9004C22.1419 15.7767 22.4023 15.6042 22.6172 15.3828C22.8385 15.1615 23.0078 14.9043 23.125 14.6113C23.2487 14.3118 23.3105 13.9928 23.3105 13.6543C23.3105 13.2832 23.2422 12.9609 23.1055 12.6875C22.9753 12.4076 22.7832 12.1732 22.5293 11.9844C22.2819 11.7956 21.9792 11.6523 21.6211 11.5547C21.263 11.457 20.8626 11.4082 20.4199 11.4082L17.7344 11.3984L16.6895 10.5488L17.5 4.70898H24.8242V6.69141H19.5508L19.1504 9.67969H21.0449C21.7741 9.67969 22.4284 9.77083 23.0078 9.95312C23.5872 10.1354 24.0788 10.3991 24.4824 10.7441C24.8926 11.0892 25.2051 11.5091 25.4199 12.0039C25.6348 12.4922 25.7422 13.0488 25.7422 13.6738C25.7422 14.2858 25.625 14.8717 25.3906 15.4316C25.1628 15.985 24.834 16.4766 24.4043 16.9062C23.9811 17.3294 23.4668 17.668 22.8613 17.9219C22.2559 18.1758 21.5788 18.3027 20.8301 18.3027ZM31.8363 18.3027C31.2699 18.3027 30.7035 18.2246 30.1371 18.0684C29.5772 17.9186 29.0629 17.6712 28.5941 17.3262C28.1254 16.9746 27.7315 16.5156 27.4125 15.9492C27.1 15.3828 26.9112 14.6829 26.8461 13.8496H29.2094C29.2745 14.2598 29.3982 14.6081 29.5805 14.8945C29.7628 15.1745 29.9743 15.4023 30.2152 15.5781C30.4626 15.7539 30.7263 15.8841 31.0063 15.9688C31.2927 16.0469 31.5694 16.0859 31.8363 16.0859C32.2074 16.0859 32.5427 16.0241 32.8422 15.9004C33.1482 15.7767 33.4086 15.6042 33.6234 15.3828C33.8448 15.1615 34.0141 14.9043 34.1313 14.6113C34.2549 14.3118 34.3168 13.9928 34.3168 13.6543C34.3168 13.2832 34.2484 12.9609 34.1117 12.6875C33.9815 12.4076 33.7895 12.1732 33.5355 11.9844C33.2882 11.7956 32.9854 11.6523 32.6273 11.5547C32.2693 11.457 31.8689 11.4082 31.4262 11.4082L28.7406 11.3984L27.6957 10.5488L28.5063 4.70898H35.8305V6.69141H30.557L30.1566 9.67969H32.0512C32.7803 9.67969 33.4346 9.77083 34.0141 9.95312C34.5935 10.1354 35.085 10.3991 35.4887 10.7441C35.8988 11.0892 36.2113 11.5091 36.4262 12.0039C36.641 12.4922 36.7484 13.0488 36.7484 13.6738C36.7484 14.2858 36.6313 14.8717 36.3969 15.4316C36.169 15.985 35.8402 16.4766 35.4105 16.9062C34.9874 17.3294 34.473 17.668 33.8676 17.9219C33.2621 18.1758 32.585 18.3027 31.8363 18.3027ZM41.3875 11.0566C40.8927 11.0566 40.4305 10.9753 40.0008 10.8125C39.5776 10.6432 39.2065 10.4121 38.8875 10.1191C38.575 9.82617 38.3276 9.48112 38.1453 9.08398C37.9695 8.68034 37.8816 8.2474 37.8816 7.78516C37.8816 7.31641 37.9695 6.88346 38.1453 6.48633C38.3276 6.08268 38.575 5.73438 38.8875 5.44141C39.2065 5.14844 39.5776 4.91732 40.0008 4.74805C40.4305 4.57878 40.8927 4.49414 41.3875 4.49414C41.8888 4.49414 42.351 4.57878 42.7742 4.74805C43.2039 4.91081 43.575 5.13867 43.8875 5.43164C44.2065 5.72461 44.4539 6.07292 44.6297 6.47656C44.812 6.88021 44.9031 7.31641 44.9031 7.78516C44.9031 8.2474 44.812 8.68034 44.6297 9.08398C44.4539 9.48112 44.2065 9.82617 43.8875 10.1191C43.575 10.4121 43.2039 10.6432 42.7742 10.8125C42.3445 10.9753 41.8823 11.0566 41.3875 11.0566ZM48.7801 4.72852H50.9773L42.823 18.0098H40.6551L48.7801 4.72852ZM41.3973 9.41602C41.6251 9.41602 41.8302 9.37695 42.0125 9.29883C42.2013 9.21419 42.3608 9.10026 42.491 8.95703C42.6277 8.8138 42.7319 8.64453 42.8035 8.44922C42.8816 8.2474 42.9207 8.03255 42.9207 7.80469C42.9207 7.5638 42.8816 7.34245 42.8035 7.14062C42.7319 6.93229 42.6277 6.75326 42.491 6.60352C42.3608 6.44727 42.2013 6.32682 42.0125 6.24219C41.8237 6.15755 41.6154 6.11523 41.3875 6.11523C41.1661 6.11523 40.9611 6.15755 40.7723 6.24219C40.5835 6.32682 40.4207 6.44401 40.284 6.59375C40.1538 6.73698 40.0496 6.91276 39.9715 7.12109C39.8999 7.32292 39.8641 7.54427 39.8641 7.78516C39.8641 8.01953 39.8999 8.23763 39.9715 8.43945C40.0496 8.63477 40.1538 8.80729 40.284 8.95703C40.4207 9.10026 40.5835 9.21419 40.7723 9.29883C40.9611 9.37695 41.1694 9.41602 41.3973 9.41602ZM49.8641 18.2051C49.3693 18.2051 48.907 18.1237 48.4773 17.9609C48.0542 17.7917 47.6863 17.5605 47.3738 17.2676C47.0613 16.9746 46.8139 16.6296 46.6316 16.2324C46.4559 15.8353 46.368 15.4056 46.368 14.9434C46.368 14.4746 46.4559 14.0417 46.6316 13.6445C46.8139 13.2409 47.0613 12.8926 47.3738 12.5996C47.6928 12.3001 48.0639 12.0658 48.4871 11.8965C48.9168 11.7272 49.379 11.6426 49.8738 11.6426C50.3686 11.6426 50.8276 11.7272 51.2508 11.8965C51.6805 12.0592 52.0516 12.2904 52.3641 12.5898C52.6831 12.8828 52.9305 13.2311 53.1063 13.6348C53.2885 14.0319 53.3797 14.4648 53.3797 14.9336C53.3797 15.3958 53.2885 15.8288 53.1063 16.2324C52.9305 16.6296 52.6831 16.9746 52.3641 17.2676C52.0516 17.5605 51.6805 17.7917 51.2508 17.9609C50.8276 18.1237 50.3654 18.2051 49.8641 18.2051ZM49.8836 16.5742C50.1115 16.5742 50.3165 16.5352 50.4988 16.457C50.6876 16.3724 50.8471 16.2585 50.9773 16.1152C51.1141 15.9655 51.2182 15.793 51.2898 15.5977C51.368 15.4023 51.407 15.1875 51.407 14.9531C51.407 14.7122 51.368 14.4909 51.2898 14.2891C51.2182 14.0807 51.1141 13.9017 50.9773 13.752C50.8406 13.6022 50.6779 13.485 50.4891 13.4004C50.3003 13.3158 50.0952 13.2734 49.8738 13.2734C49.6525 13.2734 49.4474 13.3158 49.2586 13.4004C49.0698 13.485 48.907 13.6022 48.7703 13.752C48.6401 13.8952 48.5359 14.0677 48.4578 14.2695C48.3862 14.4714 48.3504 14.6927 48.3504 14.9336C48.3504 15.168 48.3862 15.3861 48.4578 15.5879C48.5359 15.7832 48.6401 15.9557 48.7703 16.1055C48.907 16.2487 49.0698 16.3626 49.2586 16.4473C49.4474 16.5319 49.6557 16.5742 49.8836 16.5742Z" fill="black"/>
<path d="M108.715 138.004L106.332 138.932L106.322 136.793L109.125 135.709H111.146V149H108.715V138.004ZM117.846 149.303C117.221 149.303 116.612 149.215 116.02 149.039C115.427 148.863 114.9 148.587 114.438 148.209C113.976 147.825 113.601 147.33 113.315 146.725C113.035 146.119 112.888 145.387 112.875 144.527H115.287C115.301 145.016 115.388 145.423 115.551 145.748C115.714 146.074 115.919 146.337 116.166 146.539C116.414 146.734 116.69 146.874 116.996 146.959C117.302 147.044 117.605 147.086 117.905 147.086C118.23 147.086 118.539 147.027 118.832 146.91C119.125 146.786 119.383 146.62 119.604 146.412C119.825 146.204 119.998 145.953 120.121 145.66C120.252 145.367 120.317 145.051 120.317 144.713C120.317 144.387 120.255 144.085 120.131 143.805C120.008 143.525 119.829 143.284 119.594 143.082C119.36 142.874 119.073 142.711 118.735 142.594C118.396 142.47 118.015 142.408 117.592 142.408H115.854V141.188L118.647 137.73L118.666 137.691H113.588V135.719H121.596V136.988L118.51 140.602L118.442 140.699C119.086 140.751 119.672 140.868 120.2 141.051C120.733 141.227 121.189 141.48 121.567 141.812C121.944 142.138 122.237 142.545 122.446 143.033C122.654 143.521 122.758 144.104 122.758 144.781C122.758 145.419 122.635 146.015 122.387 146.568C122.14 147.115 121.795 147.594 121.352 148.004C120.916 148.408 120.398 148.727 119.799 148.961C119.2 149.189 118.549 149.303 117.846 149.303ZM127.212 142.057C126.717 142.057 126.255 141.975 125.825 141.812C125.402 141.643 125.031 141.412 124.712 141.119C124.399 140.826 124.152 140.481 123.97 140.084C123.794 139.68 123.706 139.247 123.706 138.785C123.706 138.316 123.794 137.883 123.97 137.486C124.152 137.083 124.399 136.734 124.712 136.441C125.031 136.148 125.402 135.917 125.825 135.748C126.255 135.579 126.717 135.494 127.212 135.494C127.713 135.494 128.175 135.579 128.598 135.748C129.028 135.911 129.399 136.139 129.712 136.432C130.031 136.725 130.278 137.073 130.454 137.477C130.636 137.88 130.727 138.316 130.727 138.785C130.727 139.247 130.636 139.68 130.454 140.084C130.278 140.481 130.031 140.826 129.712 141.119C129.399 141.412 129.028 141.643 128.598 141.812C128.169 141.975 127.707 142.057 127.212 142.057ZM134.604 135.729H136.802L128.647 149.01H126.479L134.604 135.729ZM127.221 140.416C127.449 140.416 127.654 140.377 127.837 140.299C128.026 140.214 128.185 140.1 128.315 139.957C128.452 139.814 128.556 139.645 128.628 139.449C128.706 139.247 128.745 139.033 128.745 138.805C128.745 138.564 128.706 138.342 128.628 138.141C128.556 137.932 128.452 137.753 128.315 137.604C128.185 137.447 128.026 137.327 127.837 137.242C127.648 137.158 127.44 137.115 127.212 137.115C126.99 137.115 126.785 137.158 126.596 137.242C126.408 137.327 126.245 137.444 126.108 137.594C125.978 137.737 125.874 137.913 125.796 138.121C125.724 138.323 125.688 138.544 125.688 138.785C125.688 139.02 125.724 139.238 125.796 139.439C125.874 139.635 125.978 139.807 126.108 139.957C126.245 140.1 126.408 140.214 126.596 140.299C126.785 140.377 126.994 140.416 127.221 140.416ZM135.688 149.205C135.193 149.205 134.731 149.124 134.302 148.961C133.878 148.792 133.511 148.561 133.198 148.268C132.886 147.975 132.638 147.63 132.456 147.232C132.28 146.835 132.192 146.406 132.192 145.943C132.192 145.475 132.28 145.042 132.456 144.645C132.638 144.241 132.886 143.893 133.198 143.6C133.517 143.3 133.888 143.066 134.311 142.896C134.741 142.727 135.203 142.643 135.698 142.643C136.193 142.643 136.652 142.727 137.075 142.896C137.505 143.059 137.876 143.29 138.188 143.59C138.507 143.883 138.755 144.231 138.93 144.635C139.113 145.032 139.204 145.465 139.204 145.934C139.204 146.396 139.113 146.829 138.93 147.232C138.755 147.63 138.507 147.975 138.188 148.268C137.876 148.561 137.505 148.792 137.075 148.961C136.652 149.124 136.19 149.205 135.688 149.205ZM135.708 147.574C135.936 147.574 136.141 147.535 136.323 147.457C136.512 147.372 136.671 147.258 136.802 147.115C136.938 146.965 137.042 146.793 137.114 146.598C137.192 146.402 137.231 146.188 137.231 145.953C137.231 145.712 137.192 145.491 137.114 145.289C137.042 145.081 136.938 144.902 136.802 144.752C136.665 144.602 136.502 144.485 136.313 144.4C136.124 144.316 135.919 144.273 135.698 144.273C135.477 144.273 135.272 144.316 135.083 144.4C134.894 144.485 134.731 144.602 134.595 144.752C134.464 144.895 134.36 145.068 134.282 145.27C134.21 145.471 134.175 145.693 134.175 145.934C134.175 146.168 134.21 146.386 134.282 146.588C134.36 146.783 134.464 146.956 134.595 147.105C134.731 147.249 134.894 147.363 135.083 147.447C135.272 147.532 135.48 147.574 135.708 147.574Z" fill="black"/>
<path d="M203.715 138.004L201.332 138.932L201.322 136.793L204.125 135.709H206.146V149H203.715V138.004ZM212.846 149.303C212.221 149.303 211.612 149.215 211.02 149.039C210.427 148.863 209.9 148.587 209.438 148.209C208.976 147.825 208.601 147.33 208.315 146.725C208.035 146.119 207.888 145.387 207.875 144.527H210.287C210.301 145.016 210.388 145.423 210.551 145.748C210.714 146.074 210.919 146.337 211.166 146.539C211.414 146.734 211.69 146.874 211.996 146.959C212.302 147.044 212.605 147.086 212.905 147.086C213.23 147.086 213.539 147.027 213.832 146.91C214.125 146.786 214.383 146.62 214.604 146.412C214.825 146.204 214.998 145.953 215.121 145.66C215.252 145.367 215.317 145.051 215.317 144.713C215.317 144.387 215.255 144.085 215.131 143.805C215.008 143.525 214.829 143.284 214.594 143.082C214.36 142.874 214.073 142.711 213.735 142.594C213.396 142.47 213.015 142.408 212.592 142.408H210.854V141.188L213.647 137.73L213.666 137.691H208.588V135.719H216.596V136.988L213.51 140.602L213.442 140.699C214.086 140.751 214.672 140.868 215.2 141.051C215.733 141.227 216.189 141.48 216.567 141.812C216.944 142.138 217.237 142.545 217.446 143.033C217.654 143.521 217.758 144.104 217.758 144.781C217.758 145.419 217.635 146.015 217.387 146.568C217.14 147.115 216.795 147.594 216.352 148.004C215.916 148.408 215.398 148.727 214.799 148.961C214.2 149.189 213.549 149.303 212.846 149.303ZM222.212 142.057C221.717 142.057 221.255 141.975 220.825 141.812C220.402 141.643 220.031 141.412 219.712 141.119C219.399 140.826 219.152 140.481 218.97 140.084C218.794 139.68 218.706 139.247 218.706 138.785C218.706 138.316 218.794 137.883 218.97 137.486C219.152 137.083 219.399 136.734 219.712 136.441C220.031 136.148 220.402 135.917 220.825 135.748C221.255 135.579 221.717 135.494 222.212 135.494C222.713 135.494 223.175 135.579 223.598 135.748C224.028 135.911 224.399 136.139 224.712 136.432C225.031 136.725 225.278 137.073 225.454 137.477C225.636 137.88 225.727 138.316 225.727 138.785C225.727 139.247 225.636 139.68 225.454 140.084C225.278 140.481 225.031 140.826 224.712 141.119C224.399 141.412 224.028 141.643 223.598 141.812C223.169 141.975 222.707 142.057 222.212 142.057ZM229.604 135.729H231.802L223.647 149.01H221.479L229.604 135.729ZM222.221 140.416C222.449 140.416 222.654 140.377 222.837 140.299C223.026 140.214 223.185 140.1 223.315 139.957C223.452 139.814 223.556 139.645 223.628 139.449C223.706 139.247 223.745 139.033 223.745 138.805C223.745 138.564 223.706 138.342 223.628 138.141C223.556 137.932 223.452 137.753 223.315 137.604C223.185 137.447 223.026 137.327 222.837 137.242C222.648 137.158 222.44 137.115 222.212 137.115C221.99 137.115 221.785 137.158 221.596 137.242C221.408 137.327 221.245 137.444 221.108 137.594C220.978 137.737 220.874 137.913 220.796 138.121C220.724 138.323 220.688 138.544 220.688 138.785C220.688 139.02 220.724 139.238 220.796 139.439C220.874 139.635 220.978 139.807 221.108 139.957C221.245 140.1 221.408 140.214 221.596 140.299C221.785 140.377 221.994 140.416 222.221 140.416ZM230.688 149.205C230.193 149.205 229.731 149.124 229.302 148.961C228.878 148.792 228.511 148.561 228.198 148.268C227.886 147.975 227.638 147.63 227.456 147.232C227.28 146.835 227.192 146.406 227.192 145.943C227.192 145.475 227.28 145.042 227.456 144.645C227.638 144.241 227.886 143.893 228.198 143.6C228.517 143.3 228.888 143.066 229.311 142.896C229.741 142.727 230.203 142.643 230.698 142.643C231.193 142.643 231.652 142.727 232.075 142.896C232.505 143.059 232.876 143.29 233.188 143.59C233.507 143.883 233.755 144.231 233.93 144.635C234.113 145.032 234.204 145.465 234.204 145.934C234.204 146.396 234.113 146.829 233.93 147.232C233.755 147.63 233.507 147.975 233.188 148.268C232.876 148.561 232.505 148.792 232.075 148.961C231.652 149.124 231.19 149.205 230.688 149.205ZM230.708 147.574C230.936 147.574 231.141 147.535 231.323 147.457C231.512 147.372 231.671 147.258 231.802 147.115C231.938 146.965 232.042 146.793 232.114 146.598C232.192 146.402 232.231 146.188 232.231 145.953C232.231 145.712 232.192 145.491 232.114 145.289C232.042 145.081 231.938 144.902 231.802 144.752C231.665 144.602 231.502 144.485 231.313 144.4C231.124 144.316 230.919 144.273 230.698 144.273C230.477 144.273 230.272 144.316 230.083 144.4C229.894 144.485 229.731 144.602 229.595 144.752C229.464 144.895 229.36 145.068 229.282 145.27C229.21 145.471 229.175 145.693 229.175 145.934C229.175 146.168 229.21 146.386 229.282 146.588C229.36 146.783 229.464 146.956 229.595 147.105C229.731 147.249 229.894 147.363 230.083 147.447C230.272 147.532 230.48 147.574 230.708 147.574Z" fill="black"/>
<path d="M303.83 174.303C303.264 174.303 302.697 174.225 302.131 174.068C301.571 173.919 301.057 173.671 300.588 173.326C300.119 172.975 299.725 172.516 299.406 171.949C299.094 171.383 298.905 170.683 298.84 169.85H301.203C301.268 170.26 301.392 170.608 301.574 170.895C301.757 171.174 301.968 171.402 302.209 171.578C302.456 171.754 302.72 171.884 303 171.969C303.286 172.047 303.563 172.086 303.83 172.086C304.201 172.086 304.536 172.024 304.836 171.9C305.142 171.777 305.402 171.604 305.617 171.383C305.839 171.161 306.008 170.904 306.125 170.611C306.249 170.312 306.311 169.993 306.311 169.654C306.311 169.283 306.242 168.961 306.105 168.688C305.975 168.408 305.783 168.173 305.529 167.984C305.282 167.796 304.979 167.652 304.621 167.555C304.263 167.457 303.863 167.408 303.42 167.408L300.734 167.398L299.689 166.549L300.5 160.709H307.824V162.691H302.551L302.15 165.68H304.045C304.774 165.68 305.428 165.771 306.008 165.953C306.587 166.135 307.079 166.399 307.482 166.744C307.893 167.089 308.205 167.509 308.42 168.004C308.635 168.492 308.742 169.049 308.742 169.674C308.742 170.286 308.625 170.872 308.391 171.432C308.163 171.985 307.834 172.477 307.404 172.906C306.981 173.329 306.467 173.668 305.861 173.922C305.256 174.176 304.579 174.303 303.83 174.303ZM313.381 167.057C312.886 167.057 312.424 166.975 311.995 166.812C311.571 166.643 311.2 166.412 310.881 166.119C310.569 165.826 310.321 165.481 310.139 165.084C309.963 164.68 309.875 164.247 309.875 163.785C309.875 163.316 309.963 162.883 310.139 162.486C310.321 162.083 310.569 161.734 310.881 161.441C311.2 161.148 311.571 160.917 311.995 160.748C312.424 160.579 312.886 160.494 313.381 160.494C313.883 160.494 314.345 160.579 314.768 160.748C315.198 160.911 315.569 161.139 315.881 161.432C316.2 161.725 316.448 162.073 316.623 162.477C316.806 162.88 316.897 163.316 316.897 163.785C316.897 164.247 316.806 164.68 316.623 165.084C316.448 165.481 316.2 165.826 315.881 166.119C315.569 166.412 315.198 166.643 314.768 166.812C314.338 166.975 313.876 167.057 313.381 167.057ZM320.774 160.729H322.971L314.817 174.01H312.649L320.774 160.729ZM313.391 165.416C313.619 165.416 313.824 165.377 314.006 165.299C314.195 165.214 314.355 165.1 314.485 164.957C314.621 164.814 314.726 164.645 314.797 164.449C314.875 164.247 314.914 164.033 314.914 163.805C314.914 163.564 314.875 163.342 314.797 163.141C314.726 162.932 314.621 162.753 314.485 162.604C314.355 162.447 314.195 162.327 314.006 162.242C313.817 162.158 313.609 162.115 313.381 162.115C313.16 162.115 312.955 162.158 312.766 162.242C312.577 162.327 312.414 162.444 312.278 162.594C312.148 162.737 312.043 162.913 311.965 163.121C311.894 163.323 311.858 163.544 311.858 163.785C311.858 164.02 311.894 164.238 311.965 164.439C312.043 164.635 312.148 164.807 312.278 164.957C312.414 165.1 312.577 165.214 312.766 165.299C312.955 165.377 313.163 165.416 313.391 165.416ZM321.858 174.205C321.363 174.205 320.901 174.124 320.471 173.961C320.048 173.792 319.68 173.561 319.368 173.268C319.055 172.975 318.808 172.63 318.625 172.232C318.45 171.835 318.362 171.406 318.362 170.943C318.362 170.475 318.45 170.042 318.625 169.645C318.808 169.241 319.055 168.893 319.368 168.6C319.687 168.3 320.058 168.066 320.481 167.896C320.911 167.727 321.373 167.643 321.868 167.643C322.362 167.643 322.821 167.727 323.245 167.896C323.674 168.059 324.045 168.29 324.358 168.59C324.677 168.883 324.924 169.231 325.1 169.635C325.282 170.032 325.373 170.465 325.373 170.934C325.373 171.396 325.282 171.829 325.1 172.232C324.924 172.63 324.677 172.975 324.358 173.268C324.045 173.561 323.674 173.792 323.245 173.961C322.821 174.124 322.359 174.205 321.858 174.205ZM321.877 172.574C322.105 172.574 322.31 172.535 322.493 172.457C322.681 172.372 322.841 172.258 322.971 172.115C323.108 171.965 323.212 171.793 323.284 171.598C323.362 171.402 323.401 171.188 323.401 170.953C323.401 170.712 323.362 170.491 323.284 170.289C323.212 170.081 323.108 169.902 322.971 169.752C322.834 169.602 322.672 169.485 322.483 169.4C322.294 169.316 322.089 169.273 321.868 169.273C321.646 169.273 321.441 169.316 321.252 169.4C321.064 169.485 320.901 169.602 320.764 169.752C320.634 169.895 320.53 170.068 320.452 170.27C320.38 170.471 320.344 170.693 320.344 170.934C320.344 171.168 320.38 171.386 320.452 171.588C320.53 171.783 320.634 171.956 320.764 172.105C320.901 172.249 321.064 172.363 321.252 172.447C321.441 172.532 321.649 172.574 321.877 172.574Z" fill="black"/>
<path d="M389.684 188.613L394.029 184.668C394.446 184.284 394.82 183.929 395.152 183.604C395.484 183.278 395.764 182.965 395.992 182.666C396.22 182.36 396.396 182.061 396.52 181.768C396.643 181.468 396.705 181.159 396.705 180.84C396.705 180.534 396.65 180.251 396.539 179.99C396.435 179.73 396.285 179.508 396.09 179.326C395.901 179.137 395.673 178.991 395.406 178.887C395.139 178.783 394.846 178.73 394.527 178.73C394.215 178.73 393.915 178.783 393.629 178.887C393.342 178.991 393.089 179.157 392.867 179.385C392.652 179.613 392.477 179.912 392.34 180.283C392.21 180.654 392.145 181.11 392.145 181.65H389.732C389.732 181.006 389.82 180.378 389.996 179.766C390.178 179.147 390.462 178.597 390.846 178.115C391.23 177.627 391.721 177.236 392.32 176.943C392.919 176.644 393.635 176.494 394.469 176.494C395.198 176.494 395.852 176.608 396.432 176.836C397.011 177.064 397.499 177.376 397.896 177.773C398.3 178.164 398.606 178.623 398.814 179.15C399.029 179.678 399.137 180.241 399.137 180.84C399.137 181.276 399.075 181.689 398.951 182.08C398.834 182.464 398.661 182.839 398.434 183.203C398.212 183.561 397.945 183.913 397.633 184.258C397.32 184.596 396.969 184.935 396.578 185.273L393.307 188.135L394.4 187.9H399.381V190H389.684V188.613ZM403.991 183.057C403.496 183.057 403.034 182.975 402.604 182.812C402.181 182.643 401.81 182.412 401.491 182.119C401.178 181.826 400.931 181.481 400.748 181.084C400.573 180.68 400.485 180.247 400.485 179.785C400.485 179.316 400.573 178.883 400.748 178.486C400.931 178.083 401.178 177.734 401.491 177.441C401.81 177.148 402.181 176.917 402.604 176.748C403.034 176.579 403.496 176.494 403.991 176.494C404.492 176.494 404.954 176.579 405.377 176.748C405.807 176.911 406.178 177.139 406.491 177.432C406.81 177.725 407.057 178.073 407.233 178.477C407.415 178.88 407.506 179.316 407.506 179.785C407.506 180.247 407.415 180.68 407.233 181.084C407.057 181.481 406.81 181.826 406.491 182.119C406.178 182.412 405.807 182.643 405.377 182.812C404.948 182.975 404.485 183.057 403.991 183.057ZM411.383 176.729H413.58L405.426 190.01H403.258L411.383 176.729ZM404 181.416C404.228 181.416 404.433 181.377 404.616 181.299C404.804 181.214 404.964 181.1 405.094 180.957C405.231 180.814 405.335 180.645 405.407 180.449C405.485 180.247 405.524 180.033 405.524 179.805C405.524 179.564 405.485 179.342 405.407 179.141C405.335 178.932 405.231 178.753 405.094 178.604C404.964 178.447 404.804 178.327 404.616 178.242C404.427 178.158 404.218 178.115 403.991 178.115C403.769 178.115 403.564 178.158 403.375 178.242C403.187 178.327 403.024 178.444 402.887 178.594C402.757 178.737 402.653 178.913 402.575 179.121C402.503 179.323 402.467 179.544 402.467 179.785C402.467 180.02 402.503 180.238 402.575 180.439C402.653 180.635 402.757 180.807 402.887 180.957C403.024 181.1 403.187 181.214 403.375 181.299C403.564 181.377 403.773 181.416 404 181.416ZM412.467 190.205C411.972 190.205 411.51 190.124 411.08 189.961C410.657 189.792 410.289 189.561 409.977 189.268C409.664 188.975 409.417 188.63 409.235 188.232C409.059 187.835 408.971 187.406 408.971 186.943C408.971 186.475 409.059 186.042 409.235 185.645C409.417 185.241 409.664 184.893 409.977 184.6C410.296 184.3 410.667 184.066 411.09 183.896C411.52 183.727 411.982 183.643 412.477 183.643C412.972 183.643 413.431 183.727 413.854 183.896C414.284 184.059 414.655 184.29 414.967 184.59C415.286 184.883 415.534 185.231 415.709 185.635C415.892 186.032 415.983 186.465 415.983 186.934C415.983 187.396 415.892 187.829 415.709 188.232C415.534 188.63 415.286 188.975 414.967 189.268C414.655 189.561 414.284 189.792 413.854 189.961C413.431 190.124 412.968 190.205 412.467 190.205ZM412.487 188.574C412.715 188.574 412.92 188.535 413.102 188.457C413.291 188.372 413.45 188.258 413.58 188.115C413.717 187.965 413.821 187.793 413.893 187.598C413.971 187.402 414.01 187.188 414.01 186.953C414.01 186.712 413.971 186.491 413.893 186.289C413.821 186.081 413.717 185.902 413.58 185.752C413.444 185.602 413.281 185.485 413.092 185.4C412.903 185.316 412.698 185.273 412.477 185.273C412.256 185.273 412.051 185.316 411.862 185.4C411.673 185.485 411.51 185.602 411.373 185.752C411.243 185.895 411.139 186.068 411.061 186.27C410.989 186.471 410.954 186.693 410.954 186.934C410.954 187.168 410.989 187.386 411.061 187.588C411.139 187.783 411.243 187.956 411.373 188.105C411.51 188.249 411.673 188.363 411.862 188.447C412.051 188.532 412.259 188.574 412.487 188.574Z" fill="black"/>
<path d="M484.133 249.721H490.803V251.664H484.133V249.721ZM497.375 256.303C496.809 256.303 496.243 256.225 495.676 256.068C495.116 255.919 494.602 255.671 494.133 255.326C493.664 254.975 493.271 254.516 492.952 253.949C492.639 253.383 492.45 252.683 492.385 251.85H494.748C494.814 252.26 494.937 252.608 495.12 252.895C495.302 253.174 495.513 253.402 495.754 253.578C496.002 253.754 496.265 253.884 496.545 253.969C496.832 254.047 497.108 254.086 497.375 254.086C497.746 254.086 498.082 254.024 498.381 253.9C498.687 253.777 498.948 253.604 499.163 253.383C499.384 253.161 499.553 252.904 499.67 252.611C499.794 252.312 499.856 251.993 499.856 251.654C499.856 251.283 499.788 250.961 499.651 250.688C499.521 250.408 499.329 250.173 499.075 249.984C498.827 249.796 498.524 249.652 498.166 249.555C497.808 249.457 497.408 249.408 496.965 249.408L494.28 249.398L493.235 248.549L494.045 242.709H501.37V244.691H496.096L495.696 247.68H497.59C498.319 247.68 498.974 247.771 499.553 247.953C500.133 248.135 500.624 248.399 501.028 248.744C501.438 249.089 501.75 249.509 501.965 250.004C502.18 250.492 502.288 251.049 502.288 251.674C502.288 252.286 502.17 252.872 501.936 253.432C501.708 253.985 501.379 254.477 500.95 254.906C500.526 255.329 500.012 255.668 499.407 255.922C498.801 256.176 498.124 256.303 497.375 256.303ZM506.927 249.057C506.432 249.057 505.97 248.975 505.54 248.812C505.117 248.643 504.746 248.412 504.427 248.119C504.114 247.826 503.867 247.481 503.684 247.084C503.509 246.68 503.421 246.247 503.421 245.785C503.421 245.316 503.509 244.883 503.684 244.486C503.867 244.083 504.114 243.734 504.427 243.441C504.746 243.148 505.117 242.917 505.54 242.748C505.97 242.579 506.432 242.494 506.927 242.494C507.428 242.494 507.89 242.579 508.313 242.748C508.743 242.911 509.114 243.139 509.427 243.432C509.746 243.725 509.993 244.073 510.169 244.477C510.351 244.88 510.442 245.316 510.442 245.785C510.442 246.247 510.351 246.68 510.169 247.084C509.993 247.481 509.746 247.826 509.427 248.119C509.114 248.412 508.743 248.643 508.313 248.812C507.884 248.975 507.421 249.057 506.927 249.057ZM514.319 242.729H516.516L508.362 256.01H506.194L514.319 242.729ZM506.936 247.416C507.164 247.416 507.369 247.377 507.552 247.299C507.74 247.214 507.9 247.1 508.03 246.957C508.167 246.814 508.271 246.645 508.343 246.449C508.421 246.247 508.46 246.033 508.46 245.805C508.46 245.564 508.421 245.342 508.343 245.141C508.271 244.932 508.167 244.753 508.03 244.604C507.9 244.447 507.74 244.327 507.552 244.242C507.363 244.158 507.154 244.115 506.927 244.115C506.705 244.115 506.5 244.158 506.311 244.242C506.123 244.327 505.96 244.444 505.823 244.594C505.693 244.737 505.589 244.913 505.511 245.121C505.439 245.323 505.403 245.544 505.403 245.785C505.403 246.02 505.439 246.238 505.511 246.439C505.589 246.635 505.693 246.807 505.823 246.957C505.96 247.1 506.123 247.214 506.311 247.299C506.5 247.377 506.708 247.416 506.936 247.416ZM515.403 256.205C514.908 256.205 514.446 256.124 514.016 255.961C513.593 255.792 513.225 255.561 512.913 255.268C512.6 254.975 512.353 254.63 512.171 254.232C511.995 253.835 511.907 253.406 511.907 252.943C511.907 252.475 511.995 252.042 512.171 251.645C512.353 251.241 512.6 250.893 512.913 250.6C513.232 250.3 513.603 250.066 514.026 249.896C514.456 249.727 514.918 249.643 515.413 249.643C515.908 249.643 516.367 249.727 516.79 249.896C517.22 250.059 517.591 250.29 517.903 250.59C518.222 250.883 518.47 251.231 518.645 251.635C518.828 252.032 518.919 252.465 518.919 252.934C518.919 253.396 518.828 253.829 518.645 254.232C518.47 254.63 518.222 254.975 517.903 255.268C517.591 255.561 517.22 255.792 516.79 255.961C516.367 256.124 515.904 256.205 515.403 256.205ZM515.423 254.574C515.651 254.574 515.856 254.535 516.038 254.457C516.227 254.372 516.386 254.258 516.516 254.115C516.653 253.965 516.757 253.793 516.829 253.598C516.907 253.402 516.946 253.188 516.946 252.953C516.946 252.712 516.907 252.491 516.829 252.289C516.757 252.081 516.653 251.902 516.516 251.752C516.38 251.602 516.217 251.485 516.028 251.4C515.839 251.316 515.634 251.273 515.413 251.273C515.192 251.273 514.986 251.316 514.798 251.4C514.609 251.485 514.446 251.602 514.309 251.752C514.179 251.895 514.075 252.068 513.997 252.27C513.925 252.471 513.889 252.693 513.889 252.934C513.889 253.168 513.925 253.386 513.997 253.588C514.075 253.783 514.179 253.956 514.309 254.105C514.446 254.249 514.609 254.363 514.798 254.447C514.986 254.532 515.195 254.574 515.423 254.574Z" fill="black"/>
<rect width="75" height="52" transform="translate(92 165)" fill="#01B848"/>
<rect width="75" height="52" transform="translate(184 165)" fill="#01B848"/>
<rect width="75" height="30" transform="translate(276 187)" fill="#01B848"/>
<rect width="75" height="14" transform="translate(368 203)" fill="#01B848"/>
<rect width="75" height="13" transform="translate(460 217)" fill="#FF0000"/>
<path d="M10.4453 274.375H14.9844C15.4271 274.375 15.8333 274.443 16.2031 274.578C16.5729 274.714 16.8906 274.904 17.1562 275.148C17.4271 275.393 17.638 275.688 17.7891 276.031C17.9401 276.375 18.0156 276.755 18.0156 277.172C18.0156 277.417 17.9792 277.654 17.9062 277.883C17.8333 278.112 17.7344 278.323 17.6094 278.516C17.4844 278.708 17.3359 278.88 17.1641 279.031C16.9922 279.177 16.8073 279.294 16.6094 279.383C16.8906 279.466 17.1536 279.591 17.3984 279.758C17.6432 279.924 17.8568 280.122 18.0391 280.352C18.2266 280.581 18.3724 280.836 18.4766 281.117C18.5807 281.393 18.6328 281.688 18.6328 282C18.6328 282.479 18.5443 282.906 18.3672 283.281C18.1901 283.651 17.9531 283.964 17.6562 284.219C17.3594 284.474 17.0182 284.669 16.6328 284.805C16.2474 284.935 15.8464 285 15.4297 285H10.4453V274.375ZM14.9219 278.984C15.1562 278.984 15.3776 278.94 15.5859 278.852C15.7943 278.763 15.974 278.643 16.125 278.492C16.276 278.336 16.3958 278.154 16.4844 277.945C16.5729 277.737 16.6172 277.513 16.6172 277.273C16.6172 277.039 16.5729 276.818 16.4844 276.609C16.3958 276.401 16.276 276.221 16.125 276.07C15.974 275.919 15.7943 275.799 15.5859 275.711C15.3828 275.622 15.1641 275.578 14.9297 275.578H11.8438V278.984H14.9219ZM15.3203 283.781C15.5859 283.781 15.8333 283.734 16.0625 283.641C16.2917 283.542 16.4922 283.409 16.6641 283.242C16.8359 283.076 16.9688 282.878 17.0625 282.648C17.1615 282.419 17.2109 282.169 17.2109 281.898C17.2109 281.643 17.1615 281.404 17.0625 281.18C16.9688 280.956 16.8359 280.76 16.6641 280.594C16.4974 280.427 16.2995 280.297 16.0703 280.203C15.8464 280.104 15.6016 280.055 15.3359 280.055H11.8438V283.781H15.3203ZM20.8988 275.477C20.6175 275.477 20.3961 275.393 20.2347 275.227C20.0732 275.06 19.9925 274.857 19.9925 274.617C19.9925 274.383 20.0732 274.182 20.2347 274.016C20.4014 273.849 20.6253 273.766 20.9066 273.766C21.193 273.766 21.417 273.849 21.5784 274.016C21.7451 274.182 21.8284 274.383 21.8284 274.617C21.8284 274.857 21.7451 275.06 21.5784 275.227C21.417 275.393 21.1904 275.477 20.8988 275.477ZM20.2347 277.031H21.5784V285H20.2347V277.031ZM26.9147 285C26.6126 285 26.3105 284.964 26.0084 284.891C25.7116 284.812 25.4433 284.667 25.2037 284.453C24.9694 284.24 24.7767 283.94 24.6256 283.555C24.4798 283.169 24.4069 282.667 24.4069 282.047V278.211H22.6334V277.031H24.4069V274.664L25.7506 274.656V277.031H28.3834V278.211H25.7506V282.109C25.7506 282.479 25.7923 282.779 25.8756 283.008C25.959 283.237 26.0657 283.414 26.1959 283.539C26.3314 283.664 26.485 283.75 26.6569 283.797C26.8287 283.839 27.0032 283.859 27.1803 283.859H28.3834V285H26.9147ZM32.9463 285.227C32.3681 285.227 31.8317 285.117 31.3369 284.898C30.8421 284.674 30.4124 284.372 30.0478 283.992C29.6832 283.612 29.3968 283.167 29.1884 282.656C28.9801 282.146 28.8759 281.599 28.8759 281.016C28.8759 280.432 28.9801 279.885 29.1884 279.375C29.3968 278.865 29.6832 278.419 30.0478 278.039C30.4124 277.659 30.8421 277.359 31.3369 277.141C31.8317 276.917 32.3681 276.805 32.9463 276.805C33.4202 276.805 33.8629 276.875 34.2744 277.016C34.691 277.156 35.0634 277.354 35.3916 277.609C35.7197 277.859 36.0009 278.159 36.2353 278.508C36.4697 278.852 36.6468 279.229 36.7666 279.641H35.3838C35.2796 279.38 35.1442 279.154 34.9775 278.961C34.816 278.763 34.6285 278.599 34.415 278.469C34.2067 278.339 33.9775 278.24 33.7275 278.172C33.4827 278.104 33.2249 278.07 32.9541 278.07C32.6051 278.07 32.2666 278.138 31.9384 278.273C31.6103 278.409 31.3186 278.604 31.0634 278.859C30.8082 279.115 30.6025 279.424 30.4463 279.789C30.2952 280.154 30.2197 280.562 30.2197 281.016C30.2197 281.474 30.2978 281.885 30.4541 282.25C30.6103 282.615 30.816 282.924 31.0713 283.18C31.3265 283.435 31.6181 283.63 31.9463 283.766C32.2744 283.901 32.6103 283.969 32.9541 283.969C33.2197 283.969 33.4775 283.935 33.7275 283.867C33.9775 283.799 34.2067 283.698 34.415 283.562C34.6285 283.422 34.816 283.25 34.9775 283.047C35.1442 282.839 35.2796 282.599 35.3838 282.328H36.7588C36.6442 282.755 36.4697 283.148 36.2353 283.508C36.0009 283.862 35.7197 284.167 35.3916 284.422C35.0634 284.677 34.691 284.875 34.2744 285.016C33.8629 285.156 33.4202 285.227 32.9463 285.227ZM41.7122 285.227C41.1236 285.227 40.5768 285.117 40.0716 284.898C39.5664 284.68 39.1289 284.38 38.7591 284C38.3893 283.62 38.0976 283.174 37.8841 282.664C37.6757 282.148 37.5716 281.599 37.5716 281.016C37.5716 280.432 37.6757 279.885 37.8841 279.375C38.0924 278.865 38.3815 278.419 38.7512 278.039C39.121 277.659 39.5585 277.359 40.0637 277.141C40.569 276.917 41.1184 276.805 41.7122 276.805C42.3059 276.805 42.8554 276.914 43.3606 277.133C43.871 277.352 44.3111 277.651 44.6809 278.031C45.0507 278.411 45.3398 278.859 45.5481 279.375C45.7617 279.885 45.8684 280.432 45.8684 281.016C45.8684 281.599 45.7643 282.148 45.5559 282.664C45.3476 283.174 45.0559 283.62 44.6809 284C44.3111 284.38 43.871 284.68 43.3606 284.898C42.8554 285.117 42.3059 285.227 41.7122 285.227ZM41.7278 283.961C42.1236 283.961 42.4908 283.888 42.8294 283.742C43.1731 283.591 43.47 283.385 43.72 283.125C43.97 282.865 44.1653 282.555 44.3059 282.195C44.4518 281.831 44.5247 281.438 44.5247 281.016C44.5247 280.594 44.4518 280.203 44.3059 279.844C44.1653 279.484 43.97 279.174 43.72 278.914C43.47 278.648 43.1731 278.443 42.8294 278.297C42.4908 278.146 42.1236 278.07 41.7278 278.07C41.332 278.07 40.9622 278.146 40.6184 278.297C40.2747 278.443 39.9752 278.648 39.72 278.914C39.47 279.174 39.2721 279.484 39.1262 279.844C38.9856 280.203 38.9153 280.594 38.9153 281.016C38.9153 281.438 38.9856 281.831 39.1262 282.195C39.2721 282.555 39.47 282.865 39.72 283.125C39.9752 283.385 40.2747 283.591 40.6184 283.742C40.9622 283.888 41.332 283.961 41.7278 283.961ZM48.1188 275.477C47.8375 275.477 47.6161 275.393 47.4547 275.227C47.2932 275.06 47.2125 274.857 47.2125 274.617C47.2125 274.383 47.2932 274.182 47.4547 274.016C47.6214 273.849 47.8453 273.766 48.1266 273.766C48.413 273.766 48.637 273.849 48.7984 274.016C48.9651 274.182 49.0484 274.383 49.0484 274.617C49.0484 274.857 48.9651 275.06 48.7984 275.227C48.637 275.393 48.4104 275.477 48.1188 275.477ZM47.4547 277.031H48.7984V285H47.4547V277.031ZM51.0566 277.031H52.3456V278.57C52.4602 278.315 52.6139 278.081 52.8066 277.867C52.9993 277.648 53.2232 277.461 53.4784 277.305C53.7336 277.148 54.0123 277.026 54.3144 276.938C54.6217 276.849 54.9446 276.805 55.2831 276.805C56.3456 276.805 57.1477 277.13 57.6894 277.781C58.2363 278.432 58.5097 279.398 58.5097 280.68V285H57.1659V280.703C57.1659 280.245 57.1139 279.849 57.0097 279.516C56.9107 279.182 56.7649 278.909 56.5722 278.695C56.3795 278.482 56.1451 278.323 55.8691 278.219C55.593 278.115 55.2831 278.062 54.9394 278.062C54.606 278.062 54.2857 278.128 53.9784 278.258C53.6764 278.383 53.4081 278.565 53.1738 278.805C52.9394 279.039 52.7519 279.326 52.6113 279.664C52.4706 280.003 52.4003 280.385 52.4003 280.812V285H51.0566V277.031Z" fill="#7C7C7C"/>
<path d="M102.758 285.227C102.039 285.227 101.417 285.13 100.891 284.938C100.365 284.745 99.9297 284.492 99.5859 284.18C99.2474 283.867 98.9948 283.513 98.8281 283.117C98.6667 282.721 98.5859 282.323 98.5859 281.922H99.9688C99.9688 282.203 100.031 282.471 100.156 282.727C100.281 282.982 100.464 283.208 100.703 283.406C100.943 283.599 101.234 283.753 101.578 283.867C101.922 283.982 102.312 284.039 102.75 284.039C103.661 284.039 104.357 283.875 104.836 283.547C105.32 283.219 105.562 282.724 105.562 282.062C105.562 281.75 105.492 281.484 105.352 281.266C105.211 281.047 105.016 280.865 104.766 280.719C104.521 280.568 104.229 280.448 103.891 280.359C103.552 280.266 103.185 280.188 102.789 280.125C102.492 280.073 102.19 280.013 101.883 279.945C101.576 279.878 101.276 279.792 100.984 279.688C100.693 279.578 100.417 279.451 100.156 279.305C99.901 279.154 99.6771 278.974 99.4844 278.766C99.2917 278.557 99.138 278.318 99.0234 278.047C98.9141 277.771 98.8594 277.453 98.8594 277.094C98.8594 276.698 98.9297 276.323 99.0703 275.969C99.2161 275.609 99.4427 275.294 99.75 275.023C100.057 274.753 100.453 274.539 100.938 274.383C101.427 274.221 102.018 274.141 102.711 274.141C103.336 274.141 103.885 274.216 104.359 274.367C104.839 274.513 105.24 274.721 105.562 274.992C105.885 275.258 106.128 275.576 106.289 275.945C106.456 276.315 106.539 276.721 106.539 277.164H105.148C105.148 276.898 105.094 276.656 104.984 276.438C104.88 276.219 104.724 276.029 104.516 275.867C104.312 275.706 104.057 275.581 103.75 275.492C103.448 275.404 103.096 275.359 102.695 275.359C102.216 275.359 101.818 275.409 101.5 275.508C101.188 275.607 100.938 275.74 100.75 275.906C100.562 276.068 100.43 276.253 100.352 276.461C100.279 276.669 100.242 276.883 100.242 277.102C100.242 277.383 100.307 277.625 100.438 277.828C100.568 278.031 100.76 278.206 101.016 278.352C101.271 278.497 101.583 278.62 101.953 278.719C102.323 278.812 102.745 278.891 103.219 278.953C103.661 279.021 104.104 279.12 104.547 279.25C104.995 279.38 105.396 279.562 105.75 279.797C106.109 280.031 106.401 280.331 106.625 280.695C106.849 281.06 106.961 281.516 106.961 282.062C106.961 282.562 106.865 283.008 106.672 283.398C106.479 283.789 106.201 284.12 105.836 284.391C105.477 284.661 105.036 284.867 104.516 285.008C103.995 285.154 103.409 285.227 102.758 285.227ZM115 283.844C114.511 284.266 113.974 284.599 113.391 284.844C112.813 285.089 112.216 285.211 111.602 285.211C111.086 285.211 110.607 285.138 110.164 284.992C109.722 284.841 109.336 284.633 109.008 284.367C108.68 284.096 108.422 283.776 108.235 283.406C108.052 283.031 107.961 282.62 107.961 282.172C107.961 281.76 108.039 281.396 108.196 281.078C108.357 280.755 108.563 280.469 108.813 280.219C109.063 279.969 109.341 279.745 109.649 279.547C109.961 279.349 110.271 279.167 110.578 279C110.422 278.865 110.266 278.708 110.11 278.531C109.953 278.349 109.81 278.154 109.68 277.945C109.55 277.732 109.443 277.51 109.36 277.281C109.282 277.052 109.243 276.818 109.243 276.578C109.243 276.224 109.31 275.898 109.446 275.602C109.581 275.305 109.771 275.047 110.016 274.828C110.266 274.609 110.565 274.44 110.914 274.32C111.269 274.201 111.659 274.141 112.086 274.141C112.503 274.141 112.881 274.195 113.219 274.305C113.558 274.414 113.847 274.57 114.086 274.773C114.331 274.977 114.519 275.224 114.649 275.516C114.784 275.802 114.852 276.128 114.852 276.492C114.852 276.831 114.787 277.138 114.657 277.414C114.532 277.685 114.36 277.932 114.141 278.156C113.927 278.375 113.68 278.573 113.399 278.75C113.123 278.927 112.836 279.094 112.539 279.25L115.149 282.125C115.394 281.797 115.597 281.445 115.758 281.07C115.92 280.69 116.026 280.289 116.078 279.867L117.328 279.875C117.271 280.469 117.12 281.034 116.875 281.57C116.631 282.102 116.321 282.591 115.946 283.039C116.243 283.367 116.534 283.695 116.821 284.023C117.112 284.346 117.404 284.672 117.696 285H116.063L115 283.844ZM111.633 278.484C111.821 278.396 112.024 278.297 112.243 278.188C112.461 278.073 112.664 277.94 112.852 277.789C113.039 277.633 113.196 277.453 113.321 277.25C113.446 277.042 113.508 276.797 113.508 276.516C113.508 276.328 113.474 276.156 113.407 276C113.344 275.839 113.253 275.703 113.133 275.594C113.013 275.479 112.868 275.391 112.696 275.328C112.529 275.26 112.341 275.227 112.133 275.227C111.878 275.227 111.654 275.266 111.461 275.344C111.274 275.422 111.115 275.529 110.985 275.664C110.854 275.799 110.756 275.956 110.688 276.133C110.625 276.305 110.594 276.49 110.594 276.688C110.594 276.859 110.625 277.029 110.688 277.195C110.75 277.357 110.831 277.513 110.93 277.664C111.034 277.815 111.146 277.961 111.266 278.102C111.391 278.237 111.513 278.365 111.633 278.484ZM111.563 284.047C112.063 284.047 112.537 283.953 112.985 283.766C113.438 283.573 113.847 283.307 114.211 282.969C113.732 282.438 113.256 281.911 112.782 281.391C112.308 280.87 111.831 280.346 111.352 279.82C111.128 279.94 110.894 280.07 110.649 280.211C110.409 280.352 110.19 280.516 109.993 280.703C109.795 280.885 109.631 281.094 109.5 281.328C109.375 281.562 109.313 281.833 109.313 282.141C109.313 282.427 109.37 282.69 109.485 282.93C109.599 283.164 109.758 283.365 109.961 283.531C110.164 283.693 110.401 283.82 110.672 283.914C110.948 284.003 111.245 284.047 111.563 284.047ZM119.696 274.375H124.055C124.571 274.375 125.045 274.461 125.477 274.633C125.909 274.805 126.282 275.047 126.594 275.359C126.907 275.667 127.149 276.034 127.321 276.461C127.498 276.883 127.587 277.344 127.587 277.844C127.587 278.365 127.498 278.841 127.321 279.273C127.149 279.706 126.907 280.078 126.594 280.391C126.287 280.698 125.92 280.938 125.493 281.109C125.066 281.281 124.597 281.367 124.087 281.367H121.079V285H119.696V274.375ZM124.024 280.117C124.337 280.117 124.626 280.06 124.891 279.945C125.157 279.831 125.386 279.672 125.579 279.469C125.777 279.266 125.93 279.026 126.04 278.75C126.149 278.474 126.204 278.174 126.204 277.852C126.204 277.544 126.146 277.255 126.032 276.984C125.923 276.714 125.769 276.477 125.571 276.273C125.378 276.07 125.146 275.911 124.876 275.797C124.61 275.677 124.321 275.617 124.008 275.617H121.079V280.117H124.024ZM135.837 285.227C135.436 285.227 135.025 285.172 134.603 285.062C134.186 284.953 133.798 284.771 133.439 284.516C133.079 284.255 132.772 283.917 132.517 283.5C132.262 283.078 132.098 282.557 132.025 281.938H133.384C133.457 282.312 133.582 282.63 133.759 282.891C133.936 283.146 134.139 283.354 134.368 283.516C134.603 283.672 134.848 283.784 135.103 283.852C135.363 283.919 135.608 283.953 135.837 283.953C136.176 283.953 136.491 283.893 136.783 283.773C137.074 283.648 137.327 283.482 137.54 283.273C137.759 283.06 137.928 282.807 138.048 282.516C138.173 282.224 138.236 281.911 138.236 281.578C138.236 281.234 138.171 280.927 138.04 280.656C137.91 280.38 137.725 280.148 137.486 279.961C137.246 279.773 136.957 279.63 136.618 279.531C136.28 279.432 135.902 279.383 135.486 279.383L133.345 279.375L132.697 278.859L133.298 274.367H138.892V275.516H134.47L134.095 278.359H135.814C136.402 278.359 136.931 278.435 137.4 278.586C137.868 278.737 138.267 278.953 138.595 279.234C138.923 279.516 139.176 279.854 139.353 280.25C139.53 280.646 139.618 281.091 139.618 281.586C139.618 282.07 139.527 282.534 139.345 282.977C139.168 283.414 138.913 283.799 138.579 284.133C138.251 284.466 137.853 284.732 137.384 284.93C136.921 285.128 136.405 285.227 135.837 285.227ZM145.033 285.227C144.298 285.227 143.653 285.081 143.095 284.789C142.543 284.497 142.082 284.102 141.713 283.602C141.343 283.102 141.064 282.518 140.877 281.852C140.689 281.185 140.595 280.479 140.595 279.734C140.595 278.958 140.694 278.232 140.892 277.555C141.09 276.872 141.379 276.281 141.759 275.781C142.14 275.276 142.603 274.878 143.15 274.586C143.697 274.294 144.322 274.148 145.025 274.148C145.806 274.148 146.476 274.302 147.033 274.609C147.595 274.917 148.056 275.328 148.416 275.844C148.775 276.359 149.041 276.951 149.213 277.617C149.384 278.284 149.47 278.977 149.47 279.695C149.47 280.451 149.374 281.164 149.181 281.836C148.994 282.508 148.713 283.096 148.338 283.602C147.963 284.102 147.499 284.497 146.947 284.789C146.395 285.081 145.757 285.227 145.033 285.227ZM145.033 283.938C145.512 283.938 145.939 283.831 146.314 283.617C146.694 283.404 147.015 283.109 147.275 282.734C147.541 282.354 147.741 281.906 147.877 281.391C148.017 280.87 148.088 280.305 148.088 279.695C148.088 279.107 148.022 278.555 147.892 278.039C147.762 277.518 147.567 277.065 147.306 276.68C147.051 276.294 146.731 275.99 146.345 275.766C145.965 275.542 145.522 275.43 145.017 275.43C144.559 275.43 144.142 275.536 143.767 275.75C143.392 275.964 143.072 276.263 142.806 276.648C142.541 277.029 142.335 277.482 142.189 278.008C142.048 278.529 141.978 279.102 141.978 279.727C141.978 280.326 142.046 280.883 142.181 281.398C142.322 281.914 142.522 282.359 142.783 282.734C143.048 283.109 143.369 283.404 143.744 283.617C144.124 283.831 144.554 283.938 145.033 283.938ZM154.853 285.227C154.119 285.227 153.473 285.081 152.916 284.789C152.364 284.497 151.903 284.102 151.533 283.602C151.163 283.102 150.885 282.518 150.697 281.852C150.51 281.185 150.416 280.479 150.416 279.734C150.416 278.958 150.515 278.232 150.713 277.555C150.911 276.872 151.2 276.281 151.58 275.781C151.96 275.276 152.424 274.878 152.971 274.586C153.518 274.294 154.143 274.148 154.846 274.148C155.627 274.148 156.296 274.302 156.853 274.609C157.416 274.917 157.877 275.328 158.236 275.844C158.596 276.359 158.861 276.951 159.033 277.617C159.205 278.284 159.291 278.977 159.291 279.695C159.291 280.451 159.195 281.164 159.002 281.836C158.814 282.508 158.533 283.096 158.158 283.602C157.783 284.102 157.32 284.497 156.768 284.789C156.215 285.081 155.577 285.227 154.853 285.227ZM154.853 283.938C155.333 283.938 155.76 283.831 156.135 283.617C156.515 283.404 156.835 283.109 157.096 282.734C157.361 282.354 157.562 281.906 157.697 281.391C157.838 280.87 157.908 280.305 157.908 279.695C157.908 279.107 157.843 278.555 157.713 278.039C157.583 277.518 157.387 277.065 157.127 276.68C156.872 276.294 156.551 275.99 156.166 275.766C155.786 275.542 155.343 275.43 154.838 275.43C154.379 275.43 153.963 275.536 153.588 275.75C153.213 275.964 152.893 276.263 152.627 276.648C152.361 277.029 152.156 277.482 152.01 278.008C151.869 278.529 151.799 279.102 151.799 279.727C151.799 280.326 151.866 280.883 152.002 281.398C152.143 281.914 152.343 282.359 152.603 282.734C152.869 283.109 153.189 283.404 153.564 283.617C153.945 283.831 154.374 283.938 154.853 283.938Z" fill="#7C7C7C"/>
<path d="M202.539 274.375V285H201.367L194.828 276.695V285H193.445V274.375H194.609L201.156 282.703H201.164V274.375H202.539ZM208.133 285.227C207.586 285.227 207.078 285.117 206.61 284.898C206.141 284.68 205.735 284.38 205.391 284C205.047 283.62 204.776 283.174 204.578 282.664C204.381 282.148 204.282 281.599 204.282 281.016C204.282 280.432 204.381 279.885 204.578 279.375C204.776 278.865 205.047 278.419 205.391 278.039C205.735 277.659 206.141 277.359 206.61 277.141C207.078 276.922 207.584 276.812 208.125 276.812C208.485 276.812 208.826 276.857 209.149 276.945C209.472 277.034 209.769 277.164 210.039 277.336C210.315 277.503 210.558 277.706 210.766 277.945C210.979 278.18 211.154 278.445 211.289 278.742V277.031H212.578V285H211.289V283.305C211.154 283.602 210.979 283.87 210.766 284.109C210.558 284.344 210.315 284.544 210.039 284.711C209.769 284.878 209.472 285.005 209.149 285.094C208.826 285.182 208.487 285.227 208.133 285.227ZM208.43 283.969C208.821 283.969 209.185 283.893 209.524 283.742C209.868 283.591 210.167 283.383 210.422 283.117C210.677 282.852 210.878 282.539 211.024 282.18C211.17 281.82 211.243 281.432 211.243 281.016C211.243 280.604 211.17 280.219 211.024 279.859C210.878 279.5 210.677 279.188 210.422 278.922C210.167 278.656 209.868 278.448 209.524 278.297C209.185 278.146 208.823 278.07 208.438 278.07C208.047 278.07 207.68 278.143 207.336 278.289C206.998 278.435 206.701 278.638 206.446 278.898C206.19 279.159 205.987 279.469 205.836 279.828C205.69 280.188 205.618 280.583 205.618 281.016C205.618 281.458 205.69 281.862 205.836 282.227C205.987 282.586 206.19 282.896 206.446 283.156C206.706 283.411 207.006 283.612 207.344 283.758C207.688 283.898 208.05 283.969 208.43 283.969ZM217.493 285.227C216.936 285.227 216.449 285.151 216.032 285C215.615 284.849 215.269 284.648 214.993 284.398C214.717 284.148 214.508 283.865 214.368 283.547C214.232 283.224 214.165 282.893 214.165 282.555L215.462 282.562C215.467 282.781 215.514 282.987 215.602 283.18C215.696 283.367 215.829 283.531 216.001 283.672C216.173 283.812 216.383 283.924 216.633 284.008C216.889 284.091 217.18 284.133 217.508 284.133C218.113 284.133 218.568 284.016 218.876 283.781C219.183 283.547 219.337 283.227 219.337 282.82C219.337 282.596 219.29 282.411 219.196 282.266C219.107 282.12 218.975 281.997 218.798 281.898C218.626 281.799 218.415 281.721 218.165 281.664C217.92 281.602 217.641 281.544 217.329 281.492C216.959 281.435 216.605 281.357 216.266 281.258C215.928 281.159 215.631 281.021 215.376 280.844C215.12 280.661 214.917 280.432 214.766 280.156C214.615 279.88 214.54 279.542 214.54 279.141C214.54 278.812 214.6 278.508 214.719 278.227C214.839 277.94 215.016 277.693 215.251 277.484C215.49 277.271 215.787 277.104 216.141 276.984C216.501 276.865 216.917 276.805 217.391 276.805C217.855 276.805 218.274 276.865 218.649 276.984C219.024 277.104 219.344 277.271 219.61 277.484C219.881 277.693 220.089 277.943 220.235 278.234C220.381 278.526 220.454 278.846 220.454 279.195H219.133C219.113 278.815 218.951 278.51 218.649 278.281C218.347 278.047 217.928 277.93 217.391 277.93C217.136 277.93 216.912 277.961 216.719 278.023C216.527 278.086 216.368 278.172 216.243 278.281C216.118 278.385 216.024 278.51 215.962 278.656C215.899 278.797 215.868 278.948 215.868 279.109C215.868 279.297 215.896 279.458 215.954 279.594C216.016 279.729 216.12 279.846 216.266 279.945C216.412 280.044 216.607 280.13 216.852 280.203C217.102 280.271 217.412 280.336 217.782 280.398C218.146 280.456 218.503 280.529 218.852 280.617C219.206 280.706 219.519 280.836 219.79 281.008C220.066 281.18 220.287 281.406 220.454 281.688C220.62 281.964 220.704 282.318 220.704 282.75C220.704 283.156 220.626 283.516 220.469 283.828C220.313 284.135 220.092 284.393 219.805 284.602C219.524 284.81 219.186 284.966 218.79 285.07C218.399 285.174 217.967 285.227 217.493 285.227ZM225.47 285.227C224.907 285.227 224.386 285.117 223.907 284.898C223.428 284.68 223.014 284.38 222.665 284C222.316 283.62 222.043 283.174 221.845 282.664C221.647 282.148 221.548 281.599 221.548 281.016C221.548 280.432 221.644 279.885 221.837 279.375C222.035 278.865 222.306 278.419 222.649 278.039C222.998 277.659 223.412 277.359 223.892 277.141C224.376 276.917 224.905 276.805 225.478 276.805C225.853 276.805 226.199 276.859 226.517 276.969C226.839 277.078 227.129 277.221 227.384 277.398C227.644 277.576 227.871 277.779 228.063 278.008C228.256 278.237 228.41 278.471 228.524 278.711L228.493 277.938V274H229.837V285H228.548V283.305C228.423 283.576 228.259 283.828 228.056 284.062C227.853 284.297 227.621 284.5 227.36 284.672C227.1 284.844 226.808 284.979 226.485 285.078C226.168 285.177 225.829 285.227 225.47 285.227ZM225.688 283.977C226.079 283.977 226.446 283.901 226.79 283.75C227.134 283.599 227.431 283.391 227.681 283.125C227.936 282.859 228.136 282.547 228.282 282.188C228.433 281.823 228.509 281.432 228.509 281.016C228.509 280.599 228.436 280.211 228.29 279.852C228.144 279.492 227.944 279.18 227.688 278.914C227.433 278.648 227.134 278.44 226.79 278.289C226.446 278.138 226.079 278.062 225.688 278.062C225.298 278.062 224.931 278.138 224.587 278.289C224.248 278.435 223.951 278.641 223.696 278.906C223.446 279.172 223.248 279.484 223.103 279.844C222.957 280.203 222.884 280.594 222.884 281.016C222.884 281.432 222.954 281.823 223.095 282.188C223.241 282.547 223.438 282.859 223.688 283.125C223.938 283.391 224.233 283.599 224.571 283.75C224.915 283.901 225.287 283.977 225.688 283.977ZM235.283 285.227C234.736 285.227 234.228 285.117 233.759 284.898C233.29 284.68 232.884 284.38 232.54 284C232.197 283.62 231.926 283.174 231.728 282.664C231.53 282.148 231.431 281.599 231.431 281.016C231.431 280.432 231.53 279.885 231.728 279.375C231.926 278.865 232.197 278.419 232.54 278.039C232.884 277.659 233.29 277.359 233.759 277.141C234.228 276.922 234.733 276.812 235.275 276.812C235.634 276.812 235.975 276.857 236.298 276.945C236.621 277.034 236.918 277.164 237.189 277.336C237.465 277.503 237.707 277.706 237.915 277.945C238.129 278.18 238.303 278.445 238.439 278.742V277.031H239.728V285H238.439V283.305C238.303 283.602 238.129 283.87 237.915 284.109C237.707 284.344 237.465 284.544 237.189 284.711C236.918 284.878 236.621 285.005 236.298 285.094C235.975 285.182 235.637 285.227 235.283 285.227ZM235.579 283.969C235.97 283.969 236.335 283.893 236.673 283.742C237.017 283.591 237.316 283.383 237.572 283.117C237.827 282.852 238.027 282.539 238.173 282.18C238.319 281.82 238.392 281.432 238.392 281.016C238.392 280.604 238.319 280.219 238.173 279.859C238.027 279.5 237.827 279.188 237.572 278.922C237.316 278.656 237.017 278.448 236.673 278.297C236.335 278.146 235.973 278.07 235.587 278.07C235.197 278.07 234.829 278.143 234.486 278.289C234.147 278.435 233.85 278.638 233.595 278.898C233.34 279.159 233.137 279.469 232.986 279.828C232.84 280.188 232.767 280.583 232.767 281.016C232.767 281.458 232.84 281.862 232.986 282.227C233.137 282.586 233.34 282.896 233.595 283.156C233.855 283.411 234.155 283.612 234.493 283.758C234.837 283.898 235.199 283.969 235.579 283.969ZM248.252 284.07L248.275 283.336C248.16 283.596 248.004 283.841 247.806 284.07C247.608 284.299 247.379 284.5 247.119 284.672C246.858 284.844 246.569 284.979 246.252 285.078C245.934 285.177 245.595 285.227 245.236 285.227C244.673 285.227 244.153 285.117 243.673 284.898C243.194 284.68 242.78 284.38 242.431 284C242.082 283.62 241.809 283.174 241.611 282.664C241.413 282.148 241.314 281.599 241.314 281.016C241.314 280.432 241.41 279.885 241.603 279.375C241.801 278.865 242.072 278.419 242.416 278.039C242.765 277.659 243.179 277.359 243.658 277.141C244.142 276.917 244.671 276.805 245.244 276.805C245.619 276.805 245.965 276.859 246.283 276.969C246.606 277.078 246.897 277.224 247.158 277.406C247.418 277.583 247.645 277.789 247.838 278.023C248.035 278.253 248.194 278.49 248.314 278.734V277.031H249.603V287.719H248.252V284.07ZM245.455 283.977C245.845 283.977 246.213 283.901 246.556 283.75C246.9 283.599 247.197 283.391 247.447 283.125C247.702 282.859 247.903 282.547 248.048 282.188C248.199 281.823 248.275 281.432 248.275 281.016C248.275 280.599 248.202 280.211 248.056 279.852C247.91 279.492 247.71 279.18 247.455 278.914C247.199 278.648 246.9 278.44 246.556 278.289C246.213 278.138 245.845 278.062 245.455 278.062C245.064 278.062 244.697 278.138 244.353 278.289C244.015 278.435 243.718 278.641 243.463 278.906C243.213 279.172 243.015 279.484 242.869 279.844C242.723 280.203 242.65 280.594 242.65 281.016C242.65 281.432 242.72 281.823 242.861 282.188C243.007 282.547 243.205 282.859 243.455 283.125C243.705 283.391 243.999 283.599 244.338 283.75C244.681 283.901 245.054 283.977 245.455 283.977Z" fill="#7C7C7C"/>
<path d="M300.219 285.203C299.443 285.203 298.714 285.06 298.031 284.773C297.354 284.487 296.763 284.094 296.258 283.594C295.758 283.094 295.362 282.508 295.07 281.836C294.784 281.164 294.641 280.445 294.641 279.68C294.641 278.904 294.784 278.18 295.07 277.508C295.362 276.836 295.758 276.25 296.258 275.75C296.763 275.25 297.354 274.857 298.031 274.57C298.714 274.284 299.443 274.141 300.219 274.141C300.781 274.141 301.336 274.221 301.883 274.383C302.43 274.544 302.93 274.779 303.383 275.086C303.841 275.388 304.237 275.763 304.57 276.211C304.909 276.654 305.148 277.159 305.289 277.727H303.883C303.737 277.362 303.542 277.036 303.297 276.75C303.052 276.464 302.771 276.221 302.453 276.023C302.135 275.826 301.784 275.674 301.398 275.57C301.018 275.466 300.615 275.414 300.188 275.414C299.609 275.414 299.068 275.521 298.562 275.734C298.057 275.943 297.615 276.237 297.234 276.617C296.859 276.992 296.562 277.443 296.344 277.969C296.13 278.49 296.023 279.06 296.023 279.68C296.023 280.305 296.13 280.878 296.344 281.398C296.562 281.919 296.859 282.367 297.234 282.742C297.615 283.117 298.057 283.409 298.562 283.617C299.068 283.826 299.609 283.93 300.188 283.93C300.792 283.93 301.326 283.846 301.789 283.68C302.253 283.508 302.651 283.273 302.984 282.977C303.318 282.68 303.583 282.333 303.781 281.938C303.984 281.536 304.122 281.109 304.195 280.656H300.141V279.406H305.633C305.633 280.208 305.513 280.964 305.273 281.672C305.034 282.375 304.682 282.99 304.219 283.516C303.76 284.036 303.195 284.448 302.523 284.75C301.852 285.052 301.083 285.203 300.219 285.203ZM310.719 285.227C310.131 285.227 309.584 285.117 309.078 284.898C308.573 284.68 308.136 284.38 307.766 284C307.396 283.62 307.104 283.174 306.891 282.664C306.683 282.148 306.578 281.599 306.578 281.016C306.578 280.432 306.683 279.885 306.891 279.375C307.099 278.865 307.388 278.419 307.758 278.039C308.128 277.659 308.565 277.359 309.071 277.141C309.576 276.917 310.125 276.805 310.719 276.805C311.313 276.805 311.862 276.914 312.368 277.133C312.878 277.352 313.318 277.651 313.688 278.031C314.058 278.411 314.347 278.859 314.555 279.375C314.769 279.885 314.875 280.432 314.875 281.016C314.875 281.599 314.771 282.148 314.563 282.664C314.354 283.174 314.063 283.62 313.688 284C313.318 284.38 312.878 284.68 312.368 284.898C311.862 285.117 311.313 285.227 310.719 285.227ZM310.735 283.961C311.131 283.961 311.498 283.888 311.836 283.742C312.18 283.591 312.477 283.385 312.727 283.125C312.977 282.865 313.172 282.555 313.313 282.195C313.459 281.831 313.532 281.438 313.532 281.016C313.532 280.594 313.459 280.203 313.313 279.844C313.172 279.484 312.977 279.174 312.727 278.914C312.477 278.648 312.18 278.443 311.836 278.297C311.498 278.146 311.131 278.07 310.735 278.07C310.339 278.07 309.969 278.146 309.625 278.297C309.282 278.443 308.982 278.648 308.727 278.914C308.477 279.174 308.279 279.484 308.133 279.844C307.993 280.203 307.922 280.594 307.922 281.016C307.922 281.438 307.993 281.831 308.133 282.195C308.279 282.555 308.477 282.865 308.727 283.125C308.982 283.385 309.282 283.591 309.625 283.742C309.969 283.888 310.339 283.961 310.735 283.961ZM316.462 273.984H317.805V285H316.462V273.984ZM323.313 285.227C322.751 285.227 322.23 285.117 321.751 284.898C321.272 284.68 320.858 284.38 320.509 284C320.16 283.62 319.886 283.174 319.688 282.664C319.491 282.148 319.392 281.599 319.392 281.016C319.392 280.432 319.488 279.885 319.681 279.375C319.879 278.865 320.149 278.419 320.493 278.039C320.842 277.659 321.256 277.359 321.735 277.141C322.22 276.917 322.748 276.805 323.321 276.805C323.696 276.805 324.043 276.859 324.36 276.969C324.683 277.078 324.972 277.221 325.228 277.398C325.488 277.576 325.714 277.779 325.907 278.008C326.1 278.237 326.254 278.471 326.368 278.711L326.337 277.938V274H327.681V285H326.392V283.305C326.267 283.576 326.103 283.828 325.899 284.062C325.696 284.297 325.464 284.5 325.204 284.672C324.944 284.844 324.652 284.979 324.329 285.078C324.011 285.177 323.673 285.227 323.313 285.227ZM323.532 283.977C323.923 283.977 324.29 283.901 324.634 283.75C324.978 283.599 325.274 283.391 325.524 283.125C325.78 282.859 325.98 282.547 326.126 282.188C326.277 281.823 326.353 281.432 326.353 281.016C326.353 280.599 326.28 280.211 326.134 279.852C325.988 279.492 325.787 279.18 325.532 278.914C325.277 278.648 324.978 278.44 324.634 278.289C324.29 278.138 323.923 278.062 323.532 278.062C323.142 278.062 322.774 278.138 322.431 278.289C322.092 278.435 321.795 278.641 321.54 278.906C321.29 279.172 321.092 279.484 320.946 279.844C320.8 280.203 320.728 280.594 320.728 281.016C320.728 281.432 320.798 281.823 320.938 282.188C321.084 282.547 321.282 282.859 321.532 283.125C321.782 283.391 322.076 283.599 322.415 283.75C322.759 283.901 323.131 283.977 323.532 283.977Z" fill="#7C7C7C"/>
<path d="M387.758 285.227C387.039 285.227 386.417 285.13 385.891 284.938C385.365 284.745 384.93 284.492 384.586 284.18C384.247 283.867 383.995 283.513 383.828 283.117C383.667 282.721 383.586 282.323 383.586 281.922H384.969C384.969 282.203 385.031 282.471 385.156 282.727C385.281 282.982 385.464 283.208 385.703 283.406C385.943 283.599 386.234 283.753 386.578 283.867C386.922 283.982 387.312 284.039 387.75 284.039C388.661 284.039 389.357 283.875 389.836 283.547C390.32 283.219 390.562 282.724 390.562 282.062C390.562 281.75 390.492 281.484 390.352 281.266C390.211 281.047 390.016 280.865 389.766 280.719C389.521 280.568 389.229 280.448 388.891 280.359C388.552 280.266 388.185 280.188 387.789 280.125C387.492 280.073 387.19 280.013 386.883 279.945C386.576 279.878 386.276 279.792 385.984 279.688C385.693 279.578 385.417 279.451 385.156 279.305C384.901 279.154 384.677 278.974 384.484 278.766C384.292 278.557 384.138 278.318 384.023 278.047C383.914 277.771 383.859 277.453 383.859 277.094C383.859 276.698 383.93 276.323 384.07 275.969C384.216 275.609 384.443 275.294 384.75 275.023C385.057 274.753 385.453 274.539 385.938 274.383C386.427 274.221 387.018 274.141 387.711 274.141C388.336 274.141 388.885 274.216 389.359 274.367C389.839 274.513 390.24 274.721 390.562 274.992C390.885 275.258 391.128 275.576 391.289 275.945C391.456 276.315 391.539 276.721 391.539 277.164H390.148C390.148 276.898 390.094 276.656 389.984 276.438C389.88 276.219 389.724 276.029 389.516 275.867C389.312 275.706 389.057 275.581 388.75 275.492C388.448 275.404 388.096 275.359 387.695 275.359C387.216 275.359 386.818 275.409 386.5 275.508C386.188 275.607 385.938 275.74 385.75 275.906C385.562 276.068 385.43 276.253 385.352 276.461C385.279 276.669 385.242 276.883 385.242 277.102C385.242 277.383 385.307 277.625 385.438 277.828C385.568 278.031 385.76 278.206 386.016 278.352C386.271 278.497 386.583 278.62 386.953 278.719C387.323 278.812 387.745 278.891 388.219 278.953C388.661 279.021 389.104 279.12 389.547 279.25C389.995 279.38 390.396 279.562 390.75 279.797C391.109 280.031 391.401 280.331 391.625 280.695C391.849 281.06 391.961 281.516 391.961 282.062C391.961 282.562 391.865 283.008 391.672 283.398C391.479 283.789 391.201 284.12 390.836 284.391C390.477 284.661 390.036 284.867 389.516 285.008C388.995 285.154 388.409 285.227 387.758 285.227ZM394.149 275.477C393.868 275.477 393.646 275.393 393.485 275.227C393.323 275.06 393.243 274.857 393.243 274.617C393.243 274.383 393.323 274.182 393.485 274.016C393.651 273.849 393.875 273.766 394.157 273.766C394.443 273.766 394.667 273.849 394.828 274.016C394.995 274.182 395.078 274.383 395.078 274.617C395.078 274.857 394.995 275.06 394.828 275.227C394.667 275.393 394.44 275.477 394.149 275.477ZM393.485 277.031H394.828V285H393.485V277.031ZM397.087 273.984H398.43V285H397.087V273.984ZM399.501 277.031H400.931L403.181 282.656L403.376 283.367L403.563 282.656L405.813 277.031H407.251L404.009 285H402.735L399.501 277.031ZM415.376 280.82C415.376 280.893 415.374 280.966 415.368 281.039C415.368 281.112 415.363 281.221 415.353 281.367H408.743C408.785 281.768 408.884 282.13 409.04 282.453C409.202 282.771 409.402 283.044 409.642 283.273C409.887 283.497 410.16 283.669 410.462 283.789C410.764 283.909 411.079 283.969 411.407 283.969C411.944 283.969 412.402 283.854 412.782 283.625C413.163 283.396 413.441 283.055 413.618 282.602H415.126C415.012 282.966 414.84 283.307 414.611 283.625C414.387 283.943 414.113 284.221 413.79 284.461C413.473 284.695 413.113 284.88 412.712 285.016C412.316 285.151 411.892 285.219 411.439 285.219C410.861 285.219 410.324 285.109 409.829 284.891C409.34 284.672 408.913 284.372 408.548 283.992C408.184 283.612 407.897 283.167 407.689 282.656C407.486 282.146 407.384 281.599 407.384 281.016C407.384 280.432 407.486 279.885 407.689 279.375C407.897 278.865 408.184 278.419 408.548 278.039C408.913 277.659 409.34 277.359 409.829 277.141C410.324 276.917 410.861 276.805 411.439 276.805C412.012 276.805 412.538 276.914 413.017 277.133C413.501 277.352 413.918 277.646 414.267 278.016C414.616 278.38 414.887 278.805 415.079 279.289C415.277 279.773 415.376 280.284 415.376 280.82ZM414.001 280.18C413.98 279.898 413.897 279.63 413.751 279.375C413.611 279.12 413.423 278.896 413.189 278.703C412.954 278.51 412.684 278.357 412.376 278.242C412.074 278.128 411.754 278.07 411.415 278.07C411.118 278.07 410.829 278.117 410.548 278.211C410.267 278.299 410.009 278.432 409.775 278.609C409.546 278.786 409.345 279.008 409.173 279.273C409.006 279.534 408.884 279.836 408.806 280.18H414.001ZM416.845 277.031H418.142V278.812C418.34 278.26 418.647 277.826 419.064 277.508C419.481 277.19 419.981 277.031 420.564 277.031H421.338V278.211H420.634C420.285 278.211 419.963 278.279 419.666 278.414C419.369 278.549 419.111 278.747 418.892 279.008C418.673 279.268 418.502 279.589 418.377 279.969C418.257 280.344 418.197 280.771 418.197 281.25V285H416.845V277.031Z" fill="#7C7C7C"/>
<path d="M473.445 274.375H477.984C478.427 274.375 478.833 274.443 479.203 274.578C479.573 274.714 479.891 274.904 480.156 275.148C480.427 275.393 480.638 275.688 480.789 276.031C480.94 276.375 481.016 276.755 481.016 277.172C481.016 277.417 480.979 277.654 480.906 277.883C480.833 278.112 480.734 278.323 480.609 278.516C480.484 278.708 480.336 278.88 480.164 279.031C479.992 279.177 479.807 279.294 479.609 279.383C479.891 279.466 480.154 279.591 480.398 279.758C480.643 279.924 480.857 280.122 481.039 280.352C481.227 280.581 481.372 280.836 481.477 281.117C481.581 281.393 481.633 281.688 481.633 282C481.633 282.479 481.544 282.906 481.367 283.281C481.19 283.651 480.953 283.964 480.656 284.219C480.359 284.474 480.018 284.669 479.633 284.805C479.247 284.935 478.846 285 478.43 285H473.445V274.375ZM477.922 278.984C478.156 278.984 478.378 278.94 478.586 278.852C478.794 278.763 478.974 278.643 479.125 278.492C479.276 278.336 479.396 278.154 479.484 277.945C479.573 277.737 479.617 277.513 479.617 277.273C479.617 277.039 479.573 276.818 479.484 276.609C479.396 276.401 479.276 276.221 479.125 276.07C478.974 275.919 478.794 275.799 478.586 275.711C478.383 275.622 478.164 275.578 477.93 275.578H474.844V278.984H477.922ZM478.32 283.781C478.586 283.781 478.833 283.734 479.062 283.641C479.292 283.542 479.492 283.409 479.664 283.242C479.836 283.076 479.969 282.878 480.062 282.648C480.161 282.419 480.211 282.169 480.211 281.898C480.211 281.643 480.161 281.404 480.062 281.18C479.969 280.956 479.836 280.76 479.664 280.594C479.497 280.427 479.299 280.297 479.07 280.203C478.846 280.104 478.602 280.055 478.336 280.055H474.844V283.781H478.32ZM486.703 285.227C486.115 285.227 485.568 285.117 485.063 284.898C484.558 284.68 484.12 284.38 483.75 284C483.381 283.62 483.089 283.174 482.875 282.664C482.667 282.148 482.563 281.599 482.563 281.016C482.563 280.432 482.667 279.885 482.875 279.375C483.084 278.865 483.373 278.419 483.743 278.039C484.112 277.659 484.55 277.359 485.055 277.141C485.56 276.917 486.11 276.805 486.703 276.805C487.297 276.805 487.847 276.914 488.352 277.133C488.862 277.352 489.302 277.651 489.672 278.031C490.042 278.411 490.331 278.859 490.539 279.375C490.753 279.885 490.86 280.432 490.86 281.016C490.86 281.599 490.756 282.148 490.547 282.664C490.339 283.174 490.047 283.62 489.672 284C489.302 284.38 488.862 284.68 488.352 284.898C487.847 285.117 487.297 285.227 486.703 285.227ZM486.719 283.961C487.115 283.961 487.482 283.888 487.821 283.742C488.164 283.591 488.461 283.385 488.711 283.125C488.961 282.865 489.157 282.555 489.297 282.195C489.443 281.831 489.516 281.438 489.516 281.016C489.516 280.594 489.443 280.203 489.297 279.844C489.157 279.484 488.961 279.174 488.711 278.914C488.461 278.648 488.164 278.443 487.821 278.297C487.482 278.146 487.115 278.07 486.719 278.07C486.323 278.07 485.953 278.146 485.61 278.297C485.266 278.443 484.966 278.648 484.711 278.914C484.461 279.174 484.263 279.484 484.118 279.844C483.977 280.203 483.907 280.594 483.907 281.016C483.907 281.438 483.977 281.831 484.118 282.195C484.263 282.555 484.461 282.865 484.711 283.125C484.966 283.385 485.266 283.591 485.61 283.742C485.953 283.888 486.323 283.961 486.719 283.961ZM492.446 277.031H493.735V278.57C493.85 278.315 494.003 278.081 494.196 277.867C494.389 277.648 494.613 277.461 494.868 277.305C495.123 277.148 495.402 277.026 495.704 276.938C496.011 276.849 496.334 276.805 496.673 276.805C497.735 276.805 498.537 277.13 499.079 277.781C499.626 278.432 499.899 279.398 499.899 280.68V285H498.555V280.703C498.555 280.245 498.503 279.849 498.399 279.516C498.3 279.182 498.154 278.909 497.962 278.695C497.769 278.482 497.534 278.323 497.258 278.219C496.982 278.115 496.673 278.062 496.329 278.062C495.995 278.062 495.675 278.128 495.368 278.258C495.066 278.383 494.798 278.565 494.563 278.805C494.329 279.039 494.141 279.326 494.001 279.664C493.86 280.003 493.79 280.385 493.79 280.812V285H492.446V277.031ZM505.313 285.227C504.751 285.227 504.23 285.117 503.751 284.898C503.272 284.68 502.858 284.38 502.509 284C502.16 283.62 501.886 283.174 501.688 282.664C501.491 282.148 501.392 281.599 501.392 281.016C501.392 280.432 501.488 279.885 501.681 279.375C501.879 278.865 502.149 278.419 502.493 278.039C502.842 277.659 503.256 277.359 503.735 277.141C504.22 276.917 504.748 276.805 505.321 276.805C505.696 276.805 506.043 276.859 506.36 276.969C506.683 277.078 506.972 277.221 507.228 277.398C507.488 277.576 507.714 277.779 507.907 278.008C508.1 278.237 508.254 278.471 508.368 278.711L508.337 277.938V274H509.681V285H508.392V283.305C508.267 283.576 508.103 283.828 507.899 284.062C507.696 284.297 507.464 284.5 507.204 284.672C506.944 284.844 506.652 284.979 506.329 285.078C506.011 285.177 505.673 285.227 505.313 285.227ZM505.532 283.977C505.923 283.977 506.29 283.901 506.634 283.75C506.978 283.599 507.274 283.391 507.524 283.125C507.78 282.859 507.98 282.547 508.126 282.188C508.277 281.823 508.353 281.432 508.353 281.016C508.353 280.599 508.28 280.211 508.134 279.852C507.988 279.492 507.787 279.18 507.532 278.914C507.277 278.648 506.978 278.44 506.634 278.289C506.29 278.138 505.923 278.062 505.532 278.062C505.142 278.062 504.774 278.138 504.431 278.289C504.092 278.435 503.795 278.641 503.54 278.906C503.29 279.172 503.092 279.484 502.946 279.844C502.8 280.203 502.728 280.594 502.728 281.016C502.728 281.432 502.798 281.823 502.938 282.188C503.084 282.547 503.282 282.859 503.532 283.125C503.782 283.391 504.076 283.599 504.415 283.75C504.759 283.901 505.131 283.977 505.532 283.977ZM514.603 285.227C514.046 285.227 513.559 285.151 513.142 285C512.725 284.849 512.379 284.648 512.103 284.398C511.827 284.148 511.618 283.865 511.478 283.547C511.342 283.224 511.275 282.893 511.275 282.555L512.572 282.562C512.577 282.781 512.624 282.987 512.712 283.18C512.806 283.367 512.939 283.531 513.111 283.672C513.283 283.812 513.493 283.924 513.743 284.008C513.999 284.091 514.29 284.133 514.618 284.133C515.223 284.133 515.678 284.016 515.986 283.781C516.293 283.547 516.447 283.227 516.447 282.82C516.447 282.596 516.4 282.411 516.306 282.266C516.217 282.12 516.085 281.997 515.908 281.898C515.736 281.799 515.525 281.721 515.275 281.664C515.03 281.602 514.751 281.544 514.439 281.492C514.069 281.435 513.715 281.357 513.376 281.258C513.038 281.159 512.741 281.021 512.486 280.844C512.23 280.661 512.027 280.432 511.876 280.156C511.725 279.88 511.65 279.542 511.65 279.141C511.65 278.812 511.71 278.508 511.829 278.227C511.949 277.94 512.126 277.693 512.361 277.484C512.6 277.271 512.897 277.104 513.251 276.984C513.611 276.865 514.027 276.805 514.501 276.805C514.965 276.805 515.384 276.865 515.759 276.984C516.134 277.104 516.454 277.271 516.72 277.484C516.991 277.693 517.199 277.943 517.345 278.234C517.491 278.526 517.564 278.846 517.564 279.195H516.243C516.223 278.815 516.061 278.51 515.759 278.281C515.457 278.047 515.038 277.93 514.501 277.93C514.246 277.93 514.022 277.961 513.829 278.023C513.637 278.086 513.478 278.172 513.353 278.281C513.228 278.385 513.134 278.51 513.072 278.656C513.009 278.797 512.978 278.948 512.978 279.109C512.978 279.297 513.006 279.458 513.064 279.594C513.126 279.729 513.23 279.846 513.376 279.945C513.522 280.044 513.717 280.13 513.962 280.203C514.212 280.271 514.522 280.336 514.892 280.398C515.256 280.456 515.613 280.529 515.962 280.617C516.316 280.706 516.629 280.836 516.9 281.008C517.176 281.18 517.397 281.406 517.564 281.688C517.73 281.964 517.814 282.318 517.814 282.75C517.814 283.156 517.736 283.516 517.579 283.828C517.423 284.135 517.202 284.393 516.915 284.602C516.634 284.81 516.296 284.966 515.9 285.07C515.509 285.174 515.077 285.227 514.603 285.227Z" fill="#7C7C7C"/>
</svg>
