<svg width="14" height="10" viewBox="0 0 14 10" fill="none" xmlns="http://www.w3.org/2000/svg">
<path d="M8.47 1.53003C8.33752 1.38785 8.2654 1.19981 8.26882 1.00551C8.27225 0.811206 8.35097 0.625821 8.48838 0.488408C8.62579 0.350995 8.81118 0.272283 9.00548 0.268855C9.19978 0.265426 9.38783 0.337549 9.53 0.470029L13.53 4.47003C13.6705 4.61066 13.7493 4.80128 13.7493 5.00003C13.7493 5.19878 13.6705 5.3894 13.53 5.53003L9.53 9.53003C9.46134 9.60372 9.37854 9.66282 9.28654 9.70381C9.19454 9.7448 9.09523 9.76684 8.99452 9.76862C8.89382 9.7704 8.79379 9.75187 8.7004 9.71415C8.60701 9.67643 8.52218 9.62029 8.45096 9.54907C8.37974 9.47785 8.3236 9.39301 8.28588 9.29963C8.24816 9.20624 8.22963 9.10621 8.23141 9.00551C8.23318 8.9048 8.25523 8.80549 8.29622 8.71349C8.33721 8.62149 8.39631 8.53869 8.47 8.47003L11.19 5.75003H1.5C1.30109 5.75003 1.11032 5.67101 0.96967 5.53036C0.829018 5.38971 0.75 5.19894 0.75 5.00003C0.75 4.80112 0.829018 4.61035 0.96967 4.4697C1.11032 4.32905 1.30109 4.25003 1.5 4.25003H11.19L8.47 1.53003Z" fill="#0B7A38"/>
</svg>
