<svg width="239" height="280" viewBox="0 0 239 280" fill="none" xmlns="http://www.w3.org/2000/svg">
<path d="M101 93.5C124.472 93.5 143.5 74.4721 143.5 51C143.5 27.5279 124.472 8.5 101 8.5C77.5279 8.5 58.5 27.5279 58.5 51C58.5 74.4721 77.5279 93.5 101 93.5Z" stroke="#FEB73F" stroke-width="8.5" stroke-linecap="round" stroke-linejoin="round"/>
<path d="M92.5 34V51H107.375C109.629 51 111.791 50.1045 113.385 48.5104C114.979 46.9163 115.875 44.7543 115.875 42.5C115.875 40.2457 114.979 38.0837 113.385 36.4896C111.791 34.8955 109.629 34 107.375 34H103.125M92.5 34H84M92.5 34V25.5M92.5 34H103.125M103.125 34V25.5" stroke="#FEB73F" stroke-width="8.5" stroke-linecap="round" stroke-linejoin="round"/>
<path d="M92.5 68V51H111.625C113.879 51 116.041 51.8955 117.635 53.4896C119.229 55.0837 120.125 57.2457 120.125 59.5C120.125 61.7543 119.229 63.9163 117.635 65.5104C116.041 67.1045 113.879 68 111.625 68H103.125M92.5 68V76.5M92.5 68H84H103.125M92.5 68H103.125M103.125 68V76.5" stroke="#FEB73F" stroke-width="8.5" stroke-linecap="round" stroke-linejoin="round"/>
<rect x="41.0781" y="63.4062" width="119.5" height="194.188" rx="18.6719" fill="#0B7A38"/>
<path d="M67.2188 63.4062H134.438L129.033 74.2151C127.768 76.7454 125.182 78.3438 122.353 78.3438H79.3034C76.4745 78.3438 73.8883 76.7454 72.6232 74.2151L67.2188 63.4062Z" fill="#F8F8FA"/>
<rect x="82.1562" y="238.922" width="37.3438" height="7.46875" rx="3.73438" fill="#F8F8FA"/>
<rect x="70.9531" y="119.422" width="126.969" height="82.1562" rx="11.2031" fill="#EBEBEB"/>
<circle cx="162.445" cy="139.961" r="9.33594" fill="white"/>
<circle cx="177.383" cy="139.961" r="9.33594" fill="white"/>
<rect x="82.1562" y="160.5" width="82.1562" height="11.2031" rx="5.60156" fill="#0B7A38"/>
<rect x="82.1562" y="179.172" width="44.8125" height="11.2031" rx="5.60156" fill="#0B7A38"/>
</svg>
