<svg width="14" height="14" viewBox="0 0 14 14" fill="none" xmlns="http://www.w3.org/2000/svg">
<g clip-path="url(#clip0_1111_4572)">
<path d="M13.7906 8.69279C12.8553 12.4448 9.05394 14.7256 5.3073 13.7903C1.5552 12.855 -0.725601 9.05378 0.209719 5.3072C1.14498 1.5552 4.94084 -0.725601 8.69295 0.209719C12.4396 1.13952 14.7259 4.94073 13.7906 8.69279Z" fill="url(#paint0_linear_1111_4572)"/>
<path d="M10.3332 6.12772C10.4699 5.19804 9.76445 4.69491 8.79102 4.36132L9.1082 3.09803L8.34258 2.90663L8.03633 4.1371C7.83398 4.08788 7.62617 4.03866 7.41836 3.99491L7.72461 2.75897L6.95898 2.56757L6.64727 3.82538C6.47773 3.7871 6.31367 3.74882 6.15508 3.71053V3.70507L5.09414 3.44257L4.8918 4.26288C4.8918 4.26288 5.46055 4.39413 5.44961 4.3996C5.76133 4.47616 5.81602 4.68397 5.80508 4.84803L5.44414 6.28632C5.46602 6.29178 5.49336 6.29725 5.52617 6.31366C5.49883 6.30819 5.47148 6.30272 5.44414 6.29179L4.94102 8.30429C4.90273 8.39725 4.8043 8.53944 4.59102 8.48475C4.59648 8.49569 4.0332 8.34803 4.0332 8.34803L3.65039 9.2285L4.65117 9.48007C4.83711 9.52928 5.01758 9.57303 5.19805 9.62225L4.88086 10.8965L5.64648 11.0879L5.96367 9.8246C6.17148 9.87928 6.3793 9.93397 6.57617 9.98319L6.26445 11.241L7.03008 11.4324L7.34727 10.1582C8.65977 10.4043 9.64414 10.3058 10.0543 9.11913C10.3879 8.16757 10.0379 7.61522 9.34883 7.25428C9.85742 7.13944 10.2348 6.80585 10.3332 6.12772ZM8.57773 8.58866C8.34258 9.54022 6.73477 9.02616 6.21523 8.89491L6.63633 7.20507C7.15586 7.33632 8.8293 7.59335 8.57773 8.58866ZM8.81836 6.11132C8.59961 6.98085 7.26523 6.53788 6.8332 6.4285L7.21602 4.89725C7.64805 5.00663 9.04258 5.20897 8.81836 6.11132Z" fill="white"/>
</g>
<defs>
<linearGradient id="paint0_linear_1111_4572" x1="699.622" y1="-0.336" x2="699.622" y2="1399.86" gradientUnits="userSpaceOnUse">
<stop stop-color="#F9AA4B"/>
<stop offset="1" stop-color="#F7931A"/>
</linearGradient>
<clipPath id="clip0_1111_4572">
<rect width="14" height="14" fill="white"/>
</clipPath>
</defs>
</svg>
