<svg width="108" height="68" viewBox="0 0 108 68" fill="none" xmlns="http://www.w3.org/2000/svg">
<rect y="37.6781" width="102.718" height="32" rx="3" transform="rotate(-21.519 0 37.6781)" fill="#FFD700"/>
<path d="M26.5223 48.719L23.1121 40.0701L26.807 38.6133C28.2442 38.0466 29.638 38.5625 30.1721 39.917C30.4856 40.712 30.269 41.635 29.737 42.1681C30.7581 42.0741 31.8255 42.6379 32.2242 43.6491C32.841 45.2135 31.9279 46.5876 30.5797 47.1192L26.5223 48.719ZM25.7299 43.3733L28.2355 42.3854C29.005 42.082 29.3748 41.2308 29.0664 40.4485C28.763 39.6791 27.9118 39.3093 27.1486 39.6102L24.6366 40.6006L25.7299 43.3733ZM27.2695 47.278L30.0995 46.1622C30.9643 45.8212 31.3802 44.9004 31.0341 44.0228C30.7082 43.196 29.7746 42.7852 28.9161 43.1237L26.0734 44.2446L27.2695 47.278ZM37.9732 44.4097C35.9572 45.2046 33.8462 44.4351 33.0011 42.2919L30.9099 36.9882L32.0291 36.5468L34.0878 41.7679C34.6419 43.1734 35.9848 43.9886 37.5619 43.3668C39.1009 42.7599 39.5653 41.2542 39.0087 39.8424L36.945 34.6085L38.0706 34.1647L40.1619 39.4685C40.9843 41.5544 40.0654 43.5847 37.9732 44.4097ZM46.0494 41.2327C43.7027 42.1579 42.1093 41.1917 41.5927 39.8816L42.7184 39.4378C43.0769 40.3472 44.2373 40.8302 45.6619 40.2685C47.1372 39.6868 47.7381 38.8253 47.3169 37.7569C46.9157 36.7394 45.8061 36.758 44.4374 37.0699C42.8985 37.3975 40.9553 37.6126 40.2657 35.8637C39.7567 34.5727 40.2018 33.1113 42.4531 32.2237C44.4881 31.4213 45.9704 32.0125 46.5396 33.4561L45.4076 33.9024C45.0691 33.0439 44.1288 32.7092 42.8315 33.2207C41.2671 33.8376 41.113 34.714 41.3938 35.4262C41.7524 36.3356 42.7766 36.38 44.411 35.9781C45.9385 35.6403 47.7556 35.5338 48.4552 37.308C49.0946 38.9297 48.1734 40.3952 46.0494 41.2327ZM50.6353 39.2113L47.2251 30.5625L48.3507 30.1187L51.7609 38.7675L50.6353 39.2113ZM56.6025 26.8651L57.7218 26.4237L61.132 35.0726L60.178 35.4487L52.1897 30.7874L54.8552 37.5475L53.7296 37.9913L50.3194 29.3425L51.2669 28.9688L59.2691 33.6467L59.2755 33.6442L56.6025 26.8651ZM63.0942 34.2989L59.684 25.65L65.433 23.3832L65.8367 24.4071L61.2134 26.2301L62.2941 28.971L66.3133 27.3862L66.6944 28.3529L62.6752 29.9376L63.8186 32.8375L68.4992 30.992L68.9004 32.0095L63.0942 34.2989ZM72.9132 30.6404C70.5665 31.5657 68.9731 30.5994 68.4566 29.2894L69.5822 28.8455C69.9407 29.7549 71.1012 30.238 72.5257 29.6763C74.0011 29.0945 74.6019 28.233 74.1807 27.1646C73.7795 26.1471 72.6699 26.1658 71.3012 26.4777C69.7623 26.8052 67.8191 27.0203 67.1295 25.2715C66.6205 23.9805 67.0656 22.5191 69.3169 21.6314C71.3519 20.829 72.8342 21.4202 73.4034 22.8638L72.2714 23.3102C71.9329 22.4516 70.9927 22.117 69.6953 22.6285C68.1309 23.2453 67.9768 24.1217 68.2576 24.834C68.6162 25.7434 69.6404 25.7878 71.2749 25.3858C72.8024 25.0481 74.6194 24.9415 75.319 26.7158C75.9584 28.3375 75.0372 29.8029 72.9132 30.6404ZM80.2682 27.7403C77.9216 28.6656 76.3282 27.6993 75.8116 26.3893L76.9373 25.9455C77.2958 26.8549 78.4562 27.3379 79.8807 26.7762C81.3561 26.1945 81.957 25.333 81.5358 24.2646C81.1346 23.2471 80.025 23.2657 78.6563 23.5776C77.1174 23.9051 75.1741 24.1202 74.4846 22.3714C73.9756 21.0804 74.4207 19.619 76.672 18.7313C78.707 17.9289 80.1893 18.5202 80.7585 19.9638L79.6265 20.4101C79.288 19.5516 78.3477 19.2169 77.0504 19.7284C75.486 20.3453 75.3319 21.2217 75.6127 21.9339C75.9713 22.8433 76.9955 22.8877 78.6299 22.4858C80.1574 22.148 81.9745 22.0414 82.6741 23.8157C83.3135 25.4374 82.3923 26.9028 80.2682 27.7403Z" fill="black"/>
</svg>
