<svg width="585" height="9" viewBox="0 0 585 9" fill="none" xmlns="http://www.w3.org/2000/svg">
<path d="M3.61328 7.13184C1.72852 7.13184 0.493164 5.73535 0.493164 4.03125C0.493164 2.29785 1.91406 0.212891 4.44824 0.212891C6.35742 0.212891 7.21191 1.46777 7.30469 2.61523H6.4502C6.30859 1.58496 5.4541 1.00879 4.36523 1.00879C2.52441 1.00879 1.3623 2.49316 1.3623 3.97266C1.3623 5.24707 2.28516 6.33105 3.65234 6.33105C4.65332 6.33105 5.61523 5.7793 6.04004 4.72949H6.93359C6.37695 6.375 4.99512 7.13184 3.61328 7.13184ZM7.48555 7L8.36445 2.01953H9.18477L8.98457 3.13281C9.35566 2.44434 9.98066 2.01953 10.6984 2.01953H11.3771L11.2453 2.75684H10.6105C9.73652 2.75684 8.96504 3.45508 8.75508 4.65625L8.34004 7H7.48555ZM10.4008 8.69922L10.5229 7.99121H11.3529C11.9193 7.99121 12.2074 7.67383 12.5883 6.99512L12.6615 6.85352L11.5434 2.01953H12.3881L13.1986 5.54004L13.2475 5.99902L13.4379 5.54492L15.4301 2.02441L16.3871 2.01953L13.5648 6.86328C12.7543 8.26465 12.3002 8.69922 11.2211 8.69922H10.4008ZM15.8551 8.69922L17.0367 2.01953H17.8424L17.652 3.08398C18.1305 2.34668 18.9215 1.88281 19.7564 1.88281C21.0211 1.88281 21.8414 2.93262 21.8414 4.2168C21.8414 5.71582 20.6109 7.1416 18.9801 7.1416C18.0768 7.1416 17.398 6.57031 17.1783 5.85254L17.0807 6.52148L16.6998 8.69922H15.8551ZM18.9654 6.36035C20.1275 6.36035 20.9918 5.36426 20.9918 4.30469C20.9918 3.40137 20.4205 2.66406 19.4684 2.66406C18.5602 2.66406 17.6129 3.4502 17.4518 4.48535C17.3297 5.2666 17.7789 6.36035 18.9654 6.36035ZM24.1512 7C23.3943 7 22.6229 6.70703 22.8963 5.1543L23.3211 2.75684H22.2127L22.3445 2.01953H23.4529L23.7117 0.540039L24.5711 0.535156L24.3074 2.01953H25.9529L25.8211 2.75684H24.1756L23.7459 5.19336C23.5799 6.12109 23.9998 6.28711 24.4441 6.28711H25.3133L25.1912 7H24.1512ZM28.0625 7.1416C26.6318 7.1416 25.7285 6.09668 25.7285 4.80273C25.7285 3.44043 26.8027 1.87793 28.6582 1.87793C30.0986 1.87793 31.002 2.92773 31.002 4.2168C31.002 5.70117 29.791 7.1416 28.0625 7.1416ZM28.1504 6.35059C29.2686 6.35059 30.1523 5.36426 30.1523 4.28516C30.1523 3.41113 29.6152 2.66895 28.5898 2.66895C27.457 2.66895 26.5781 3.60156 26.5781 4.73438C26.5781 5.61328 27.1104 6.35059 28.1504 6.35059ZM33.8195 7.1416C32.3937 7.1416 31.4807 6.09668 31.4807 4.8125C31.4807 3.45996 32.55 1.87793 34.4152 1.87793C35.7238 1.87793 36.4709 2.65918 36.593 3.65039H35.7531C35.6018 3.00586 35.0744 2.66895 34.342 2.66895C33.1945 2.66895 32.3352 3.59668 32.3352 4.73438C32.3352 5.6084 32.8576 6.35547 33.9221 6.35547C34.4982 6.35547 35.1232 6.02344 35.4406 5.33008H36.3098C35.924 6.49219 34.8449 7.1416 33.8195 7.1416ZM39.0687 7.1416C37.726 7.1416 36.891 6.40918 37.1937 4.68066L37.6625 2.01953H38.517L38.0482 4.65625C37.8529 5.77441 38.2338 6.35059 39.1811 6.35059C40.0697 6.35059 40.7094 5.7793 40.9096 4.65625L41.3783 2.01953H42.2279L41.7592 4.68066C41.4564 6.40918 40.348 7.1416 39.0687 7.1416ZM42.5992 7L43.4781 2.01953H44.2984L44.0982 3.13281C44.4693 2.44434 45.0943 2.01953 45.8121 2.01953H46.4908L46.359 2.75684H45.7242C44.8502 2.75684 44.0787 3.45508 43.8688 4.65625L43.4537 7H42.5992ZM46.3543 7L47.2332 2.01953H48.0535L47.8533 3.13281C48.2244 2.44434 48.8494 2.01953 49.5672 2.01953H50.2459L50.1141 2.75684H49.4793C48.6053 2.75684 47.8338 3.45508 47.6238 4.65625L47.2088 7H46.3543ZM54.8311 4.74902H50.7002V4.77344C50.7002 5.68652 51.2275 6.36035 52.2627 6.36035C52.8682 6.36035 53.4443 6.04297 53.6934 5.50098H54.5869C54.2305 6.47266 53.2246 7.13672 52.1895 7.13672C50.7588 7.13672 49.8604 6.08691 49.8604 4.80273C49.8604 3.45508 50.9199 1.88281 52.7607 1.88281C54.2305 1.88281 54.9238 2.9375 54.9238 3.99707C54.9238 4.20703 54.8896 4.50488 54.8311 4.74902ZM52.6973 2.65918C51.7939 2.65918 51.0615 3.24512 50.8027 4.08984H54.0889C54.1475 3.69922 53.8691 2.65918 52.6973 2.65918ZM55.3488 7L56.2277 2.01953H57.048L56.8723 3.01074C57.2727 2.3418 58.0637 1.87793 58.8596 1.87793C60.0656 1.87793 60.7932 2.67871 60.4709 4.51465L60.0363 7H59.1818L59.6115 4.5293C59.8557 3.11816 59.2844 2.66406 58.552 2.66406C57.7561 2.66406 56.8527 3.31836 56.6672 4.38281L56.2033 7H55.3488ZM63.684 7.1416C62.2582 7.1416 61.3451 6.09668 61.3451 4.8125C61.3451 3.45996 62.4145 1.87793 64.2797 1.87793C65.5883 1.87793 66.3354 2.65918 66.4574 3.65039H65.6176C65.4662 3.00586 64.9389 2.66895 64.2064 2.66895C63.059 2.66895 62.1996 3.59668 62.1996 4.73438C62.1996 5.6084 62.7221 6.35547 63.7865 6.35547C64.3627 6.35547 64.9877 6.02344 65.3051 5.33008H66.1742C65.7885 6.49219 64.7094 7.1416 63.684 7.1416ZM65.7789 8.69922L65.901 7.99121H66.7311C67.2975 7.99121 67.5855 7.67383 67.9664 6.99512L68.0396 6.85352L66.9215 2.01953H67.7662L68.5768 5.54004L68.6256 5.99902L68.816 5.54492L70.8082 2.02441L71.7652 2.01953L68.943 6.86328C68.1324 8.26465 67.6783 8.69922 66.5992 8.69922H65.7789Z" fill="black"/>
<path d="M85.998 4V3.5H87.994V4H87.0064V4.5H85.0024V4H85.998ZM89.99 4V3.5H91.986V4H91.0144V4.5H89.0104V4H89.99ZM93.982 4V3.5H95.978V4H95.0224V4.5H93.0184V4H93.982ZM97.974 4V3.5H99.97V4H99.0304V4.5H97.0264V4H97.974ZM101.966 4V3.5H103.962V4H103.038V4.5H101.034V4H101.966ZM105.958 4V3.5H107.954V4H107.046V4.5H105.042V4H105.958ZM109.95 4V3.5H111.946V4H111.054V4.5H109.05V4H109.95ZM113.942 4V3.5H115.938V4H115.062V4.5H113.058V4H113.942ZM117.934 4V3.5H119.93V4H119.07V4.5H117.066V4H117.934ZM121.926 4V3.5H123.922V4H123.078V4.5H121.074V4H121.926ZM125.918 4V3.5H127.914V4H127.086V4.5H125.082V4H125.918ZM129.91 4V3.5H131.906V4H131.094V4.5H129.09V4H129.91ZM133.902 4V3.5H135.898V4H135.102V4.5H133.098V4H133.902ZM137.894 4V3.5H139.89V4H139.11V4.5H137.106V4H137.894ZM141.886 4V3.5H143.882V4H143.118V4.5H141.114V4H141.886ZM145.878 4V3.5H147.874V4H147.126V4.5H145.122V4H145.878ZM149.87 4V3.5H151.866V4H151.134V4.5H149.13V4H149.87ZM153.862 4V3.5H155.858V4H155.142V4.5H153.138V4H153.862ZM157.854 4V3.5H159.85V4H159.15V4.5H157.146V4H157.854ZM161.846 4V3.5H163.842V4H163.158V4.5H161.154V4H161.846ZM165.838 4V3.5H167.834V4H167.166V4.5H165.162V4H165.838ZM169.83 4V3.5H171.826V4H171.174V4.5H169.17V4H169.83ZM173.822 4V3.5H175.818V4H175.182V4.5H173.178V4H173.822ZM177.814 4V3.5H179.81V4H179.19V4.5H177.186V4H177.814ZM181.806 4V3.5H183.802V4H183.198V4.5H181.194V4H181.806ZM185.798 4V3.5H187.794V4H187.206V4.5H185.202V4H185.798ZM189.79 4V3.5H191.786V4H191.214V4.5H189.21V4H189.79ZM193.782 4V3.5H195.778V4H195.222V4.5H193.218V4H193.782ZM197.774 4V3.5H199.77V4H199.23V4.5H197.226V4H197.774ZM201.766 4V3.5H203.762V4H203.238V4.5H201.234V4H201.766ZM205.758 4V3.5H207.754V4H207.246V4.5H205.242V4H205.758ZM209.75 4V3.5H211.746V4H211.254V4.5H209.25V4H209.75ZM213.742 4V3.5H215.738V4H215.262V4.5H213.258V4H213.742ZM217.734 4V3.5H219.73V4H219.27V4.5H217.266V4H217.734ZM221.726 4V3.5H223.722V4H223.278V4.5H221.274V4H221.726ZM225.718 4V3.5H227.714V4H227.286V4.5H225.282V4H225.718ZM229.71 4V3.5H231.706V4H231.294V4.5H229.29V4H229.71ZM233.702 4V3.5H235.698V4H235.302V4.5H233.298V4H233.702ZM237.694 4V3.5H239.69V4H239.31V4.5H237.306V4H237.694ZM241.686 4V3.5H243.682V4H243.318V4.5H241.314V4H241.686ZM245.678 4V3.5H247.674V4H247.326V4.5H245.322V4H245.678ZM249.67 4V3.5H251.666V4H251.334V4.5H249.33V4H249.67ZM253.662 4V3.5H255.658V4H255.342V4.5H253.338V4H253.662ZM257.654 4V3.5H259.65V4H259.35V4.5H257.346V4H257.654ZM261.646 4V3.5H263.642V4H263.358V4.5H261.354V4H261.646ZM265.638 4V3.5H267.634V4H267.366V4.5H265.362V4H265.638ZM269.63 4V3.5H271.626V4H271.374V4.5H269.37V4H269.63ZM273.622 4V3.5H275.618V4H275.382V4.5H273.378V4H273.622ZM277.614 4V3.5H279.61V4H279.39V4.5H277.386V4H277.614ZM281.606 4V3.5H283.602V4H283.398V4.5H281.394V4H281.606ZM285.598 4V3.5H287.594V4H287.406V4.5H285.402V4H285.598ZM289.59 4V3.5H291.586V4H291.414V4.5H289.41V4H289.59ZM293.582 4V3.5H295.578V4H295.422V4.5H293.418V4H293.582ZM297.574 4V3.5H299.57V4H299.43V4.5H297.426V4H297.574ZM301.566 4V3.5H303.562V4H303.438V4.5H301.434V4H301.566ZM305.558 4V3.5H307.554V4H307.446V4.5H305.442V4H305.558ZM309.55 4V3.5H311.546V4H311.454V4.5H309.45V4H309.55ZM313.542 4V3.5H315.538V4H315.462V4.5H313.458V4H313.542ZM317.534 4V3.5H319.53V4H319.47V4.5H317.466V4H317.534ZM321.526 4V3.5H323.522V4H323.478V4.5H321.474V4H321.526ZM325.518 4V3.5H327.514V4H327.486V4.5H325.482V4H325.518ZM329.51 4V3.5H331.506V4H331.494V4.5H329.49V4H329.51ZM333.502 4V3.5H335.498V4H335.502V4.5H333.498V4H333.502ZM337.494 4V3.5H339.49V4H339.51V4.5H337.506V4H337.494ZM341.486 4V3.5H343.482V4H343.518V4.5H341.514V4H341.486ZM345.478 4V3.5H347.474V4H347.526V4.5H345.522V4H345.478ZM349.47 4V3.5H351.466V4H351.534V4.5H349.53V4H349.47ZM353.462 4V3.5H355.458V4H355.542V4.5H353.538V4H353.462ZM357.454 4V3.5H359.45V4H359.55V4.5H357.546V4H357.454ZM361.446 4V3.5H363.442V4H363.558V4.5H361.554V4H361.446ZM365.438 4V3.5H367.434V4H367.566V4.5H365.562V4H365.438ZM369.43 4V3.5H371.426V4H371.574V4.5H369.57V4H369.43ZM373.422 4V3.5H375.418V4H375.582V4.5H373.578V4H373.422ZM377.414 4V3.5H379.41V4H379.59V4.5H377.586V4H377.414ZM381.406 4V3.5H383.402V4H383.598V4.5H381.594V4H381.406ZM385.398 4V3.5H387.394V4H387.606V4.5H385.602V4H385.398ZM389.39 4V3.5H391.386V4H391.614V4.5H389.61V4H389.39ZM393.382 4V3.5H395.378V4H395.622V4.5H393.618V4H393.382ZM397.374 4V3.5H399.37V4H399.63V4.5H397.626V4H397.374ZM401.366 4V3.5H403.362V4H403.638V4.5H401.634V4H401.366ZM405.358 4V3.5H407.354V4H407.646V4.5H405.642V4H405.358ZM409.35 4V3.5H411.346V4H411.654V4.5H409.65V4H409.35ZM413.342 4V3.5H415.338V4H415.662V4.5H413.658V4H413.342ZM417.334 4V3.5H419.33V4H419.67V4.5H417.666V4H417.334ZM421.326 4V3.5H423.322V4H423.678V4.5H421.674V4H421.326ZM425.318 4V3.5H427.314V4H427.686V4.5H425.682V4H425.318ZM429.31 4V3.5H431.306V4H431.694V4.5H429.69V4H429.31ZM433.302 4V3.5H435.298V4H435.702V4.5H433.698V4H433.302ZM437.294 4V3.5H439.29V4H439.71V4.5H437.706V4H437.294ZM441.286 4V3.5H443.282V4H443.718V4.5H441.714V4H441.286ZM445.278 4V3.5H447.274V4H447.726V4.5H445.722V4H445.278ZM449.27 4V3.5H451.266V4H451.734V4.5H449.73V4H449.27ZM453.262 4V3.5H455.258V4H455.742V4.5H453.738V4H453.262ZM457.254 4V3.5H459.25V4H459.75V4.5H457.746V4H457.254ZM461.246 4V3.5H463.242V4H463.758V4.5H461.754V4H461.246ZM465.238 4V3.5H467.234V4H467.766V4.5H465.762V4H465.238ZM469.23 4V3.5H471.226V4H471.774V4.5H469.77V4H469.23ZM473.222 4V3.5H475.218V4H475.782V4.5H473.778V4H473.222ZM477.214 4V3.5H479.21V4H479.79V4.5H477.786V4H477.214ZM481.206 4V3.5H483.202V4H483.798V4.5H481.794V4H481.206ZM485.198 4V3.5H487.194V4H487.806V4.5H485.802V4H485.198ZM489.19 4V3.5H491.186V4H491.814V4.5H489.81V4H489.19ZM493.182 4V3.5H495.178V4H495.822V4.5H493.818V4H493.182ZM497.174 4V3.5H499.17V4H499.83V4.5H497.826V4H497.174ZM501.166 4V3.5H503.162V4H503.838V4.5H501.834V4H501.166ZM505.158 4V3.5H507.154V4H507.846V4.5H505.842V4H505.158ZM509.15 4V3.5H511.146V4H511.854V4.5H509.85V4H509.15ZM513.142 4V3.5H515.138V4H515.862V4.5H513.858V4H513.142ZM517.134 4V3.5H519.13V4H519.87V4.5H517.866V4H517.134ZM521.126 4V3.5H523.122V4H523.878V4.5H521.874V4H521.126ZM525.118 4V3.5H527.114V4H527.886V4.5H525.882V4H525.118ZM529.11 4V3.5H531.106V4H531.894V4.5H529.89V4H529.11ZM533.102 4V3.5H535.098V4H535.902V4.5H533.898V4H533.102ZM537.094 4V3.5H539.09V4H539.91V4.5H537.906V4H537.094ZM541.086 4V3.5H543.082V4H543.918V4.5H541.914V4H541.086ZM545.078 4V3.5H547.074V4H547.926V4.5H545.922V4H545.078ZM549.07 4V3.5H551.066V4H551.934V4.5H549.93V4H549.07ZM553.062 4V3.5H555.058V4H555.942V4.5H553.938V4H553.062ZM557.054 4V3.5H559.05V4H559.95V4.5H557.946V4H557.054ZM561.046 4V3.5H563.042V4H563.958V4.5H561.954V4H561.046ZM565.038 4V3.5H567.034V4H567.966V4.5H565.962V4H565.038ZM569.03 4V3.5H571.026V4H571.974V4.5H569.97V4H569.03ZM573.022 4V3.5H575.018V4H575.982V4.5H573.978V4H573.022ZM577.014 4V3.5H579.01V4H579.99V4.5H577.986V4H577.014ZM581.006 4V3.5H583.002V4H583.998V4.5H581.994V4H581.006Z" stroke="#C7C7C7" stroke-width="0.5" stroke-dasharray="2 2"/>
</svg>
