<svg width="121" height="63" viewBox="0 0 121 63" fill="none" xmlns="http://www.w3.org/2000/svg">
<rect width="119.305" height="32" rx="3" transform="matrix(0.96632 -0.257344 0.168898 0.985634 0 30.7024)" fill="#7C7C7C"/>
<path d="M25.5233 44.5175L23.9531 35.3541L29.9247 33.7638L30.1106 34.8486L25.3082 36.1275L25.8058 39.0315L29.9806 37.9197L30.1561 38.9438L25.9813 40.0556L26.5078 43.128L31.3696 41.8333L31.5543 42.9113L25.5233 44.5175ZM32.8462 42.5673L31.2759 33.404L32.2866 33.1348L36.4938 36.8474L36.5004 36.8457L39.1169 31.3158L40.1408 31.0432L41.711 40.2065L40.5418 40.5178L39.3018 33.2815L36.921 38.3329L36.5841 38.4226L32.7742 35.0129L34.0154 42.2559L32.8462 42.5673ZM43.7493 39.6637L42.179 30.5003L45.865 29.5187C47.6089 29.0543 49.0667 29.9835 49.3634 31.7151C49.6705 33.5073 48.6489 35.0828 46.9248 35.5419L44.3816 36.2192L44.9185 39.3523L43.7493 39.6637ZM44.1969 35.1412L46.6872 34.478C47.7375 34.1983 48.3859 33.145 48.1954 32.0332C48.0153 30.9821 47.0659 30.3191 46.009 30.6006L43.5318 31.2603L44.1969 35.1412ZM51.5081 37.5974L49.9378 28.4341L51.107 28.1227L52.4925 36.208L56.8589 35.0451L57.0436 36.1232L51.5081 37.5974ZM61.9139 35.0164C59.265 35.7218 56.7545 34.1712 56.3007 31.5232C55.8435 28.8551 57.629 26.1745 60.2779 25.469C62.9333 24.7618 65.4482 26.2973 65.9054 28.9654C66.3591 31.6133 64.5694 34.3092 61.9139 35.0164ZM61.7245 33.9114C63.7393 33.3749 65.0929 31.3587 64.7362 29.2768C64.3783 27.1881 62.4808 26.0307 60.466 26.5673C58.4579 27.1021 57.112 29.1232 57.4699 31.2119C57.8267 33.2938 59.723 34.4444 61.7245 33.9114ZM69.952 32.6855L69.3504 29.1752L64.7486 24.4898L66.1292 24.1221L69.7482 27.9491L69.7548 27.9473L71.7903 22.6145L73.1775 22.245L70.5119 28.8588L71.1212 32.3741L69.952 32.6855ZM75.7092 31.1523L74.139 21.989L80.1106 20.3987L80.2965 21.4834L75.4941 22.7624L75.9917 25.6663L80.1665 24.5545L80.342 25.5787L76.1672 26.6905L76.6937 29.7629L81.5555 28.4681L81.7402 29.5461L75.7092 31.1523ZM83.0321 29.2021L81.4618 20.0388L87.4334 18.4485L87.6193 19.5333L82.8169 20.8122L83.3146 23.7162L87.4894 22.6044L87.6649 23.6285L83.49 24.7403L84.0165 27.8127L88.8783 26.5179L89.0631 27.596L83.0321 29.2021ZM93.1892 26.7015C90.7517 27.3506 89.4112 26.1788 89.1733 24.7908L90.3426 24.4794C90.5077 25.4429 91.5274 26.0731 93.0071 25.6791C94.5396 25.2709 95.287 24.4731 95.093 23.3411C94.9083 22.2631 93.8384 22.1464 92.4617 22.2947C90.9183 22.438 89.0085 22.4182 88.691 20.5653C88.4566 19.1976 89.1728 17.7739 91.5112 17.1512C93.625 16.5882 94.9327 17.3672 95.1948 18.8967L94.019 19.2098C93.8631 18.3002 93.0257 17.8469 91.6781 18.2058C90.0531 18.6385 89.7321 19.506 89.8614 20.2607C90.0265 21.2242 91.0019 21.3942 92.6518 21.1873C94.1862 21.0322 95.9533 21.1464 96.2754 23.0262C96.5699 24.7444 95.3955 26.1139 93.1892 26.7015Z" fill="white"/>
</svg>
