<svg width="109" height="9" viewBox="0 0 109 9" fill="none" xmlns="http://www.w3.org/2000/svg">
<path d="M0.463867 7L1.63574 0.359375H6.0498L5.9082 1.14551H2.3584L1.9873 3.25H5.07324L4.94141 3.99219H1.85547L1.46484 6.21875H5.05859L4.92188 7H0.463867ZM5.86445 7L6.74336 2.01953H7.56367L7.38789 3.01074C7.78828 2.3418 8.5793 1.87793 9.3752 1.87793C10.5813 1.87793 11.3088 2.67871 10.9865 4.51465L10.552 7H9.69746L10.1271 4.5293C10.3713 3.11816 9.8 2.66406 9.06758 2.66406C8.27168 2.66406 7.36836 3.31836 7.18281 4.38281L6.71895 7H5.86445ZM16.8412 4.74902H12.7104V4.77344C12.7104 5.68652 13.2377 6.36035 14.2729 6.36035C14.8783 6.36035 15.4545 6.04297 15.7035 5.50098H16.5971C16.2406 6.47266 15.2348 7.13672 14.1996 7.13672C12.7689 7.13672 11.8705 6.08691 11.8705 4.80273C11.8705 3.45508 12.9301 1.88281 14.7709 1.88281C16.2406 1.88281 16.934 2.9375 16.934 3.99707C16.934 4.20703 16.8998 4.50488 16.8412 4.74902ZM14.7074 2.65918C13.8041 2.65918 13.0717 3.24512 12.8129 4.08984H16.099C16.1576 3.69922 15.8793 2.65918 14.7074 2.65918ZM17.359 7L18.2379 2.01953H19.0582L18.858 3.13281C19.2291 2.44434 19.8541 2.01953 20.5719 2.01953H21.2506L21.1187 2.75684H20.484C19.61 2.75684 18.8385 3.45508 18.6285 4.65625L18.2135 7H17.359ZM22.7547 8.875C20.6014 8.875 20.6111 7.40039 20.6648 7.0293H21.4607C21.4559 7.62988 21.7488 8.15723 22.8328 8.15723C24.0682 8.15723 24.7908 7.2832 24.952 6.35547L25.0643 5.74023C24.5857 6.53125 23.7557 6.90723 22.9598 6.90723C21.6707 6.90723 20.8699 5.99902 20.8699 4.74902C20.8699 3.35254 22.0662 1.88281 23.702 1.88281C24.7029 1.88281 25.3182 2.41504 25.5281 3.1377L25.7234 2.01953H26.5389L25.7771 6.33105C25.533 7.71777 24.4734 8.875 22.7547 8.875ZM23.2381 6.16504C24.1658 6.16504 25.0496 5.4082 25.2596 4.46094C25.4354 3.66992 24.9422 2.66895 23.7361 2.66895C22.6082 2.66895 21.7146 3.61133 21.7146 4.69531C21.7146 5.53516 22.2811 6.16504 23.2381 6.16504ZM26.207 8.69922L26.3291 7.99121H27.1592C27.7256 7.99121 28.0137 7.67383 28.3945 6.99512L28.4678 6.85352L27.3496 2.01953H28.1943L29.0049 5.54004L29.0537 5.99902L29.2441 5.54492L31.2363 2.02441L32.1934 2.01953L29.3711 6.86328C28.5605 8.26465 28.1064 8.69922 27.0273 8.69922H26.207Z" fill="black"/>
<path d="M40.4375 4V3.5H43.3125V4H42.4375V4.5H39.4792V4H40.4375ZM46.1875 4V3.5H49.0625V4H48.3542V4.5H45.3958V4H46.1875ZM51.9375 4V3.5H54.8125V4H54.2708V4.5H51.3125V4H51.9375ZM57.6875 4V3.5H60.5625V4H60.1875V4.5H57.2292V4H57.6875ZM63.4375 4V3.5H66.3125V4H66.1042V4.5H63.1458V4H63.4375ZM69.1875 4V3.5H72.0625V4H72.0208V4.5H69.0625V4H69.1875ZM74.9375 4V3.5H77.8125V4H77.9375V4.5H74.9792V4H74.9375ZM80.6875 4V3.5H83.5625V4H83.8542V4.5H80.8958V4H80.6875ZM86.4375 4V3.5H89.3125V4H89.7708V4.5H86.8125V4H86.4375ZM92.1875 4V3.5H95.0625V4H95.6875V4.5H92.7292V4H92.1875ZM97.9375 4V3.5H100.812V4H101.604V4.5H98.6458V4H97.9375ZM103.688 4V3.5H106.562V4H107.521V4.5H104.562V4H103.688Z" stroke="#C7C7C7" stroke-width="0.5" stroke-dasharray="3 3"/>
</svg>
