<svg width="36" height="36" viewBox="0 0 36 36" fill="none" xmlns="http://www.w3.org/2000/svg">
<path d="M12.3953 31.8317C13.1938 31.8317 13.7216 31.2892 13.7216 30.5055C13.7216 30.1134 13.6007 29.8273 13.3596 29.5862L9.02035 25.3524L6.15771 22.9121L9.69856 23.0625H28.9239C32.4338 23.0625 33.8964 21.4502 33.8964 18.045V9.14145C33.8964 5.6308 32.4345 4.16895 28.9239 4.16895H20.4863C19.6577 4.16895 19.1151 4.77195 19.1151 5.50995C19.1151 6.24859 19.6577 6.85094 20.4863 6.85094H28.9239C30.5207 6.85094 31.2143 7.54395 31.2143 9.14145V18.045C31.2143 19.6875 30.5207 20.3805 28.9239 20.3805H9.69856L6.15771 20.5316L9.02035 18.0907L13.3596 13.8568C13.6007 13.6157 13.7216 13.3142 13.7216 12.9227C13.7216 12.1539 13.1944 11.5965 12.3953 11.5965C12.0643 11.5965 11.6721 11.7624 11.4163 12.0182L2.55642 20.7129C2.25556 20.9989 2.10449 21.3454 2.10449 21.7222C2.10449 22.0841 2.25556 22.4454 2.55642 22.7314L11.4163 31.4254C11.6801 31.679 12.0295 31.8236 12.3953 31.8317Z" fill="url(#paint0_linear_981_3605)"/>
<defs>
<linearGradient id="paint0_linear_981_3605" x1="18.0004" y1="4.16895" x2="18.0004" y2="31.8324" gradientUnits="userSpaceOnUse">
<stop stop-color="#FECA00"/>
<stop offset="1" stop-color="#D19228"/>
</linearGradient>
</defs>
</svg>
