<svg width="36" height="36" viewBox="0 0 36 36" fill="none" xmlns="http://www.w3.org/2000/svg">
<rect y="0.137695" width="35.7" height="35.7" rx="8.4" fill="#23E873" fill-opacity="0.04"/>
<path d="M22.2321 9.32929L20.045 9.32568C17.5879 9.32568 16 10.9992 16 13.5894V15.5552H13.8009C13.6109 15.5552 13.457 15.7135 13.457 15.9087V18.757C13.457 18.9522 13.6111 19.1103 13.8009 19.1103H16V26.2974C16 26.4926 16.1538 26.6507 16.3439 26.6507H19.213C19.403 26.6507 19.5569 26.4924 19.5569 26.2974V19.1103H22.128C22.3181 19.1103 22.4719 18.9522 22.4719 18.757L22.473 15.9087C22.473 15.815 22.4367 15.7252 22.3723 15.6589C22.3079 15.5926 22.2201 15.5552 22.1289 15.5552H19.5569V13.8888C19.5569 13.0878 19.7427 12.6812 20.7584 12.6812L22.2317 12.6806C22.4216 12.6806 22.5755 12.5224 22.5755 12.3274V9.68255C22.5755 9.48772 22.4217 9.32965 22.2321 9.32929Z" fill="#0B7A38"/>
</svg>
