<svg width="111" height="8" viewBox="0 0 111 8" fill="none" xmlns="http://www.w3.org/2000/svg">
<path d="M0.463867 7L1.63574 0.359375H6.0498L5.9082 1.14551H2.3584L1.94824 3.47949H5.03418L4.90234 4.2168H1.81641L1.32812 7H0.463867ZM7.23652 1.04785C6.90449 1.04785 6.71895 0.813477 6.76777 0.535156C6.8166 0.256836 7.08516 0.0224609 7.42207 0.0224609C7.76387 0.0224609 7.94941 0.256836 7.90059 0.535156C7.85176 0.818359 7.57832 1.04785 7.23652 1.04785ZM5.7668 7L6.6457 2.01953H7.50508L6.62129 7H5.7668ZM8.0082 7L8.88711 2.01953H9.70742L9.53164 3.01074C9.93203 2.3418 10.723 1.87793 11.5189 1.87793C12.725 1.87793 13.4525 2.67871 13.1303 4.51465L12.6957 7H11.8412L12.2709 4.5293C12.515 3.11816 11.9437 2.66406 11.2113 2.66406C10.4154 2.66406 9.51211 3.31836 9.32656 4.38281L8.8627 7H8.0082ZM16.109 7.1416C14.8004 7.1416 14.0045 6.09668 14.0045 4.83691C14.0045 3.43555 15.1373 1.88281 16.8316 1.88281C17.7447 1.88281 18.4039 2.34668 18.6773 3.1377L18.8727 2.01953H19.6881L18.8092 7H17.9889L18.1793 5.94043C17.735 6.70703 16.9049 7.1416 16.109 7.1416ZM16.3971 6.35547C17.3346 6.35547 18.2184 5.55469 18.399 4.5293C18.5455 3.67969 18.0914 2.66895 16.8658 2.66895C15.7867 2.66895 14.8541 3.60156 14.8541 4.75391C14.8541 5.6084 15.3912 6.35547 16.3971 6.35547ZM20.1961 7L21.075 2.01953H21.8953L21.7195 3.01074C22.1199 2.3418 22.9109 1.87793 23.7068 1.87793C24.9129 1.87793 25.6404 2.67871 25.3182 4.51465L24.8836 7H24.0291L24.4588 4.5293C24.7029 3.11816 24.1316 2.66406 23.3992 2.66406C22.6033 2.66406 21.7 3.31836 21.5145 4.38281L21.0506 7H20.1961ZM28.5312 7.1416C27.1055 7.1416 26.1924 6.09668 26.1924 4.8125C26.1924 3.45996 27.2617 1.87793 29.127 1.87793C30.4355 1.87793 31.1826 2.65918 31.3047 3.65039H30.4648C30.3135 3.00586 29.7861 2.66895 29.0537 2.66895C27.9062 2.66895 27.0469 3.59668 27.0469 4.73438C27.0469 5.6084 27.5693 6.35547 28.6338 6.35547C29.21 6.35547 29.835 6.02344 30.1523 5.33008H31.0215C30.6357 6.49219 29.5566 7.1416 28.5312 7.1416ZM36.5979 4.74902H32.467V4.77344C32.467 5.68652 32.9943 6.36035 34.0295 6.36035C34.635 6.36035 35.2111 6.04297 35.4602 5.50098H36.3537C35.9973 6.47266 34.9914 7.13672 33.9562 7.13672C32.5256 7.13672 31.6271 6.08691 31.6271 4.80273C31.6271 3.45508 32.6867 1.88281 34.5275 1.88281C35.9973 1.88281 36.6906 2.9375 36.6906 3.99707C36.6906 4.20703 36.6564 4.50488 36.5979 4.74902ZM34.4641 2.65918C33.5607 2.65918 32.8283 3.24512 32.5695 4.08984H35.8557C35.9143 3.69922 35.6359 2.65918 34.4641 2.65918Z" fill="black"/>
<path d="M50.525 4V3.5H53.575V4H52.2955V4.5H49.4318V4H50.525ZM56.625 4V3.5H59.675V4H58.0227V4.5H55.1591V4H56.625ZM62.725 4V3.5H65.775V4H63.75V4.5H60.8864V4H62.725ZM68.825 4V3.5H71.875V4H69.4773V4.5H66.6136V4H68.825ZM74.925 4V3.5H77.975V4H75.2045V4.5H72.3409V4H74.925ZM81.025 4V3.5H84.075V4H86.6591V4.5H83.7955V4H81.025ZM87.125 4V3.5H90.175V4H92.3864V4.5H89.5227V4H87.125ZM93.225 4V3.5H96.275V4H98.1136V4.5H95.25V4H93.225ZM99.325 4V3.5H102.375V4H103.841V4.5H100.977V4H99.325ZM105.425 4V3.5H108.475V4H109.568V4.5H106.705V4H105.425ZM80.9318 4V4.5H78.0682V4H80.9318Z" stroke="#C7C7C7" stroke-width="0.5" stroke-dasharray="3 3"/>
</svg>
