<svg width="16" height="16" viewBox="0 0 16 16" fill="none" xmlns="http://www.w3.org/2000/svg">
<path d="M8 0C10.1217 0 12.1566 0.842855 13.6569 2.34315C15.1571 3.84344 16 5.87827 16 8C16 10.1217 15.1571 12.1566 13.6569 13.6569C12.1566 15.1571 10.1217 16 8 16C5.87827 16 3.84344 15.1571 2.34315 13.6569C0.842855 12.1566 0 10.1217 0 8C0 5.87827 0.842855 3.84344 2.34315 2.34315C3.84344 0.842855 5.87827 0 8 0ZM8 1C7.08075 1 6.1705 1.18106 5.32122 1.53284C4.47194 1.88463 3.70026 2.40024 3.05025 3.05025C2.40024 3.70026 1.88463 4.47194 1.53284 5.32122C1.18106 6.1705 1 7.08075 1 8C1 8.91925 1.18106 9.8295 1.53284 10.6788C1.88463 11.5281 2.40024 12.2997 3.05025 12.9497C3.70026 13.5998 4.47194 14.1154 5.32122 14.4672C6.1705 14.8189 7.08075 15 8 15C9.85652 15 11.637 14.2625 12.9497 12.9497C14.2625 11.637 15 9.85652 15 8C15 6.14348 14.2625 4.36301 12.9497 3.05025C11.637 1.7375 9.85652 1 8 1ZM11.358 5.646C11.4408 5.72873 11.492 5.8379 11.5026 5.95449C11.5132 6.07108 11.4826 6.18769 11.416 6.284L11.358 6.354L7.354 10.358C7.27127 10.4408 7.1621 10.492 7.04551 10.5026C6.92892 10.5132 6.81231 10.4826 6.716 10.416L6.646 10.358L4.646 8.358C4.55742 8.26981 4.50508 8.15164 4.4993 8.02678C4.49352 7.90191 4.53472 7.77941 4.61478 7.68342C4.69483 7.58742 4.80794 7.5249 4.93182 7.50816C5.05569 7.49142 5.18134 7.52169 5.284 7.593L5.354 7.651L7 9.298L10.651 5.646C10.7448 5.55226 10.8719 5.49961 11.0045 5.49961C11.1371 5.49961 11.2642 5.55226 11.358 5.646Z" fill="white"/>
</svg>
