<svg width="228" height="10" viewBox="0 0 228 10" fill="none" xmlns="http://www.w3.org/2000/svg">
<path d="M0.463867 8L1.63574 1.35938H2.5L1.9873 4.28418H5.82031L6.33789 1.35938H7.20703L6.03516 8H5.16602L5.68359 5.06055H1.8457L1.32812 8H0.463867ZM12.5002 5.74902H8.36934V5.77344C8.36934 6.68652 8.89668 7.36035 9.93184 7.36035C10.5373 7.36035 11.1135 7.04297 11.3625 6.50098H12.2561C11.8996 7.47266 10.8938 8.13672 9.85859 8.13672C8.42793 8.13672 7.52949 7.08691 7.52949 5.80273C7.52949 4.45508 8.58906 2.88281 10.4299 2.88281C11.8996 2.88281 12.593 3.9375 12.593 4.99707C12.593 5.20703 12.5588 5.50488 12.5002 5.74902ZM10.3664 3.65918C9.46309 3.65918 8.73066 4.24512 8.47188 5.08984H11.758C11.8166 4.69922 11.5383 3.65918 10.3664 3.65918ZM15.1078 8.1416C13.7992 8.1416 13.0033 7.09668 13.0033 5.83691C13.0033 4.43555 14.1361 2.88281 15.8305 2.88281C16.7436 2.88281 17.4027 3.34668 17.6762 4.1377L17.8715 3.01953H18.6869L17.808 8H16.9877L17.1781 6.94043C16.7338 7.70703 15.9037 8.1416 15.1078 8.1416ZM15.3959 7.35547C16.3334 7.35547 17.2172 6.55469 17.3979 5.5293C17.5443 4.67969 17.0902 3.66895 15.8646 3.66895C14.7855 3.66895 13.8529 4.60156 13.8529 5.75391C13.8529 6.6084 14.39 7.35547 15.3959 7.35547ZM19.1949 8L20.4059 1.11523H21.2652L20.0494 8H19.1949ZM23.3992 8C22.6424 8 21.8709 7.70703 22.1443 6.1543L22.5691 3.75684H21.4607L21.5926 3.01953H22.701L22.9598 1.54004L23.8191 1.53516L23.5555 3.01953H25.201L25.0691 3.75684H23.4236L22.9939 6.19336C22.8279 7.12109 23.2479 7.28711 23.6922 7.28711H24.5613L24.4393 8H23.3992ZM25.1035 8L26.3145 1.125H27.1689L26.7637 3.43457L26.6465 3.98633C27.0664 3.32227 27.8184 2.87793 28.6143 2.87793C29.8203 2.87793 30.543 3.67871 30.2256 5.51465L29.791 8H28.9316L29.3662 5.5293C29.6104 4.11816 29.0391 3.66406 28.3066 3.66406C27.5107 3.66406 26.6074 4.31836 26.4219 5.38281L25.958 8H25.1035ZM33.4387 8.1416C32.0129 8.1416 31.0998 7.09668 31.0998 5.8125C31.0998 4.45996 32.1691 2.87793 34.0344 2.87793C35.343 2.87793 36.09 3.65918 36.2121 4.65039H35.3723C35.2209 4.00586 34.6936 3.66895 33.9611 3.66895C32.8137 3.66895 31.9543 4.59668 31.9543 5.73438C31.9543 6.6084 32.4768 7.35547 33.5412 7.35547C34.1174 7.35547 34.7424 7.02344 35.0598 6.33008H35.9289C35.5432 7.49219 34.4641 8.1416 33.4387 8.1416ZM38.6293 8.1416C37.3207 8.1416 36.5248 7.09668 36.5248 5.83691C36.5248 4.43555 37.6576 2.88281 39.352 2.88281C40.265 2.88281 40.9242 3.34668 41.1977 4.1377L41.393 3.01953H42.2084L41.3295 8H40.5092L40.6996 6.94043C40.2553 7.70703 39.4252 8.1416 38.6293 8.1416ZM38.9174 7.35547C39.8549 7.35547 40.7387 6.55469 40.9193 5.5293C41.0658 4.67969 40.6117 3.66895 39.3861 3.66895C38.307 3.66895 37.3744 4.60156 37.3744 5.75391C37.3744 6.6084 37.9115 7.35547 38.9174 7.35547ZM42.7164 8L43.5953 3.01953H44.4156L44.2154 4.13281C44.5865 3.44434 45.2115 3.01953 45.9293 3.01953H46.608L46.4762 3.75684H45.8414C44.9674 3.75684 44.1959 4.45508 43.9859 5.65625L43.5709 8H42.7164ZM51.1932 5.74902H47.0623V5.77344C47.0623 6.68652 47.5896 7.36035 48.6248 7.36035C49.2303 7.36035 49.8064 7.04297 50.0555 6.50098H50.949C50.5926 7.47266 49.5867 8.13672 48.5516 8.13672C47.1209 8.13672 46.2225 7.08691 46.2225 5.80273C46.2225 4.45508 47.282 2.88281 49.1229 2.88281C50.5926 2.88281 51.2859 3.9375 51.2859 4.99707C51.2859 5.20703 51.2518 5.50488 51.1932 5.74902ZM49.0594 3.65918C48.1561 3.65918 47.4236 4.24512 47.1648 5.08984H50.451C50.5096 4.69922 50.2313 3.65918 49.0594 3.65918Z" fill="black"/>
<path d="M68.4815 5V4.5H71.4444V5H70.5V5.5H67.5V5H68.4815ZM74.4074 5V4.5H77.3704V5H76.5V5.5H73.5V5H74.4074ZM80.3333 5V4.5H83.2963V5H82.5V5.5H79.5V5H80.3333ZM86.2593 5V4.5H89.2222V5H88.5V5.5H85.5V5H86.2593ZM92.1852 5V4.5H95.1481V5H94.5V5.5H91.5V5H92.1852ZM98.1111 5V4.5H101.074V5H100.5V5.5H97.5V5H98.1111ZM104.037 5V4.5H107V5H106.5V5.5H103.5V5H104.037ZM109.963 5V4.5H112.926V5H112.5V5.5H109.5V5H109.963ZM115.889 5V4.5H118.852V5H118.5V5.5H115.5V5H115.889ZM121.815 5V4.5H124.778V5H124.5V5.5H121.5V5H121.815ZM127.741 5V4.5H130.704V5H130.5V5.5H127.5V5H127.741ZM133.667 5V4.5H136.63V5H136.5V5.5H133.5V5H133.667ZM139.593 5V4.5H142.556V5H142.5V5.5H139.5V5H139.593ZM145.519 5V4.5H148.481V5H148.5V5.5H145.5V5H145.519ZM151.444 5V4.5H154.407V5H154.5V5.5H151.5V5H151.444ZM157.37 5V4.5H160.333V5H160.5V5.5H157.5V5H157.37ZM163.296 5V4.5H166.259V5H166.5V5.5H163.5V5H163.296ZM169.222 5V4.5H172.185V5H172.5V5.5H169.5V5H169.222ZM175.148 5V4.5H178.111V5H178.5V5.5H175.5V5H175.148ZM181.074 5V4.5H184.037V5H184.5V5.5H181.5V5H181.074ZM187 5V4.5H189.963V5H190.5V5.5H187.5V5H187ZM192.926 5V4.5H195.889V5H196.5V5.5H193.5V5H192.926ZM198.852 5V4.5H201.815V5H202.5V5.5H199.5V5H198.852ZM204.778 5V4.5H207.741V5H208.5V5.5H205.5V5H204.778ZM210.704 5V4.5H213.667V5H214.5V5.5H211.5V5H210.704ZM216.63 5V4.5H219.593V5H220.5V5.5H217.5V5H216.63ZM222.556 5V4.5H225.518V5H226.5V5.5H223.5V5H222.556Z" stroke="#C7C7C7" stroke-width="0.5" stroke-dasharray="3 3"/>
</svg>
