<svg width="226" height="226" viewBox="0 0 226 226" fill="none" xmlns="http://www.w3.org/2000/svg">
<path d="M42.375 58.433C42.375 50.9301 47.1168 44.2466 54.1985 41.768L107.167 23.229C110.943 21.9073 115.057 21.9073 118.833 23.229L171.802 41.768C178.883 44.2466 183.625 50.9301 183.625 58.433V151.844C183.625 161.595 175.72 169.5 165.969 169.5H60.0312C50.28 169.5 42.375 161.595 42.375 151.844V58.433Z" fill="#0B7A38"/>
<circle cx="113" cy="49.4375" r="10.5938" fill="#C8D1EA"/>
<path d="M68.8594 130.656C68.8594 125.781 72.8119 121.828 77.6875 121.828H148.312C153.188 121.828 157.141 125.781 157.141 130.656V158.906C157.141 183.284 137.378 203.047 113 203.047C88.6218 203.047 68.8594 183.284 68.8594 158.906V130.656Z" fill="#EBEBEB" stroke="#EBEBEB" stroke-width="3.53125"/>
<mask id="path-4-inside-1_1001_2859" fill="white">
<path fill-rule="evenodd" clip-rule="evenodd" d="M75.9248 185.982L92.0431 120.062H106.168L87.3584 196.989C82.9397 194.008 79.0679 190.279 75.9248 185.982ZM100.025 202.953C97.7953 202.297 95.6359 201.477 93.5611 200.506L113.231 120.062H120.293L100.025 202.953Z"/>
</mask>
<path fill-rule="evenodd" clip-rule="evenodd" d="M75.9248 185.982L92.0431 120.062H106.168L87.3584 196.989C82.9397 194.008 79.0679 190.279 75.9248 185.982ZM100.025 202.953C97.7953 202.297 95.6359 201.477 93.5611 200.506L113.231 120.062H120.293L100.025 202.953Z" fill="white"/>
<path d="M75.9248 185.982L72.4946 185.143L72.1042 186.74L73.0748 188.067L75.9248 185.982ZM92.0431 120.062V116.531H89.2712L88.6129 119.224L92.0431 120.062ZM106.168 120.062L109.598 120.901L110.667 116.531H106.168V120.062ZM87.3584 196.989L85.3835 199.917L89.5849 202.751L90.7886 197.828L87.3584 196.989ZM100.025 202.953L99.0288 206.341L102.577 207.385L103.455 203.792L100.025 202.953ZM93.5611 200.506L90.1309 199.667L89.4437 202.477L92.064 203.704L93.5611 200.506ZM113.231 120.062V116.531H110.459L109.8 119.224L113.231 120.062ZM120.293 120.062L123.723 120.901L124.792 116.531H120.293V120.062ZM79.355 186.821L95.4733 120.901L88.6129 119.224L72.4946 185.143L79.355 186.821ZM92.0431 123.594H106.168V116.531H92.0431V123.594ZM102.738 119.224L83.9282 196.151L90.7886 197.828L109.598 120.901L102.738 119.224ZM89.3333 194.062C85.2533 191.309 81.6774 187.865 78.7749 183.897L73.0748 188.067C76.4584 192.692 80.6262 196.707 85.3835 199.917L89.3333 194.062ZM101.021 199.565C98.9646 198.961 96.9725 198.204 95.0582 197.308L92.064 203.704C94.2993 204.75 96.6259 205.634 99.0288 206.341L101.021 199.565ZM96.9913 201.344L116.661 120.901L109.8 119.224L90.1309 199.667L96.9913 201.344ZM113.231 123.594H120.293V116.531H113.231V123.594ZM116.863 119.224L96.5949 202.115L103.455 203.792L123.723 120.901L116.863 119.224Z" fill="#EBEBEB" mask="url(#path-4-inside-1_1001_2859)"/>
<path d="M134.188 105.938C134.188 100.318 131.955 94.9291 127.982 90.9557C124.008 86.9822 118.619 84.75 113 84.75C107.381 84.75 101.992 86.9822 98.0182 90.9557C94.0447 94.9291 91.8125 100.318 91.8125 105.937" stroke="#EBEBEB" stroke-width="10.5938" stroke-linecap="round"/>
<mask id="path-7-inside-2_1001_2859" fill="white">
<path fill-rule="evenodd" clip-rule="evenodd" d="M119.367 163.187C119.001 161.723 119.652 160.225 120.69 159.13C122.49 157.231 123.594 154.666 123.594 151.844C123.594 145.993 118.851 141.25 113 141.25C107.149 141.25 102.406 145.993 102.406 151.844C102.406 154.666 103.51 157.231 105.31 159.13C106.348 160.225 106.999 161.723 106.633 163.187L103.503 175.706C102.946 177.935 104.632 180.094 106.929 180.094H119.071C121.368 180.094 123.054 177.935 122.497 175.706L119.367 163.187Z"/>
</mask>
<path fill-rule="evenodd" clip-rule="evenodd" d="M119.367 163.187C119.001 161.723 119.652 160.225 120.69 159.13C122.49 157.231 123.594 154.666 123.594 151.844C123.594 145.993 118.851 141.25 113 141.25C107.149 141.25 102.406 145.993 102.406 151.844C102.406 154.666 103.51 157.231 105.31 159.13C106.348 160.225 106.999 161.723 106.633 163.187L103.503 175.706C102.946 177.935 104.632 180.094 106.929 180.094H119.071C121.368 180.094 123.054 177.935 122.497 175.706L119.367 163.187Z" fill="#0B7A38"/>
<path d="M105.31 159.13L107.873 156.701L105.31 159.13ZM119.367 163.187L115.941 164.043L119.367 163.187ZM120.062 151.844C120.062 153.727 119.33 155.432 118.127 156.701L123.253 161.559C125.65 159.031 127.125 155.606 127.125 151.844H120.062ZM113 144.781C116.901 144.781 120.062 147.943 120.062 151.844H127.125C127.125 144.043 120.801 137.719 113 137.719V144.781ZM105.938 151.844C105.938 147.943 109.099 144.781 113 144.781V137.719C105.199 137.719 98.875 144.043 98.875 151.844H105.938ZM107.873 156.701C106.67 155.432 105.938 153.727 105.938 151.844H98.875C98.875 155.606 100.35 159.031 102.747 161.559L107.873 156.701ZM106.929 176.562L110.059 164.043L103.207 162.33L100.077 174.85L106.929 176.562ZM119.071 176.562H106.929V183.625H119.071V176.562ZM115.941 164.043L119.071 176.562L125.923 174.85L122.793 162.33L115.941 164.043ZM100.077 174.85C98.963 179.307 102.334 183.625 106.929 183.625V176.562H106.929L100.077 174.85ZM102.747 161.559C102.979 161.805 103.113 162.04 103.171 162.203C103.223 162.35 103.196 162.377 103.207 162.33L110.059 164.043C110.819 161.002 109.404 158.317 107.873 156.701L102.747 161.559ZM119.071 183.625C123.666 183.625 127.037 179.307 125.923 174.85L119.071 176.562V183.625ZM118.127 156.701C116.596 158.317 115.181 161.002 115.941 164.043L122.793 162.33C122.804 162.377 122.777 162.35 122.829 162.203C122.887 162.04 123.021 161.805 123.253 161.559L118.127 156.701Z" fill="#EBEBEB" mask="url(#path-7-inside-2_1001_2859)"/>
</svg>
