<svg width="36" height="36" viewBox="0 0 36 36" fill="none" xmlns="http://www.w3.org/2000/svg">
<path d="M3 32.25H33M27 23.25H27.0135M27 27.75H27.0135M9 27.75H9.0135M9 23.25H9.0135M9 18.75H9.0135M9 14.25H9.0135M11.685 8.088L24.327 14.385M12 6.75C12 7.54565 11.6839 8.30871 11.1213 8.87132C10.5587 9.43393 9.79565 9.75 9 9.75C8.20435 9.75 7.44129 9.43393 6.87868 8.87132C6.31607 8.30871 6 7.54565 6 6.75C6 5.95435 6.31607 5.19129 6.87868 4.62868C7.44129 4.06607 8.20435 3.75 9 3.75C9.79565 3.75 10.5587 4.06607 11.1213 4.62868C11.6839 5.19129 12 5.95435 12 6.75ZM30 15.75C30 16.5456 29.6839 17.3087 29.1213 17.8713C28.5587 18.4339 27.7956 18.75 27 18.75C26.2044 18.75 25.4413 18.4339 24.8787 17.8713C24.3161 17.3087 24 16.5456 24 15.75C24 14.9544 24.3161 14.1913 24.8787 13.6287C25.4413 13.0661 26.2044 12.75 27 12.75C27.7956 12.75 28.5587 13.0661 29.1213 13.6287C29.6839 14.1913 30 14.9544 30 15.75Z" stroke="url(#paint0_linear_981_3780)" stroke-width="2.25" stroke-linecap="round" stroke-linejoin="round"/>
<defs>
<linearGradient id="paint0_linear_981_3780" x1="18" y1="3.75" x2="18" y2="32.25" gradientUnits="userSpaceOnUse">
<stop stop-color="#FECA00"/>
<stop offset="1" stop-color="#D19228"/>
</linearGradient>
</defs>
</svg>
