<svg width="37" height="36" viewBox="0 0 37 36" fill="none" xmlns="http://www.w3.org/2000/svg">
<rect x="0.400391" y="0.137695" width="35.7" height="35.7" rx="8.4" fill="#23E873" fill-opacity="0.04"/>
<path fill-rule="evenodd" clip-rule="evenodd" d="M10.376 17.9883C10.376 16.0347 10.376 15.058 10.6099 14.2613C11.1636 12.3756 12.6383 10.9009 14.524 10.3472C15.3207 10.1133 16.2974 10.1133 18.251 10.1133C20.2045 10.1133 21.1813 10.1133 21.978 10.3472C23.8637 10.9009 25.3384 12.3756 25.892 14.2613C26.126 15.058 26.126 16.0347 26.126 17.9883C26.126 19.9418 26.126 20.9186 25.892 21.7153C25.3384 23.601 23.8637 25.0757 21.978 25.6294C21.1813 25.8633 20.2045 25.8633 18.251 25.8633C16.2974 25.8633 15.3207 25.8633 14.524 25.6294C12.6383 25.0757 11.1636 23.601 10.6099 21.7153C10.376 20.9186 10.376 19.9418 10.376 17.9883ZM18.2507 13.8188C15.9483 13.8188 14.0815 15.6856 14.0815 17.988C14.0815 20.2904 15.9483 22.1571 18.2507 22.1571C20.5531 22.1571 22.4198 20.2904 22.4198 17.988C22.4198 15.6856 20.5531 13.8188 18.2507 13.8188ZM18.2507 20.5937C16.8144 20.5937 15.645 19.4242 15.645 17.988C15.645 16.5507 16.8144 15.3823 18.2507 15.3823C19.6869 15.3823 20.8564 16.5507 20.8564 17.988C20.8564 19.4242 19.6869 20.5937 18.2507 20.5937ZM23.2881 13.5064C23.2881 13.8132 23.0393 14.0619 22.7325 14.0619C22.4257 14.0619 22.177 13.8132 22.177 13.5064C22.177 13.1996 22.4257 12.9509 22.7325 12.9509C23.0393 12.9509 23.2881 13.1996 23.2881 13.5064Z" fill="#0B7A38"/>
</svg>
