<svg width="36" height="36" viewBox="0 0 36 36" fill="none" xmlns="http://www.w3.org/2000/svg">
<rect x="0.0996094" y="0.137695" width="35.7" height="35.7" rx="8.4" fill="#23E873" fill-opacity="0.04"/>
<path d="M25.8207 25.8631V25.8624H25.8246V20.0861C25.8246 17.2603 25.2163 15.0835 21.9127 15.0835C20.3246 15.0835 19.2588 15.955 18.8237 16.7812H18.7778V15.3473H15.6455V25.8624H18.9071V20.6557C18.9071 19.2848 19.167 17.9592 20.8647 17.9592C22.5375 17.9592 22.5624 19.5237 22.5624 20.7437V25.8631H25.8207Z" fill="#0B7A38"/>
<path d="M10.334 15.3481H13.5995V25.8632H10.334V15.3481Z" fill="#0B7A38"/>
<path d="M11.9665 10.1133C10.9224 10.1133 10.0752 10.9605 10.0752 12.0046C10.0752 13.0487 10.9224 13.9136 11.9665 13.9136C13.0106 13.9136 13.8578 13.0487 13.8578 12.0046C13.8572 10.9605 13.0099 10.1133 11.9665 10.1133V10.1133Z" fill="#0B7A38"/>
</svg>
