<svg width="109" height="8" viewBox="0 0 109 8" fill="none" xmlns="http://www.w3.org/2000/svg">
<path d="M0.463867 7L1.63574 0.359375H2.3584L4.27734 3.71387L4.28223 3.70898L7.3877 0.359375H8.21289L7.04102 7H6.16699L7.08984 1.75586L4.25781 4.81738H4.00391L2.26562 1.75098L1.33789 7H0.463867ZM13.5061 4.74902H9.3752V4.77344C9.3752 5.68652 9.90254 6.36035 10.9377 6.36035C11.5432 6.36035 12.1193 6.04297 12.3684 5.50098H13.2619C12.9055 6.47266 11.8996 7.13672 10.8645 7.13672C9.43379 7.13672 8.53535 6.08691 8.53535 4.80273C8.53535 3.45508 9.59492 1.88281 11.4357 1.88281C12.9055 1.88281 13.5988 2.9375 13.5988 3.99707C13.5988 4.20703 13.5646 4.50488 13.5061 4.74902ZM11.3723 2.65918C10.4689 2.65918 9.73652 3.24512 9.47773 4.08984H12.7639C12.8225 3.69922 12.5441 2.65918 11.3723 2.65918ZM16.099 7.1416C14.81 7.1416 14.0092 6.09668 14.0092 4.83691C14.0092 3.43066 15.142 1.87793 16.8314 1.87793C17.8178 1.87793 18.4428 2.39551 18.6576 3.10352L18.7357 2.58594L19.1703 0.125H20.0199L18.809 7H17.9887L18.1791 5.94043C17.7445 6.69727 16.9486 7.1416 16.099 7.1416ZM16.3969 6.36035C17.2953 6.36035 18.223 5.55469 18.4037 4.50977C18.5453 3.6748 18.0961 2.66406 16.8754 2.66406C15.7914 2.66406 14.8539 3.60645 14.8539 4.74902C14.8539 5.6084 15.4057 6.36035 16.3969 6.36035ZM21.6607 1.04785C21.3287 1.04785 21.1432 0.813477 21.192 0.535156C21.2408 0.256836 21.5094 0.0224609 21.8463 0.0224609C22.1881 0.0224609 22.3736 0.256836 22.3248 0.535156C22.276 0.818359 22.0025 1.04785 21.6607 1.04785ZM20.191 7L21.0699 2.01953H21.9293L21.0455 7H20.191ZM24.5223 7.1416C23.2137 7.1416 22.4178 6.09668 22.4178 4.83691C22.4178 3.43555 23.5506 1.88281 25.2449 1.88281C26.158 1.88281 26.8172 2.34668 27.0906 3.1377L27.2859 2.01953H28.1014L27.2225 7H26.4021L26.5926 5.94043C26.1482 6.70703 25.3182 7.1416 24.5223 7.1416ZM24.8104 6.35547C25.7479 6.35547 26.6316 5.55469 26.8123 4.5293C26.9588 3.67969 26.5047 2.66895 25.2791 2.66895C24.2 2.66895 23.2674 3.60156 23.2674 4.75391C23.2674 5.6084 23.8045 6.35547 24.8104 6.35547Z" fill="black"/>
<path d="M37.5 4V3.5H40.5V4H39.625V4.5H36.5417V4H37.5ZM43.5 4V3.5H46.5V4H45.7917V4.5H42.7083V4H43.5ZM49.5 4V3.5H52.5V4H51.9583V4.5H48.875V4H49.5ZM55.5 4V3.5H58.5V4H58.125V4.5H55.0417V4H55.5ZM61.5 4V3.5H64.5V4H64.2917V4.5H61.2083V4H61.5ZM67.5 4V3.5H70.5V4H70.4583V4.5H67.375V4H67.5ZM73.5 4V3.5H76.5V4H76.625V4.5H73.5417V4H73.5ZM79.5 4V3.5H82.5V4H82.7917V4.5H79.7083V4H79.5ZM85.5 4V3.5H88.5V4H88.9583V4.5H85.875V4H85.5ZM91.5 4V3.5H94.5V4H95.125V4.5H92.0417V4H91.5ZM97.5 4V3.5H100.5V4H101.292V4.5H98.2083V4H97.5ZM103.5 4V3.5H106.5V4H107.458V4.5H104.375V4H103.5Z" stroke="#C7C7C7" stroke-width="0.5" stroke-dasharray="3 3"/>
</svg>
