<svg width="373" height="170" viewBox="0 0 373 170" fill="none" xmlns="http://www.w3.org/2000/svg">
<path d="M40.0003 73.5534C58.4098 73.5534 73.3337 58.6295 73.3337 40.2201C73.3337 21.8106 58.4098 6.88672 40.0003 6.88672C21.5908 6.88672 6.66699 21.8106 6.66699 40.2201C6.66699 58.6295 21.5908 73.5534 40.0003 73.5534Z" stroke="#FEB73F" stroke-width="6.66667" stroke-linecap="round" stroke-linejoin="round"/>
<path d="M33.3337 26.8874V40.2207H45.0003C46.7684 40.2207 48.4641 39.5183 49.7144 38.2681C50.9646 37.0178 51.667 35.3221 51.667 33.554C51.667 31.7859 50.9646 30.0902 49.7144 28.84C48.4641 27.5897 46.7684 26.8874 45.0003 26.8874H41.667M33.3337 26.8874H26.667M33.3337 26.8874V20.2207M33.3337 26.8874H41.667M41.667 26.8874V20.2207" stroke="#FEB73F" stroke-width="6.66667" stroke-linecap="round" stroke-linejoin="round"/>
<path d="M33.3337 53.554V40.2207H48.3337C50.1018 40.2207 51.7975 40.9231 53.0477 42.1733C54.2979 43.4236 55.0003 45.1193 55.0003 46.8874C55.0003 48.6555 54.2979 50.3512 53.0477 51.6014C51.7975 52.8517 50.1018 53.554 48.3337 53.554H41.667M33.3337 53.554V60.2207M33.3337 53.554H26.667H41.667M33.3337 53.554H41.667M41.667 53.554V60.2207" stroke="#FEB73F" stroke-width="6.66667" stroke-linecap="round" stroke-linejoin="round"/>
<rect x="1.46875" y="43.6562" width="77" height="125.125" rx="12.0312" fill="#0B7A38"/>
<path d="M18.3125 43.6562H61.625L58.1426 50.621C57.3274 52.2514 55.6611 53.2812 53.8382 53.2812H26.0993C24.2764 53.2812 22.6101 52.2514 21.7949 50.621L18.3125 43.6562Z" fill="#F8F8FA"/>
<rect x="27.9375" y="156.75" width="24.0625" height="4.8125" rx="2.40625" fill="#F8F8FA"/>
<rect x="20.7188" y="79.75" width="81.8125" height="52.9375" rx="7.21875" fill="#EBEBEB"/>
<circle cx="79.6719" cy="92.9844" r="6.01562" fill="white"/>
<circle cx="89.2969" cy="92.9844" r="6.01562" fill="white"/>
<rect x="27.9375" y="106.219" width="52.9375" height="7.21875" rx="3.60938" fill="#0B7A38"/>
<rect x="27.9375" y="118.25" width="28.875" height="7.21875" rx="3.60938" fill="#0B7A38"/>
<path d="M130.117 83.0858C129.336 83.8668 129.336 85.1332 130.117 85.9142L142.845 98.6421C143.626 99.4232 144.892 99.4232 145.673 98.6421C146.454 97.8611 146.454 96.5948 145.673 95.8137L134.36 84.5L145.673 73.1863C146.454 72.4052 146.454 71.1389 145.673 70.3579C144.892 69.5768 143.626 69.5768 142.845 70.3579L130.117 83.0858ZM251.945 85.9142C252.727 85.1332 252.727 83.8668 251.945 83.0858L239.218 70.3579C238.436 69.5768 237.17 69.5768 236.389 70.3579C235.608 71.1389 235.608 72.4052 236.389 73.1863L247.703 84.5L236.389 95.8137C235.608 96.5948 235.608 97.8611 236.389 98.6421C237.17 99.4232 238.436 99.4232 239.218 98.6421L251.945 85.9142ZM131.531 86.5H250.531V82.5H131.531V86.5Z" fill="#7C7C7C" fill-opacity="0.29"/>
<path d="M279.531 72.5557C279.531 67.6091 282.657 63.2027 287.326 61.5686L322.248 49.3459C324.738 48.4746 327.45 48.4746 329.939 49.3459L364.861 61.5686C369.53 63.2027 372.656 67.6091 372.656 72.5557V134.141C372.656 140.57 367.445 145.781 361.016 145.781H291.172C284.743 145.781 279.531 140.57 279.531 134.141V72.5557Z" fill="#0B7A38"/>
<circle cx="326.094" cy="66.625" r="6.98438" fill="#C8D1EA"/>
<path d="M296.992 120.172C296.992 116.957 299.598 114.352 302.812 114.352H349.375C352.589 114.352 355.195 116.957 355.195 120.172V138.797C355.195 154.869 342.166 167.898 326.094 167.898C310.021 167.898 296.992 154.869 296.992 138.797V120.172Z" fill="#EBEBEB" stroke="#EBEBEB" stroke-width="2.32812"/>
<mask id="path-16-inside-1_1021_6862" fill="white">
<path fill-rule="evenodd" clip-rule="evenodd" d="M301.651 156.648L312.278 113.188H321.59L309.189 163.905C306.276 161.939 303.724 159.48 301.651 156.648ZM317.541 167.837C316.07 167.404 314.647 166.863 313.279 166.223L326.247 113.188H330.903L317.541 167.837Z"/>
</mask>
<path fill-rule="evenodd" clip-rule="evenodd" d="M301.651 156.648L312.278 113.188H321.59L309.189 163.905C306.276 161.939 303.724 159.48 301.651 156.648ZM317.541 167.837C316.07 167.404 314.647 166.863 313.279 166.223L326.247 113.188H330.903L317.541 167.837Z" fill="white"/>
<path d="M301.651 156.648L299.39 156.095L299.132 157.148L299.772 158.022L301.651 156.648ZM312.278 113.188V110.859H310.451L310.016 112.635L312.278 113.188ZM321.59 113.188L323.852 113.74L324.556 110.859H321.59V113.188ZM309.189 163.905L307.887 165.835L310.657 167.703L311.451 164.458L309.189 163.905ZM317.541 167.837L316.884 170.07L319.223 170.758L319.802 168.39L317.541 167.837ZM313.279 166.223L311.017 165.67L310.564 167.523L312.292 168.332L313.279 166.223ZM326.247 113.188V110.859H324.419L323.985 112.635L326.247 113.188ZM330.903 113.188L333.165 113.74L333.869 110.859H330.903V113.188ZM303.913 157.201L314.54 113.74L310.016 112.635L299.39 156.095L303.913 157.201ZM312.278 115.516H321.59V110.859H312.278V115.516ZM319.329 112.635L306.928 163.352L311.451 164.458L323.852 113.74L319.329 112.635ZM310.491 161.975C307.802 160.16 305.444 157.889 303.53 155.273L299.772 158.022C302.003 161.072 304.751 163.719 307.887 165.835L310.491 161.975ZM318.197 165.603C316.841 165.204 315.528 164.705 314.266 164.115L312.292 168.332C313.765 169.021 315.299 169.604 316.884 170.07L318.197 165.603ZM315.54 166.776L328.508 113.74L323.985 112.635L311.017 165.67L315.54 166.776ZM326.247 115.516H330.903V110.859H326.247V115.516ZM328.641 112.635L315.279 167.284L319.802 168.39L333.165 113.74L328.641 112.635Z" fill="#EBEBEB" mask="url(#path-16-inside-1_1021_6862)"/>
<path d="M340.062 103.875C340.062 100.17 338.591 96.6173 335.971 93.9976C333.351 91.378 329.798 89.9063 326.094 89.9063C322.389 89.9062 318.836 91.378 316.216 93.9976C313.597 96.6172 312.125 100.17 312.125 103.875" stroke="#EBEBEB" stroke-width="6.98438" stroke-linecap="round"/>
<mask id="path-19-inside-2_1021_6862" fill="white">
<path fill-rule="evenodd" clip-rule="evenodd" d="M330.291 141.619C330.05 140.654 330.479 139.666 331.164 138.944C332.35 137.693 333.078 136.002 333.078 134.141C333.078 130.283 329.951 127.156 326.094 127.156C322.236 127.156 319.109 130.283 319.109 134.141C319.109 136.002 319.837 137.693 321.024 138.944C321.708 139.666 322.137 140.654 321.896 141.619L319.833 149.873C319.465 151.342 320.577 152.766 322.091 152.766H330.096C331.611 152.766 332.722 151.342 332.355 149.873L330.291 141.619Z"/>
</mask>
<path fill-rule="evenodd" clip-rule="evenodd" d="M330.291 141.619C330.05 140.654 330.479 139.666 331.164 138.944C332.35 137.693 333.078 136.002 333.078 134.141C333.078 130.283 329.951 127.156 326.094 127.156C322.236 127.156 319.109 130.283 319.109 134.141C319.109 136.002 319.837 137.693 321.024 138.944C321.708 139.666 322.137 140.654 321.896 141.619L319.833 149.873C319.465 151.342 320.577 152.766 322.091 152.766H330.096C331.611 152.766 332.722 151.342 332.355 149.873L330.291 141.619Z" fill="#0B7A38"/>
<path d="M319.833 149.873L317.574 149.308L319.833 149.873ZM321.024 138.944L319.334 140.546L321.024 138.944ZM330.291 141.619L332.55 141.054L330.291 141.619ZM330.75 134.141C330.75 135.382 330.267 136.506 329.474 137.343L332.854 140.546C334.434 138.879 335.406 136.621 335.406 134.141H330.75ZM326.094 129.484C328.665 129.484 330.75 131.569 330.75 134.141H335.406C335.406 128.997 331.237 124.828 326.094 124.828V129.484ZM321.438 134.141C321.438 131.569 323.522 129.484 326.094 129.484V124.828C320.951 124.828 316.781 128.997 316.781 134.141H321.438ZM322.713 137.343C321.92 136.506 321.438 135.382 321.438 134.141H316.781C316.781 136.621 317.754 138.879 319.334 140.546L322.713 137.343ZM322.091 150.438L324.155 142.184L319.637 141.054L317.574 149.308L322.091 150.438ZM330.096 150.438H322.091V155.094H330.096V150.438ZM328.033 142.184L330.096 150.438L334.614 149.308L332.55 141.054L328.033 142.184ZM317.574 149.308C316.839 152.247 319.062 155.094 322.091 155.094V150.438H322.091L317.574 149.308ZM319.334 140.546C319.487 140.708 319.575 140.863 319.613 140.97C319.648 141.068 319.63 141.085 319.637 141.054L324.155 142.184C324.656 140.178 323.723 138.408 322.713 137.343L319.334 140.546ZM330.096 155.094C333.126 155.094 335.348 152.247 334.614 149.308L330.096 150.438V155.094ZM329.474 137.343C328.464 138.408 327.532 140.178 328.033 142.184L332.55 141.054C332.558 141.085 332.54 141.068 332.574 140.97C332.612 140.863 332.7 140.708 332.854 140.546L329.474 137.343Z" fill="#EBEBEB" mask="url(#path-19-inside-2_1021_6862)"/>
</svg>
