<svg width="40" height="40" viewBox="0 0 40 40" fill="none" xmlns="http://www.w3.org/2000/svg">
<path d="M31.7829 33.0333C31.4663 33.0333 31.1496 32.9167 30.8996 32.6667C30.4163 32.1833 30.4163 31.3833 30.8996 30.9C36.9163 24.8833 36.9163 15.1 30.8996 9.09999C30.4163 8.61666 30.4163 7.81666 30.8996 7.33333C31.3829 6.84999 32.1829 6.84999 32.6663 7.33333C39.6496 14.3167 39.6496 25.6833 32.6663 32.6667C32.4163 32.9167 32.0996 33.0333 31.7829 33.0333Z" fill="#0B7A38"/>
<path d="M8.21654 33.0333C7.89987 33.0333 7.5832 32.9167 7.3332 32.6667C0.349869 25.6833 0.349869 14.3167 7.3332 7.33333C7.81654 6.84999 8.61654 6.84999 9.09987 7.33333C9.5832 7.81666 9.5832 8.61666 9.09987 9.09999C3.0832 15.1167 3.0832 24.9 9.09987 30.9C9.5832 31.3833 9.5832 32.1833 9.09987 32.6667C8.84987 32.9167 8.5332 33.0333 8.21654 33.0333Z" fill="#0B7A38"/>
<path d="M19.9999 37.85C17.9166 37.8333 15.9333 37.5 14.0833 36.85C13.4333 36.6167 13.0833 35.9 13.3166 35.25C13.5499 34.6 14.2499 34.25 14.9166 34.4833C16.5166 35.0333 18.2166 35.3333 20.0166 35.3333C21.7999 35.3333 23.5166 35.0333 25.0999 34.4833C25.7499 34.2667 26.4666 34.6 26.6999 35.25C26.9333 35.9 26.5833 36.6167 25.9333 36.85C24.0666 37.5 22.0833 37.85 19.9999 37.85Z" fill="#0B7A38"/>
<path d="M25.4999 5.56681C25.3666 5.56681 25.2166 5.55015 25.0833 5.50015C23.4999 4.93348 21.7833 4.65015 19.9999 4.65015C18.2166 4.65015 16.5166 4.95015 14.9166 5.50015C14.2499 5.71681 13.5499 5.38348 13.3166 4.73348C13.0833 4.08348 13.4333 3.36681 14.0833 3.13348C15.9499 2.48348 17.9333 2.15015 19.9999 2.15015C22.0666 2.15015 24.0666 2.48348 25.9166 3.13348C26.5666 3.36681 26.9166 4.08348 26.6833 4.73348C26.4999 5.25015 26.0166 5.56681 25.4999 5.56681Z" fill="#0B7A38"/>
<path d="M14.5674 20V17.2166C14.5674 13.75 17.0174 12.3333 20.0174 14.0666L22.4341 15.4666L24.8507 16.8666C27.8507 18.6 27.8507 21.4333 24.8507 23.1666L22.4341 24.5666L20.0174 25.9666C17.0174 27.7 14.5674 26.2833 14.5674 22.8166V20Z" fill="#0B7A38"/>
</svg>
