<svg width="149" height="56" viewBox="0 0 149 56" fill="none" xmlns="http://www.w3.org/2000/svg">
<rect x="0.917969" y="23.5796" width="144" height="32" rx="3" transform="rotate(-9.06746 0.917969 23.5796)" fill="#0B7A38"/>
<path d="M15.6871 41.4755L14.222 32.2948L17.9887 31.6937C19.7709 31.4093 21.2414 32.4691 21.5183 34.204C21.8049 35.9996 20.7418 37.4499 18.98 37.7311L16.381 38.1459L16.882 41.2848L15.6871 41.4755ZM16.2086 37.0658L18.7536 36.6596C19.8269 36.4883 20.5023 35.5152 20.3245 34.4014C20.1565 33.3483 19.1996 32.6011 18.1195 32.7735L15.5881 33.1775L16.2086 37.0658ZM23.616 40.2102L22.1508 31.0295L26.0526 30.4068C27.828 30.1234 29.2813 31.0752 29.5571 32.8034C29.7726 34.1535 29.1277 35.274 27.971 35.7909L30.7648 39.0693L29.3877 39.289L26.7974 36.1581C26.6973 36.181 26.6028 36.1961 26.5015 36.2123L24.2603 36.57L24.8108 40.0195L23.616 40.2102ZM24.0977 35.5506L26.7776 35.1229C27.8499 34.9449 28.5368 34.0876 28.3634 33.0008C28.1964 31.9545 27.2568 31.3153 26.1767 31.4876L23.517 31.9121L24.0977 35.5506ZM32.0174 38.8694L30.5523 29.6887L31.7471 29.498L33.2123 38.6787L32.0174 38.8694ZM38.0967 37.8992L32.723 29.3422L33.992 29.1397L38.3967 36.266L38.4138 36.2425L40.3713 28.1216L41.6404 27.9191L39.2037 37.7225L38.0967 37.8992ZM49.313 36.1091L48.1104 34.1689L43.4728 34.9091L42.9338 37.1272L41.6647 37.3297L44.0878 27.5285L45.2354 27.3453L50.5821 35.9066L49.313 36.1091ZM43.7365 33.8286L47.5235 33.2242L44.9704 29.1113L44.9119 28.9615L44.8984 28.9636L44.8826 29.1253L43.7365 33.8286ZM52.3883 35.6183L51.0944 27.511L48.1917 27.9742L48.0204 26.9009L55.0275 25.7826L55.1988 26.856L52.2893 27.3203L53.5831 35.4276L52.3883 35.6183ZM57.671 34.7753L56.2058 25.5946L62.3083 24.6207L62.4817 25.7075L57.5741 26.4907L58.0384 29.4002L62.3048 28.7193L62.4685 29.7454L58.2022 30.4263L58.6935 33.5045L63.6618 32.7116L63.8342 33.7917L57.671 34.7753ZM68.1553 33.102L66.6902 23.9213L67.885 23.7307L69.3502 32.9114L68.1553 33.102ZM76.6442 22.3328L77.8323 22.1432L79.2975 31.3239L78.2849 31.4855L71.4895 25.2114L72.6347 32.3872L71.4399 32.5779L69.9747 23.3972L70.9805 23.2366L77.7859 29.5299L77.7926 29.5288L76.6442 22.3328ZM81.3804 30.9914L79.9152 21.8107L83.2703 21.2753C86.173 20.8121 88.4034 22.339 88.8419 25.0865C89.2825 27.8474 87.6516 29.9906 84.7557 30.4528L81.3804 30.9914ZM82.3826 29.7239L84.5563 29.377C86.8042 29.0182 87.9772 27.4327 87.6378 25.3063C87.2974 23.1731 85.6884 21.9831 83.4067 22.3473L81.2601 22.6899L82.3826 29.7239ZM93.3056 29.0883L87.9319 20.5313L89.201 20.3288L93.6057 27.4551L93.6227 27.4317L95.5802 19.3107L96.8493 19.1082L94.4127 28.9116L93.3056 29.0883ZM99.2903 28.1332L97.8252 18.9525L99.02 18.7618L100.485 27.9425L99.2903 28.1332ZM102.575 27.609L101.11 18.4283L104.465 17.8928C107.367 17.4296 109.598 18.9565 110.036 21.704C110.477 24.465 108.846 26.6081 105.95 27.0703L102.575 27.609ZM103.577 26.3414L105.751 25.9945C107.999 25.6358 109.172 24.0503 108.832 21.9238C108.492 19.7907 106.883 18.6007 104.601 18.9648L102.454 19.3074L103.577 26.3414ZM115.82 25.6891C113.68 26.0306 111.784 24.824 111.421 22.5491L110.523 16.9191L111.711 16.7295L112.595 22.2717C112.833 23.7636 113.969 24.8492 115.643 24.582C117.276 24.3213 118.055 22.951 117.815 21.4524L116.929 15.8968L118.124 15.7061L119.022 21.336C119.376 23.5502 118.04 25.3346 115.82 25.6891ZM127.31 23.6615L126.107 21.7213L121.469 22.4615L120.93 24.6796L119.661 24.8821L122.084 15.0809L123.232 14.8978L128.579 23.459L127.31 23.6615ZM121.733 21.381L125.52 20.7766L122.967 16.6637L122.908 16.5139L122.895 16.516L122.879 16.6777L121.733 21.381ZM129.507 23.3108L128.042 14.1301L129.237 13.9394L130.53 22.04L134.992 21.3279L135.164 22.408L129.507 23.3108Z" fill="white"/>
</svg>
