<svg width="109" height="8" viewBox="0 0 109 8" fill="none" xmlns="http://www.w3.org/2000/svg">
<path d="M0.463867 7L1.63574 0.359375H4.41406C5.5957 0.359375 6.33301 1.01367 6.33301 2.03418C6.33301 3.00586 5.70312 4.06055 4.49707 4.37305L5.63477 7H4.69727L3.67188 4.5C3.59863 4.50488 3.46191 4.50488 3.38867 4.50488H1.76758L1.32812 7H0.463867ZM1.89941 3.76758H3.77441C4.83887 3.76758 5.44922 2.94727 5.44922 2.20508C5.44922 1.58008 5.06348 1.13574 4.3457 1.13574H2.36328L1.89941 3.76758ZM11.4943 4.74902H7.36348V4.77344C7.36348 5.68652 7.89082 6.36035 8.92598 6.36035C9.53145 6.36035 10.1076 6.04297 10.3566 5.50098H11.2502C10.8938 6.47266 9.88789 7.13672 8.85273 7.13672C7.42207 7.13672 6.52363 6.08691 6.52363 4.80273C6.52363 3.45508 7.5832 1.88281 9.42402 1.88281C10.8938 1.88281 11.5871 2.9375 11.5871 3.99707C11.5871 4.20703 11.5529 4.50488 11.4943 4.74902ZM9.36055 2.65918C8.45723 2.65918 7.7248 3.24512 7.46602 4.08984H10.7521C10.8107 3.69922 10.5324 2.65918 9.36055 2.65918ZM14.102 7.1416C12.7934 7.1416 11.9975 6.09668 11.9975 4.83691C11.9975 3.43555 13.1303 1.88281 14.8246 1.88281C15.7377 1.88281 16.3969 2.34668 16.6703 3.1377L16.8656 2.01953H17.6811L16.8021 7H15.9818L16.1723 5.94043C15.7279 6.70703 14.8979 7.1416 14.102 7.1416ZM14.39 6.35547C15.3275 6.35547 16.2113 5.55469 16.392 4.5293C16.5385 3.67969 16.0844 2.66895 14.8588 2.66895C13.7797 2.66895 12.8471 3.60156 12.8471 4.75391C12.8471 5.6084 13.3842 6.35547 14.39 6.35547ZM18.1891 7L19.4 0.115234H20.2594L19.0436 7H18.1891ZM22.667 7L23.8389 0.359375H28.2529L28.1113 1.14551H24.5615L24.1904 3.25H27.2764L27.1445 3.99219H24.0586L23.668 6.21875H27.2617L27.125 7H22.667ZM29.9133 7.1416C28.0871 7.1416 27.9406 5.97461 28.0334 5.44238L28.8439 5.44727C28.7951 5.80371 28.883 6.44824 29.9816 6.44824C30.8654 6.44824 31.1437 5.98438 31.1437 5.6084C31.1437 5.16406 30.7092 5.01758 30.0207 4.81738C29.176 4.59277 28.5168 4.27051 28.5168 3.40625C28.5168 2.83008 28.9025 1.87793 30.4943 1.87793C32.052 1.87793 32.3254 2.82031 32.2375 3.37207H31.4074C31.4367 3.06934 31.3244 2.59082 30.4162 2.59082C29.6008 2.59082 29.3615 3.01562 29.3615 3.33301C29.3615 3.73828 29.6496 3.9043 30.4357 4.13867C31.1926 4.34863 32.0227 4.6123 32.0227 5.46191C32.0227 6.24805 31.4953 7.1416 29.9133 7.1416ZM34.6449 7C33.8881 7 33.1166 6.70703 33.39 5.1543L33.8148 2.75684H32.7064L32.8383 2.01953H33.9467L34.2055 0.540039L35.0648 0.535156L34.8012 2.01953H36.4467L36.3148 2.75684H34.6693L34.2396 5.19336C34.0736 6.12109 34.4936 6.28711 34.9379 6.28711H35.807L35.685 7H34.6449ZM38.3219 7.1416C37.0133 7.1416 36.2174 6.09668 36.2174 4.83691C36.2174 3.43555 37.3502 1.88281 39.0445 1.88281C39.9576 1.88281 40.6168 2.34668 40.8902 3.1377L41.0855 2.01953H41.901L41.0221 7H40.2018L40.3922 5.94043C39.9479 6.70703 39.1178 7.1416 38.3219 7.1416ZM38.61 6.35547C39.5475 6.35547 40.4313 5.55469 40.6119 4.5293C40.7584 3.67969 40.3043 2.66895 39.0787 2.66895C37.9996 2.66895 37.067 3.60156 37.067 4.75391C37.067 5.6084 37.6041 6.35547 38.61 6.35547ZM44.3719 7C43.615 7 42.8436 6.70703 43.117 5.1543L43.5418 2.75684H42.4334L42.5652 2.01953H43.6736L43.9324 0.540039L44.7918 0.535156L44.5281 2.01953H46.1736L46.0418 2.75684H44.3963L43.9666 5.19336C43.8006 6.12109 44.2205 6.28711 44.6648 6.28711H45.534L45.4119 7H44.3719ZM50.9248 4.74902H46.7939V4.77344C46.7939 5.68652 47.3213 6.36035 48.3564 6.36035C48.9619 6.36035 49.5381 6.04297 49.7871 5.50098H50.6807C50.3242 6.47266 49.3184 7.13672 48.2832 7.13672C46.8525 7.13672 45.9541 6.08691 45.9541 4.80273C45.9541 3.45508 47.0137 1.88281 48.8545 1.88281C50.3242 1.88281 51.0176 2.9375 51.0176 3.99707C51.0176 4.20703 50.9834 4.50488 50.9248 4.74902ZM48.791 2.65918C47.8877 2.65918 47.1553 3.24512 46.8965 4.08984H50.1826C50.2412 3.69922 49.9629 2.65918 48.791 2.65918Z" fill="black"/>
<path d="M61.4375 4V3.5H64.3125V4H63.5V4.5H60.5V4H61.4375ZM67.1875 4V3.5H70.0625V4H69.5V4.5H66.5V4H67.1875ZM72.9375 4V3.5H75.8125V4H75.5V4.5H72.5V4H72.9375ZM78.6875 4V3.5H81.5625V4H81.5V4.5H78.5V4H78.6875ZM84.4375 4V3.5H87.3125V4H87.5V4.5H84.5V4H84.4375ZM90.1875 4V3.5H93.0625V4H93.5V4.5H90.5V4H90.1875ZM95.9375 4V3.5H98.8125V4H99.5V4.5H96.5V4H95.9375ZM101.688 4V3.5H104.562V4H105.5V4.5H102.5V4H101.688Z" stroke="#C7C7C7" stroke-width="0.5" stroke-dasharray="3 3"/>
</svg>
