<svg width="32" height="28" viewBox="0 0 32 28" fill="none" xmlns="http://www.w3.org/2000/svg">
<path d="M10.3953 27.8317C11.1938 27.8317 11.7216 27.2892 11.7216 26.5055C11.7216 26.1134 11.6007 25.8273 11.3596 25.5862L7.02035 21.3524L4.15771 18.9121L7.69856 19.0625H26.9239C30.4338 19.0625 31.8964 17.4502 31.8964 14.045V5.14145C31.8964 1.6308 30.4345 0.168945 26.9239 0.168945H18.4863C17.6577 0.168945 17.1151 0.771945 17.1151 1.50995C17.1151 2.24859 17.6577 2.85094 18.4863 2.85094H26.9239C28.5207 2.85094 29.2143 3.54395 29.2143 5.14145V14.045C29.2143 15.6875 28.5207 16.3805 26.9239 16.3805H7.69856L4.15771 16.5316L7.02035 14.0907L11.3596 9.8568C11.6007 9.61573 11.7216 9.31423 11.7216 8.92273C11.7216 8.15387 11.1944 7.59652 10.3953 7.59652C10.0643 7.59652 9.67213 7.76237 9.41628 8.01823L0.556421 16.7129C0.255564 16.9989 0.104492 17.3454 0.104492 17.7222C0.104492 18.0841 0.255564 18.4454 0.556421 18.7314L9.41628 27.4254C9.68007 27.679 10.0295 27.8236 10.3953 27.8317Z" fill="url(#paint0_linear_981_3606)"/>
<defs>
<linearGradient id="paint0_linear_981_3606" x1="16.0004" y1="0.168945" x2="16.0004" y2="27.8324" gradientUnits="userSpaceOnUse">
<stop stop-color="#FECA00"/>
<stop offset="1" stop-color="#D19228"/>
</linearGradient>
</defs>
</svg>
