<svg width="185" height="30" viewBox="0 0 185 30" fill="none" xmlns="http://www.w3.org/2000/svg">
<path d="M0.585786 13.5858C-0.195262 14.3668 -0.195262 15.6332 0.585786 16.4142L13.3137 29.1421C14.0948 29.9232 15.3611 29.9232 16.1421 29.1421C16.9232 28.3611 16.9232 27.0948 16.1421 26.3137L4.82843 15L16.1421 3.68629C16.9232 2.90524 16.9232 1.63891 16.1421 0.857864C15.3611 0.0768156 14.0948 0.0768156 13.3137 0.857864L0.585786 13.5858ZM184.414 16.4142C185.195 15.6332 185.195 14.3668 184.414 13.5858L171.686 0.857864C170.905 0.0768156 169.639 0.0768156 168.858 0.857864C168.077 1.63891 168.077 2.90524 168.858 3.68629L180.172 15L168.858 26.3137C168.077 27.0948 168.077 28.3611 168.858 29.1421C169.639 29.9232 170.905 29.9232 171.686 29.1421L184.414 16.4142ZM2 17H183V13H2V17Z" fill="#7C7C7C" fill-opacity="0.29"/>
</svg>
