<svg width="46" height="46" viewBox="0 0 46 46" fill="none" xmlns="http://www.w3.org/2000/svg">
<path d="M13.4129 19.6405L14.2466 21.0971C14.7775 22.0267 15.042 22.4906 15.042 23.0004C15.042 23.5102 14.7775 23.9741 14.2466 24.9017L13.4129 26.3603C11.04 30.5137 9.85363 32.5895 10.7775 33.6206C11.7032 34.6499 13.8959 33.6916 18.2774 31.7749L30.3064 26.5117C33.7468 25.0071 35.468 24.2539 35.468 23.0004C35.468 21.7469 33.7468 20.9936 30.3064 19.4891L18.2774 14.2259C13.8959 12.3092 11.7032 11.3509 10.7775 12.3801C9.85172 13.4094 11.04 15.4851 13.4129 19.6405Z" fill="#0B7A38"/>
</svg>
