<svg width="1512" height="215" viewBox="0 0 1512 215" fill="none" xmlns="http://www.w3.org/2000/svg">
<g style="mix-blend-mode:color-dodge" opacity="0.2">
<path d="M628.11 598.236C580.54 598.236 566.269 583.937 549.83 556.532C548.804 554.638 548.56 552.665 549.113 550.725C549.665 548.786 551.004 546.918 553.052 545.229C555.205 543.108 559.002 541.482 563.62 540.705C583.491 538.305 603.874 538.13 623.594 537.956C650.691 537.723 676.343 537.505 701.513 532.137C709.857 530.129 717.905 527.844 725.599 525.3C748.601 518.158 774.644 510.07 798.128 513.852C813.935 516.398 822.666 520.122 824.111 524.922C827.453 536.05 789.307 548.924 764.076 557.448C759.59 558.903 755.706 560.27 752.696 561.361C742.793 565.177 733.391 569.287 724.545 573.667C702.958 583.85 678.45 595.487 649.637 597.451C642.509 597.958 635.315 598.221 628.11 598.236ZM565.848 544.938C563.681 545.469 561.943 546.334 560.91 547.396C558.028 549.792 557.186 552.634 558.562 555.324C576.867 585.973 589.392 597.189 648.523 593.145C674.416 591.37 696.695 580.795 718.373 570.569C727.496 566.05 737.2 561.813 747.427 557.884C750.438 556.75 754.502 555.426 759.048 553.884C779.612 546.945 817.849 534.028 815.32 525.562C814.386 522.522 807.702 519.991 795.418 518.013C776.029 514.885 751.913 522.377 730.627 528.981C722.537 531.66 714.054 534.052 705.246 536.138C678.39 541.956 650.661 542.145 623.955 542.378C604.626 542.48 584.725 542.712 565.848 544.938Z" fill="#7C7C7C"/>
<path d="M1428.67 312.749C1415.68 312.713 1403.05 310.708 1392.54 307.017C1353.4 293.678 1337.02 261.502 1333.86 246.344C1329.5 225.208 1346.33 208.277 1362.59 191.926C1371.38 183.082 1380.44 173.947 1386.25 164.143C1391.13 155.91 1391.61 145.378 1392.27 134.235C1393.51 108.488 1394.92 79.3082 1453.27 69.9113C1466.22 67.8166 1471.33 69.053 1476.42 70.8568C1477.05 71.075 1477.69 71.3077 1478.38 71.5259C1478.68 71.6147 1478.96 71.717 1479.22 71.8314L1484.88 74.6243C1485.09 74.7155 1485.27 74.818 1485.42 74.9298C1492.86 80.2683 1489.67 90.8435 1485.94 96.2693C1470.22 119.034 1454.17 146.236 1454.17 175.329C1454.17 189.177 1467.21 199.898 1481.03 211.258C1503.28 229.572 1528.51 250.33 1497.65 287.627C1486.93 300.573 1468.96 308.908 1445.71 311.716C1440.14 312.397 1434.42 312.744 1428.67 312.749ZM1464.41 73.1697C1461.5 73.2527 1458.62 73.547 1455.89 74.0424C1403.56 82.4794 1402.3 108.837 1401.06 134.337C1400.52 145.771 1400.01 156.564 1394.8 165.35C1388.78 175.533 1379.54 184.813 1370.71 193.803C1354.28 210.357 1338.74 225.979 1342.87 245.908C1346.36 262.724 1363.94 291.918 1397.72 303.439C1404.22 305.724 1411.7 307.273 1419.6 307.973C1427.51 308.673 1435.64 308.506 1443.39 307.483C1469.08 304.384 1482.53 294.086 1489.13 285.998C1518.36 250.694 1495.36 231.769 1473.11 213.47C1459.29 202.109 1445.02 190.37 1445.02 175.329C1445.02 145.611 1461.31 117.987 1477.24 94.8874C1480.67 89.9271 1482.78 81.2284 1478.02 77.5336L1473.02 75.0752C1472.33 74.857 1471.67 74.6243 1471 74.3916C1469.19 73.6091 1466.84 73.1745 1464.41 73.1697Z" fill="#7C7C7C"/>
<path d="M614.381 403.78C612.498 403.783 610.616 403.72 608.751 403.591C594.661 402.616 584.665 398.034 579.125 389.961C573.586 381.888 583.401 374.149 592.915 366.687C598.936 362.003 604.506 357.566 605.921 353.435C618.446 317.069 574.73 293.358 475.947 282.754L471.852 282.318C457.22 280.761 442.106 279.161 429.069 275.524C428.133 275.26 427.273 274.937 426.51 274.564C424.786 273.762 423.596 272.729 423.093 271.598C422.59 270.467 422.796 269.289 423.684 268.215C424.573 267.141 426.104 266.219 428.082 265.568C430.06 264.916 432.395 264.564 434.789 264.556C456.949 264.28 476.007 263.495 492.837 262.811C548.506 260.556 588.7 258.927 673.724 277.183C730.025 289.271 748.993 310.77 733.276 344.853C728.451 355.469 719.568 365.558 707.083 374.6C694.889 383.08 649.517 403.78 614.381 403.78ZM542.695 265.778C526.889 265.778 511.172 266.418 493.62 267.131C476.669 267.829 457.491 268.586 435.03 268.891C434.399 268.872 433.772 268.95 433.237 269.113C432.702 269.275 432.287 269.516 432.05 269.799C431.814 270.082 431.768 270.394 431.919 270.691C432.07 270.988 432.411 271.254 432.893 271.451C433.102 271.551 433.335 271.639 433.585 271.713C445.417 275.015 459.839 276.543 473.779 278.026L477.904 278.463C582.226 289.664 628.442 315.12 614.833 354.104C613.117 359.079 606.764 364.068 600.622 368.912C591.771 375.851 583.431 382.411 587.676 388.55C592.132 395.008 599.448 398.5 610.046 399.241C639.973 401.322 687.031 380.869 699.646 372.069C711.414 363.473 719.822 353.909 724.455 343.849C739.238 311.716 722.468 292.355 670.05 281.11C613.027 268.891 577.59 265.778 542.695 265.778Z" fill="#7C7C7C"/>
<path d="M481.546 16.7733C475.103 22.0246 468.419 27.4649 468.419 34.229C468.419 39.5384 473.026 44.2951 477.452 48.9063C481.155 52.2888 483.88 55.9009 485.551 59.6415C489.013 69.824 476.518 78.5518 465.619 84.1813C432.32 101.128 363.524 113.841 318.393 111.398C295.662 110.161 280.698 106.481 272.659 100.168C256.943 87.847 270.552 67.3657 284.522 49.139C286.629 46.4043 288.677 43.4078 290.845 40.2366C298.402 29.225 306.952 16.7297 320.952 9.80561C322.458 9.07829 324.264 8.2346 326.311 7.28908C330.617 5.26714 335.825 2.83789 340.974 0.132262H328.66C325.649 1.5869 322.638 2.95426 320.199 4.14706C318.122 5.12167 316.255 5.99446 314.72 6.73632C299.064 14.3877 290.152 27.3922 282.294 38.8693C280.156 42.0113 278.139 44.9642 276.092 47.5971C261.369 66.8129 247.068 88.4579 265.133 102.452C274.616 109.885 292.229 114.35 317.58 115.732C321.689 115.952 325.82 116.059 329.954 116.052C376.862 116.052 440.299 103.484 472.363 87.1778C490.157 78.13 497.865 68.3694 494.643 58.9433C492.845 54.805 489.877 50.806 485.822 47.0589C481.606 42.695 477.602 38.5784 477.602 34.229C477.602 28.6577 483.353 24.0465 489.465 18.9989C496.058 13.6168 503.344 7.6382 502.802 0.088623H493.77C494.222 6.40175 487.929 11.4639 481.546 16.7733Z" fill="#7C7C7C"/>
<path d="M154.096 17.0206C164.814 20.8027 178.904 21.6609 195.945 19.5808C210.337 17.8207 226.414 9.89289 244.659 0.13226H232.406C217.803 7.79821 204.315 14.0532 193.747 15.3478C179.205 17.1224 168.005 16.5115 159.425 13.5004C151.476 10.6784 146.298 5.95081 142.775 0.13226H133.291C137.265 7.25999 143.588 13.3113 154.096 17.0206Z" fill="#7C7C7C"/>
<path d="M572.231 32.2361C569.461 41.1094 565.125 52.6011 556.033 62.7835C540.278 80.0256 519.814 96.1702 495.185 110.787C483.142 117.929 466.493 124.169 450.295 130.221C445.869 131.864 441.533 133.479 437.409 135.094C422.777 140.824 405.975 145.122 387.942 147.749C289.219 162.164 243.847 123.573 199.98 86.2469C166.41 57.7069 134.706 30.6797 80.9342 27.494C53.8373 25.8648 26.9512 27.3922 0.185547 30.2578V34.7381C26.7706 31.8288 53.4761 30.2287 79.8202 31.8288C129.106 34.7381 159.726 60.8343 192.122 88.3997C229.305 120.038 270.733 155.313 347.989 155.313C362.451 155.243 376.815 154.15 390.621 152.069C409.77 149.292 427.608 144.731 443.129 138.643C447.224 137.057 451.529 135.457 455.895 133.814C472.514 127.617 489.675 121.216 502.291 113.681C527.447 98.7246 548.346 82.2085 564.433 64.5727C573.947 53.8666 578.403 42.0113 581.233 32.8762C585.055 22.0486 585.299 10.9967 581.955 0.13226H572.923C576.114 9.0492 576.235 19.5662 572.231 32.2361Z" fill="#7C7C7C"/>
<path d="M1505.57 459.798C1494.33 459.385 1483.04 459.317 1471.79 459.594C1411.09 461.325 1356.59 475.595 1303.88 489.327C1265.82 499.262 1226.44 509.547 1185.52 514.812C1084.69 527.817 1003.88 512.558 951.888 470.679C935.359 457.383 923.888 446.895 926.567 432.727C930.391 412.362 945.716 394.907 961.944 376.505C970.013 367.341 978.352 357.857 985.157 347.98C994.52 334.394 995.935 321.375 997.441 307.585C997.922 303.221 998.404 298.566 999.217 293.998C1000.6 285.838 1005.96 277.576 1011.26 269.59C1015.55 263.42 1019.05 257.129 1021.74 250.752C1030.02 228.787 1007.26 189.803 975.763 172.071C936.021 149.655 878.455 139.981 804.692 143.312C729.724 146.702 661.62 162.47 627.689 171.576C577.259 185.119 487.989 205.033 457.009 186.326C455.116 185.211 453.734 183.915 452.956 182.524C452.177 181.132 452.019 179.676 452.493 178.253C455.112 168.216 481.065 156.433 495.968 150.993C507.59 146.789 520.054 142.6 532.097 138.556C590.988 118.802 651.865 98.364 663.758 61.0089C671.194 37.6183 666.016 19.0862 650.992 0.190447H641.237C656.713 18.9989 662.313 37.2546 654.816 60.3398C643.405 95.7893 584.274 115.674 526.828 134.919C514.785 138.978 502.17 143.196 490.428 147.444C486.002 149.058 447.133 163.445 443.4 177.642C442.779 179.646 443.032 181.69 444.141 183.644C445.251 185.598 447.193 187.418 449.843 188.988C466.402 198.996 497.443 200.843 542.153 194.472C568.377 190.734 598.575 184.29 631.964 175.329C665.354 166.368 732.072 150.906 805.414 147.604C876.077 144.403 931.053 153.582 968.808 174.849C998.314 191.475 1020.47 229.369 1012.74 249.908C1010.1 256.107 1006.69 262.223 1002.53 268.222C997.2 276.441 991.69 284.936 990.215 293.577C989.402 298.217 988.89 302.843 988.408 307.308C986.963 320.793 985.578 333.492 976.576 346.584C969.892 356.286 961.522 365.683 953.634 374.76C937.858 392.71 921.509 411.271 917.505 432.305C914.494 447.754 927.23 459.347 944.06 472.89C985.819 506.507 1045.25 523.7 1118.29 523.7C1141.78 523.607 1165.14 522.027 1187.78 519.002C1229.75 513.605 1269.58 503.19 1308.21 493.138C1360.06 479.596 1413.59 465.588 1472.36 463.929C1483.4 463.654 1494.46 463.722 1505.48 464.133L1505.57 459.798Z" fill="#7C7C7C"/>
<path d="M1505.57 387.532C1458.16 395.196 1412.22 404.842 1368.28 416.363C1352.68 420.601 1337.7 425.339 1323.42 430.545C1307.97 435.913 1292.01 441.47 1274.97 445.586C1220.96 458.678 1122.99 458.678 1077.65 439.215C1015.99 412.726 1033.96 380.157 1051.33 348.649C1057.96 336.663 1069.07 321.753 1080.87 305.955C1121.39 251.61 1171.85 183.969 1116.46 143.821C1054.77 99.1204 918.77 101.55 812.068 118.729C803.578 120.096 793.04 122.395 781.96 124.838C747.487 132.359 700.369 142.687 674.356 133.261C666.558 130.439 662.313 127.442 661.349 124.213C659.483 117.783 670.592 110.685 681.311 103.848C685.526 101.171 689.5 98.6258 692.782 96.0802C697.177 92.6909 701.814 89.2725 706.631 85.6505C737.491 62.6235 772.507 36.5419 766.094 8.55462C765.418 5.71066 764.301 2.89527 762.752 0.13226H753.388C755.143 3.05428 756.392 6.04173 757.122 9.06374C763.143 35.4509 729.091 60.8343 699.044 83.2503C694.167 86.8869 689.56 90.3199 685.134 93.7383C682.123 96.1239 678.179 98.5822 674.115 101.201C662.252 108.765 650.029 116.591 652.407 124.824C653.702 129.188 659.272 133.246 668.936 136.752C699.044 147.72 747.216 137.232 785.634 128.81C796.563 126.424 806.859 124.169 814.898 122.875C918.438 106.205 1050.07 103.586 1108.93 146.251C1161.8 184.566 1112.21 251.057 1072.35 304.472C1060.52 320.356 1049.32 335.368 1042.6 347.529C1024.54 380.302 1005.81 414.21 1071.66 442.473C1094.54 452.307 1130.73 458.169 1173.48 458.983C1176.79 458.983 1180.1 459.085 1183.42 459.085C1218.64 459.085 1253.75 455.58 1279.01 449.485C1296.71 445.208 1312.97 439.549 1328.68 434.08C1342.65 428.993 1357.29 424.358 1372.52 420.203C1415.15 409.046 1459.66 399.654 1505.57 392.128V387.532Z" fill="#7C7C7C"/>
<path d="M1505.57 0.13226H1504.84C1504.84 5.95081 1498.04 11.6239 1484.82 17.2097C1424.28 42.7532 1342.41 38.4474 1263.17 34.2726C1224.48 32.2361 1184.5 30.1269 1148.4 31.7125C1116.7 33.1671 1089.57 40.2076 1063.32 47.0589C1037.06 53.9102 1012.89 60.2525 984.013 61.7944C946.288 63.8309 905.733 62.2744 875.625 57.6632C834.529 51.3646 811.556 39.9021 807.341 23.581C805.294 15.7114 808.425 8.07459 812.339 0.13226H803.066C799.303 7.91458 796.232 15.9005 798.369 24.1338C807.07 58.0414 886.976 67.0456 950.473 67.0456C962.009 67.0456 973.537 66.7445 985.007 66.1438C1015.63 64.5 1042.06 57.5905 1067.62 50.8992C1094.24 43.946 1119.38 37.371 1149.21 36.0618C1184.41 34.5199 1222.19 36.4982 1262.18 38.6075C1343.47 42.8841 1427.35 47.3353 1490.78 20.4827C1496.44 18.1559 1501.41 15.4694 1505.57 12.4967L1505.57 0.13226Z" fill="#7C7C7C"/>
<path d="M1119.77 0.13226C1114.47 0.975951 1109.02 1.84873 1103.42 2.7797C1056.72 10.402 1003.79 19.0571 961.914 6.93997C955.688 5.23282 950.272 2.91365 946.017 0.13226H935.239C940.415 4.5871 948.084 8.24717 957.368 10.6929C973.478 15.2441 991.879 17.5548 1010.54 17.3697C1042.33 17.3697 1075.6 11.9294 1106.31 6.91088C1115.97 5.32532 1125.13 3.82704 1133.92 2.54696C1141.43 1.49437 1149.07 0.687635 1156.8 0.13226H1119.77Z" fill="#7C7C7C"/>
<path d="M1505.57 104.866C1505.21 105.448 1504.78 106.045 1504.42 106.641C1493.04 125.9 1494.76 147.371 1505.57 168.652V104.866Z" fill="#7C7C7C"/>
<path d="M1505.57 366.992L1500.93 367.589C1479.86 370.381 1460.89 375.72 1442.67 380.869C1433.64 383.386 1424.61 386.004 1415.21 388.244C1361.38 401.249 1235.5 416.886 1188.38 394.063C1080.75 342.118 1147.65 261.342 1196.48 202.327C1200 197.963 1204.49 193.788 1209.22 189.235C1218.55 180.347 1228.19 171.154 1230.71 161.408C1235.29 143.72 1205.39 133.77 1179.02 124.911C1148.52 114.729 1122.18 106.001 1141.14 87.5997C1146.17 82.7266 1154.12 78.1445 1161.83 73.6933C1164.24 72.2387 1166.65 70.915 1168.93 69.5331C1180.19 62.7254 1200.97 64.2527 1219.27 65.591C1222.47 65.8237 1225.54 66.0565 1228.49 66.231C1268.56 68.6603 1362.44 77.3008 1368.88 105.317C1373.64 125.929 1353.58 141.043 1332.39 157.03C1323.72 163.337 1315.74 169.858 1308.48 176.565C1301.74 183.155 1295.15 189.235 1288.79 195.054C1246.43 233.762 1218.46 259.334 1277.53 309.272C1291.59 321.171 1321.85 342.089 1366.44 348.547C1403.17 353.871 1454.75 350.758 1505.6 341.274V336.474C1455.53 346.089 1404.16 349.478 1369.03 344.387C1327.45 338.365 1298.76 318.451 1285.36 307.119C1228.76 259.262 1254.35 235.842 1296.77 197.105C1303.18 191.286 1309.81 185.177 1316.61 178.616C1323.69 172.036 1331.49 165.641 1339.98 159.459C1361.05 143.458 1382.91 127.049 1377.82 104.91C1370.69 73.8097 1271.78 64.5291 1229.6 61.9835C1226.59 61.8089 1223.58 61.5762 1220.57 61.358C1200.88 59.9034 1176.34 58.0996 1161.8 66.8856C1159.57 68.2384 1157.22 69.5913 1154.84 70.9732C1146.41 75.4663 1139.09 80.4159 1133.02 85.7232C1110.53 107.441 1142.71 118.191 1173.81 128.577C1200.43 137.479 1225.6 145.873 1221.68 160.943C1219.36 169.932 1210.09 178.776 1201.09 187.33C1196.48 191.694 1191.73 196.276 1188.02 200.727C1138.25 260.847 1070.09 343.165 1182 397.205C1201.39 406.587 1232.04 410.108 1265.76 410.108C1320.62 410.108 1383.57 400.769 1419.31 392.157C1428.88 389.844 1438.25 387.197 1447.28 384.637C1464.98 379.618 1483.41 374.454 1503.37 371.807L1505.63 371.501L1505.57 366.992Z" fill="#7C7C7C"/>
<path d="M1505.57 679.608C1493.95 680.845 1482.35 682.038 1470.94 683.201C1416.6 688.773 1365.3 694.039 1330.94 702.344C1305.17 708.56 1282.07 717.079 1262.87 727.452H1275.33C1292.57 718.791 1312.74 711.618 1334.98 706.243C1368.31 698.199 1419.07 692.991 1472.81 687.478C1483.62 686.373 1494.58 685.238 1505.57 684.074V679.608Z" fill="#7C7C7C"/>
<path d="M928.013 711.887C917.626 686.809 865.63 679.609 819.625 673.266C785.182 668.495 752.636 664 744.145 652.814C737.1 643.577 746.313 629.918 772.326 611.066C784.222 602.206 800.871 595.073 820.498 590.425C846.271 584.199 869.092 574.976 890.228 562.219C896.851 558.233 901.518 553.171 906.034 548.284C916.783 536.647 927.11 525.533 962.606 525.533C967.942 525.549 973.266 525.763 978.533 526.173C1005.63 528.181 1019.72 534.406 1034.68 540.996C1057.42 551.018 1080.93 561.361 1149.3 555.877C1219.03 550.262 1293.82 534.145 1360.06 519.933L1371.74 517.416C1385.66 514.261 1399.2 510.716 1412.26 506.797C1433.91 500.586 1456.31 494.142 1481.51 491.727C1489.61 490.942 1497.71 490.36 1505.6 489.967V485.603C1496.99 486.025 1488.32 486.636 1479.61 487.48C1453 490.04 1429.94 496.673 1407.63 503.074C1394.86 506.907 1381.64 510.375 1368.04 513.46L1356.32 515.976C1290.78 530.086 1216.44 546.087 1147.83 551.6C1083.85 556.764 1062.93 547.556 1040.8 537.796C1025.5 531.061 1009.69 524.108 979.948 521.882C924.37 517.736 910.249 533.039 897.815 546.538C894.07 551.141 889.165 555.504 883.213 559.528C862.89 571.776 841.062 580.62 816.494 586.555C795.524 591.561 777.715 599.191 764.92 608.651C736.799 629.016 727.526 643.563 735.745 654.327C745.831 667.579 780.515 672.379 817.217 677.456C862.739 683.754 909.828 690.271 919.131 712.745C921.131 717.6 922.468 722.512 923.135 727.452H932.168C931.489 722.225 930.101 717.026 928.013 711.887Z" fill="#7C7C7C"/>
<path d="M1505.57 640.45C1496.14 642.384 1486.84 644.333 1477.69 646.268C1419.22 658.531 1364 670.11 1298.94 676.408C1264.16 679.768 1223.67 683.1 1216.93 682.78C1194.04 675.143 1162.73 648.828 1156.71 637.031C1143.73 611.968 1193.62 594.367 1233.73 580.228C1240.5 577.827 1246.91 575.573 1252.81 573.347C1275.06 564.997 1298.52 563.572 1323.36 562.059C1339 561.352 1354.47 559.891 1369.51 557.695C1388.26 554.406 1406.53 550.518 1424.22 546.058C1446.04 540.851 1468.59 535.468 1490.87 532.777C1495.66 532.195 1500.6 531.759 1505.6 531.395V527.031C1499.9 527.413 1494.26 527.938 1488.68 528.602C1465.46 531.41 1442.46 536.894 1420.21 542.203C1402.9 546.569 1385.01 550.374 1366.65 553.593C1352.16 555.706 1337.28 557.114 1322.21 557.797C1297.25 559.324 1271.48 560.895 1247.27 569.987C1241.49 572.154 1235.23 574.351 1228.4 576.78C1186.25 591.69 1133.5 610.237 1147.95 638.166C1154.57 650.996 1186.82 678.387 1212.5 686.663C1213.04 686.838 1213.91 687.114 1217.98 687.114C1225.96 687.114 1246.34 686.009 1300.71 680.758C1366.74 674.372 1422.38 662.706 1481.36 650.341L1505.66 645.279L1505.57 640.45Z" fill="#7C7C7C"/>
<path d="M1505.57 609.32C1494.64 611.342 1483.83 613.437 1473.11 615.503C1428.34 624.23 1382.01 633.176 1332.87 635.329C1299.3 636.784 1279.1 634.893 1277.41 630.093C1273.83 619.91 1337.42 596.941 1374.93 592.403C1410.82 588.039 1448.9 583.122 1484.31 576.286C1489.64 575.253 1496.96 573.973 1505.57 572.562V568.009C1494.43 569.798 1485.7 571.311 1480.97 572.227C1446.04 578.977 1408.32 583.864 1372.73 588.228C1337.15 592.592 1263.47 616.521 1268.53 630.878C1271.27 638.719 1293.37 640.304 1312.04 640.304C1320.83 640.304 1328.84 639.955 1333.68 639.737C1384.14 637.526 1431.08 628.42 1476.48 619.619C1486.09 617.757 1495.78 615.881 1505.57 614.048V609.32Z" fill="#7C7C7C"/>
<path d="M1403.71 727.452H1403.2C1398.43 726.906 1393.46 726.931 1388.72 727.524L1403.71 727.452Z" fill="#7C7C7C"/>
<path d="M1505.57 714.854C1495.62 717.695 1487.82 721.996 1483.29 727.132C1483.2 727.236 1483.13 727.343 1483.08 727.452H1492.89C1495.93 724.596 1500.26 722.109 1505.57 720.178V714.854Z" fill="#7C7C7C"/>
<path d="M1129.82 670.532C1106.31 662.022 1091.74 653.73 1079.51 641.904C1068.86 631.605 1063.2 620.623 1057.72 610.004C1050.73 596.418 1043.48 582.366 1025.74 569.507C1018.34 564.139 1006.71 561.041 991.178 560.284C963.028 558.946 931.806 565.768 926.598 568.285C916.903 572.969 907.871 576.795 899.892 580.169C876.288 590.177 859.247 597.407 849.823 615.619C842.417 629.904 878.486 640.13 916.662 650.952C949.359 660.233 983.17 669.862 988.047 681.616C990.727 687.667 987.716 701.268 984.705 716.949C984.013 720.338 983.29 723.859 982.598 727.452H991.63C992.292 724.004 992.985 720.629 993.647 717.371C997.049 700.657 999.669 687.449 996.989 680.758C991.299 667.04 955.712 656.96 921.299 647.185C886.103 637.22 852.894 627.794 858.645 616.637C867.376 599.749 882.731 593.247 905.914 583.413C913.982 579.995 923.135 576.14 933.01 571.325C936.383 569.696 960.86 564.445 983.832 564.445C986.03 564.445 988.198 564.445 990.335 564.59C1003.01 565.201 1012.43 567.66 1018.28 571.863C1035.14 584.082 1041.85 597.145 1048.99 610.979C1054.59 621.83 1060.34 633.046 1071.45 643.781C1084.36 656.262 1099.72 665.004 1124.4 673.95C1150.45 683.376 1145.84 707.319 1138.68 727.379H1147.71C1155.2 706.417 1159.48 681.281 1129.82 670.532Z" fill="#7C7C7C"/>
<path d="M885.982 479.901C847.053 467.362 787.681 484.265 730.266 500.499C697.93 509.678 667.371 518.333 644.519 520.34C583.942 525.664 528.936 524.18 465.047 520.34C451.8 519.54 436.686 516.747 420.729 513.794C392.578 508.587 363.524 503.219 337.963 507.336C309.301 511.947 301.442 539.338 295.15 561.332C292.139 571.34 289.55 580.809 285.546 584.781C283.86 585.712 274.195 588.185 264.892 590.599C220.844 601.931 129.197 625.51 97.0116 667.39C86.0825 681.601 76.3276 699.261 98.0654 709.749C125.162 722.84 180.891 710.04 214.191 702.403C219.61 701.152 224.307 700.075 228.13 699.29C299.064 684.598 397.847 670.517 465.469 686.853C499.37 695.042 533.572 711.203 559.043 727.481H570.454C543.869 709.763 506.957 692.002 469.503 682.954C446.682 677.441 420.669 675.201 393.451 675.201C336.247 675.201 273.804 685.078 224.578 695.275C220.603 696.09 215.846 697.195 210.307 698.461C179.145 705.603 126.999 717.56 104.448 706.665C86.3836 697.937 95.4159 681.936 105.472 668.917C136.483 628.536 225.993 605.509 269.137 594.425C286.238 590.061 291.748 588.606 293.554 586.803C298.251 582.25 300.961 572.823 304.092 561.914C309.752 542.203 317.49 515.205 340.823 511.452C363.284 507.83 390.832 512.907 417.477 517.853C434.006 520.907 449.572 523.788 463.903 524.66C528.665 528.559 584.334 530.057 646.145 524.66C670.562 522.522 701.784 513.663 734.842 504.295C787.289 489.414 846.752 472.541 880.954 483.552C909.165 492.644 888.24 512.15 874.391 525.053C872.945 526.391 871.591 527.657 870.386 528.821C852.502 546.102 799.784 577.755 761.066 586.061L755.676 587.21C718.403 595.152 656.05 608.448 649.908 629.249C641.719 656.887 693.745 676.597 748.812 697.413C774.283 707.028 799.995 716.789 819.745 727.481H831.788C810.924 715.334 782.291 704.512 754.412 694.024C701.452 674.023 651.444 655.127 658.88 629.933C664.33 611.517 726.141 598.338 759.349 591.268L764.769 590.105C805.866 581.275 859.578 549.098 878.485 530.828L882.429 527.119C896.821 513.62 920.907 491.16 885.982 479.901Z" fill="#7C7C7C"/>
<path d="M686.008 713.443C673.392 704.905 662.192 695.45 651.354 686.3C644.609 680.612 637.625 674.663 630.278 669.135C617.332 659.127 611.551 647.606 605.981 636.449C599.779 624.143 593.396 611.415 577.379 600.578C555.19 585.552 525.654 578.758 497.112 572.067C479.8 568.038 461.856 563.863 445.297 557.87C439.938 555.921 434.037 552.139 427.804 548.138C412.148 538.072 392.639 525.548 365.211 532.137C351 535.57 342.359 539.789 338.806 545.04C332.785 553.768 342.991 563.252 351.873 571.587C358.798 578.06 365.331 584.199 361.688 587.734C355.275 593.93 335.976 596.854 318.935 599.371C311.043 600.44 303.332 601.802 295.873 603.444C280.638 607.124 147.352 640.231 160.96 668.582C161.399 669.819 162.499 670.978 164.152 671.945C165.806 672.913 167.954 673.654 170.384 674.095C188.81 677.383 227.197 664.538 268.264 649.934C275.514 647.195 283.062 644.646 290.875 642.297C347.056 628.74 429.069 620.637 476.368 634.922C564.614 661.571 585.538 680.452 617.212 709.021C623.534 714.723 630.278 720.804 638.016 727.364H648.433C639.642 720.004 632.145 713.254 625.16 706.999C593.969 678.852 571.448 658.516 481.155 631.242C461.254 625.249 437.379 622.936 412.751 622.936C365.873 622.936 316.406 631.3 286.841 638.428C278.487 640.864 270.444 643.541 262.754 646.443C236.892 655.651 188.75 672.772 173.365 670.022C172.344 669.826 171.454 669.499 170.79 669.076C170.127 668.653 169.716 668.15 169.601 667.622C159.816 647.257 250.47 619.285 299.757 607.371C306.801 605.847 314.066 604.573 321.494 603.56C340.221 600.723 361.477 597.509 369.667 589.654C375.387 584.141 367.83 577.057 359.821 569.551C351.813 562.045 342.57 553.404 347.327 546.364C350.067 542.291 357.232 538.901 369.155 536.021C388.363 531.366 402.544 539.178 420.518 550.698C427.142 554.961 433.404 558.99 439.787 561.303C457.039 567.558 475.375 571.82 493.108 575.936C521.891 582.628 549.078 588.941 569.943 603.051C584.996 613.233 590.837 624.972 597.039 637.424C602.79 648.916 608.751 660.785 622.48 671.39C629.616 676.903 636.541 682.751 643.225 688.409C654.184 697.646 665.504 707.203 678.39 715.916C684.707 719.966 691.663 723.774 699.195 727.306L699.375 727.393H711.96C709.883 726.331 707.745 725.284 705.668 724.251C698.565 720.891 691.994 717.278 686.008 713.443Z" fill="#7C7C7C"/>
<path d="M244.72 722.768C232.2 723.444 219.961 725.023 208.41 727.452H239.782C241.679 727.306 243.576 727.175 245.442 727.117C263.032 726.49 280.701 726.602 298.251 727.452H351.602C316.709 723.176 280.636 721.595 244.72 722.768Z" fill="#7C7C7C"/>
<path d="M213.619 493.546C204.105 491.073 195.132 488.731 187.124 486.403C170.293 481.329 154.198 475.706 138.952 469.573C101.678 455.245 66.4223 441.702 0.185547 443.797V448.161C63.4116 446.095 95.8074 458.562 133.291 472.992C148.863 479.241 165.289 484.975 182.457 490.156C190.677 492.527 199.739 494.884 209.343 497.43C231.804 503.248 255.047 509.328 269.017 516.078C271.696 517.373 271.154 522.624 270.883 525.155C270.883 526.1 270.703 526.959 270.703 527.642C270.703 545.811 260.737 561.754 212.113 580.562C203.081 584.053 192.092 586.061 180.47 588.17C167.855 590.483 154.788 592.868 144.13 597.363C64.3148 631.067 -20.5586 680.612 19.9362 727.452H29.8115C-12.1887 682.503 71.5707 633.802 150.242 600.607C159.636 596.621 171.317 594.483 183.812 592.214C195.584 590.061 207.898 587.85 217.894 583.922C255.107 569.536 279.885 554.466 279.885 527.599C279.885 526.973 279.885 526.144 280.066 525.33C280.518 520.966 281.06 515.613 275.55 512.951C260.496 505.75 236.681 499.553 213.619 493.546Z" fill="#7C7C7C"/>
<path d="M0.185547 610.251V615.153C2.19345 615.735 4.05284 616.428 5.72535 617.219C7.95332 618.31 8.73612 620.768 7.47159 624.129C5.94967 627.991 3.50461 631.754 0.185547 635.344V645.366C7.95332 638.37 14.3964 630.747 16.3835 624.827C18.0394 619.896 16.5942 616.303 12.1082 614.135C8.64949 612.505 4.61066 611.189 0.185547 610.251Z" fill="#7C7C7C"/>
<path d="M99.872 512.281C93.8504 507.365 87.6483 502.273 75.4848 498.753C57.661 493.589 31.1964 490.665 0.215684 490.345V494.709C27.4932 495.029 53.446 497.43 70.8783 502.477C81.0547 505.386 86.4138 509.75 92.1042 514.492C95.2717 517.232 98.8437 519.857 102.792 522.348C125.433 536.021 133.502 547.076 126.879 555.222C114.173 570.496 52.332 574.976 0.426437 578.307V582.671C55.0116 579.166 120.616 574.511 135.339 556.808C143.528 546.96 135.339 534.785 110.078 519.569C106.32 517.261 102.909 514.825 99.872 512.281Z" fill="#7C7C7C"/>
<path d="M779.973 208.931C773.711 207.811 767.93 206.545 762.27 205.324C748.601 202.342 735.685 199.505 718.253 198.778C673.543 196.814 618.897 200.916 561.181 205.251C460.983 212.786 357.352 220.554 282.505 199.898C227.769 184.784 200.913 158.251 174.93 132.606C149.64 107.659 125.795 84.094 78.5858 70.3913C56.6374 64.02 29.0287 61.6635 0.305977 62.0417V66.4056C25.1448 66.1001 52.1513 67.8602 74.0998 74.1443C119.081 87.236 142.384 110.19 167.042 134.541C193.627 160.724 221.236 187.912 278.26 203.694C355.877 225.121 465.8 216.786 562.807 209.513C620.011 205.149 674.205 201.149 717.681 203.069C733.607 203.767 745.861 206.429 758.808 209.237C764.558 210.488 770.519 211.782 777.023 212.96C839.466 224.278 874.3 235.173 893.539 249.414C914.855 265.197 918.589 286.172 905.582 317.447C898.778 333.841 885.35 346.773 871.139 360.461C861.393 369.422 852.737 378.65 845.217 388.099C840.541 394.719 836.592 401.454 833.384 408.275C826.219 422.327 818.812 436.844 799.363 447.55C742.67 478.868 658.098 496.702 554.798 499.146C466.824 501.212 368.131 491.655 284.07 472.963C253.09 466.126 223.584 456.889 195.132 447.899C156.745 435.826 117.274 423.345 72.4439 416.159C51.3685 412.755 26.9211 411.679 0.185547 412.901V417.264C26.0781 416.043 49.532 417.046 69.674 420.29C113.3 427.316 152.41 439.637 190.105 451.55C218.918 460.598 248.574 469.981 280.187 477.021C358.857 494.408 444.235 503.578 530.742 503.932C538.972 503.932 547.111 503.835 555.16 503.641C660.958 501.153 747.848 482.796 806.077 450.561C826.971 439.04 834.649 423.985 842.055 409.438C845.183 402.769 849.042 396.185 853.617 389.714C861.013 380.405 869.528 371.312 879.118 362.483C892.967 349.129 907.329 335.339 914.344 318.364C927.802 285.882 923.647 263.902 900.946 247.086C880.593 232.002 844.464 220.597 779.973 208.931Z" fill="#7C7C7C"/>
<path d="M643.616 238.693C604.687 233.995 565.637 236.977 527.852 239.857C516.562 240.715 504.91 241.602 493.529 242.271C483.985 242.824 474.381 243.406 464.746 243.988C387.219 248.686 307.073 253.545 231.111 245.21C169.932 238.533 97.2526 213.44 81.4762 183.082C77.3213 175.053 77.8632 165.626 78.4654 155.444C79.6998 134.032 81.1149 109.754 29.2093 100.342C19.8907 98.745 10.0733 97.9332 0.185547 97.9422V102.306C9.01085 102.3 17.7715 103.033 26.0781 104.473C71.932 112.794 70.7277 133.464 69.4632 155.386C68.8912 165.292 68.3191 175.518 72.7751 184.144C82.6504 203.214 111.223 217.601 133.472 226.329C161.803 237.471 196.698 245.893 229.124 249.457C306.621 257.967 387.58 253.065 465.86 248.323C475.495 247.726 485.099 247.159 494.583 246.606C506.144 245.937 517.886 245.035 529.267 244.162C566.149 241.355 604.295 238.446 641.418 242.926C679.745 247.552 719.306 259.596 747.246 275.146C777.926 292.195 791.866 311.512 786.386 329.622C777.986 358.09 744.747 382.979 687.573 403.576C585.207 440.422 434.669 452.743 338.625 445.877C295.24 442.808 254.746 432.916 215.545 423.432C200.823 419.839 185.438 416.159 170.384 412.828C146.75 407.693 125.674 398.281 103.334 388.361C72.4439 374.44 40.4093 360.243 0.185547 357.682V362.134C37.3384 364.81 67.717 378.338 97.3128 391.43C119.171 401.176 141.812 411.257 166.771 416.683C181.825 419.926 196.879 423.621 211.481 427.2C251.313 436.917 292.47 446.968 337.421 450.183C435.301 457.18 588.88 444.626 693.113 407.067C751.431 386.048 786.808 359.472 795.479 330.219C801.169 310.872 786.446 290.289 754.081 272.266C724.967 256.149 683.629 243.581 643.616 238.693Z" fill="#7C7C7C"/>
<path d="M422.325 288.82C403.206 285.125 383.185 281.547 363.886 278.099C325.348 271.19 285.305 264.047 250.079 255.567C238.879 252.861 224.186 253.138 209.976 253.414C201.951 253.713 193.885 253.64 185.889 253.196C165.175 251.523 139.795 244.715 119.984 238.984C85.059 228.801 42.6674 204.393 35.1405 182.529C33.4846 177.773 32.6115 172.696 31.648 167.328C28.9082 151.415 25.777 133.624 0.185547 123.515V129.595C17.6179 138.89 20.2071 153.48 22.7061 167.721C23.6695 173.176 24.6028 178.325 26.2889 183.257C34.2674 206.356 78.7364 232.118 115.407 242.737C135.881 248.672 162.225 255.727 184.474 257.516C193.096 258.014 201.798 258.106 210.457 257.792C223.524 257.545 237.042 257.283 246.165 259.48C281.692 268.062 321.886 275.248 360.755 282.201C380.023 285.649 399.895 289.213 418.983 292.893C456.075 300.064 519.783 325.433 509.306 348.358C502.08 364.097 474.2 375.051 452.101 381.451C425.079 389.077 395.378 394.23 364.488 396.652C283.529 402.674 155.842 369.698 62.6288 345.638C43.5405 340.707 25.5362 336.066 10.2716 332.372C6.86944 331.543 3.49739 330.743 0.185547 329.957V334.83L6.20707 336.285C21.2609 339.95 39.3255 344.591 58.3234 349.493C144.853 371.836 260.677 401.743 344.045 401.743C351.331 401.758 358.609 401.5 365.813 400.972C419.284 397.001 503.916 379.967 518.007 349.304C529.839 323.629 463.06 296.689 422.325 288.82Z" fill="#7C7C7C"/>
<path d="M223.163 276.514L217.141 275.743L198.414 273.328C145.124 266.491 72.1428 257.138 35.833 242.14C22.4652 236.496 9.63934 226.765 0.185547 216.699V226.459C8.82644 234.009 19.1534 240.86 30.2932 245.37C68.0783 261.007 142.203 270.52 196.337 277.459C202.93 278.303 209.193 279.103 215.004 279.874L221.025 280.645C252.879 284.747 280.397 288.296 273.322 307.09C270.311 314.698 260.767 321.36 245.292 326.364C221.958 333.914 186.371 337.187 158.732 334.321C114.986 329.884 72.4439 313.04 31.4674 296.733C20.9297 292.558 10.392 288.427 0.185547 284.529V290.085C8.61568 293.329 17.1361 296.704 25.7469 300.108C67.6266 316.734 110.952 333.928 156.655 338.656C164.356 339.44 172.208 339.826 180.079 339.805C204.859 339.851 229.149 336.469 250.079 330.059C267.632 324.386 278.651 316.734 281.963 307.934C290.604 285.241 254.776 280.572 223.163 276.514Z" fill="#7C7C7C"/>
</g>
</svg>
