<svg width="431" height="412" viewBox="0 0 431 412" fill="none" xmlns="http://www.w3.org/2000/svg">
<g opacity="0.4">
<path d="M257.573 -49.2679C258.968 -45.817 260.594 -42.68 262.163 -40.0488C265.198 -34.9554 269.659 -32.1028 274.645 -31.0816C279.18 -30.1527 283.727 -30.8206 287.361 -31.6376C289.999 -32.2309 292.843 -33.0833 295.266 -33.8098C296.129 -34.0681 296.938 -34.3108 297.666 -34.5201C300.885 -35.4455 302.881 -35.8427 304.159 -35.8357C308.394 -35.8133 313.08 -35.2309 316.721 -33.7542C320.244 -32.3254 321.763 -30.5526 322.266 -28.4454C325.664 -14.231 332.851 1.86606 348.436 10.4394C359.794 16.6874 372.16 14.7149 381.648 11.6301C386.163 10.1623 390.057 8.2399 393.492 6.46006C394.18 6.10332 394.842 5.75681 395.486 5.41982L395.495 5.41509C398.189 4.00479 400.562 2.76308 403.174 1.6543L410.834 -1.5953L404.935 -15.4975L402.378 -16.0835L396.675 -13.6639C393.379 -12.2654 390.282 -10.6422 387.551 -9.21053C386.962 -8.90133 386.389 -8.60104 385.835 -8.31385C382.578 -6.62579 379.671 -5.22462 376.503 -4.19451C368.517 -1.59796 361.743 -1.23214 356.456 -4.14041C347.381 -9.13245 341.931 -18.9399 338.87 -30.6375L257.573 -49.2679Z" fill="#0B7A38" fill-opacity="0.1"/>
<path d="M488.476 49.2837C481.829 42.6635 472.011 37.3983 462.094 36.2446C453.115 35.2002 444.293 38.548 437.624 42.8446C431.046 47.0832 424.981 53.2691 422.421 59.8702C418.107 70.9863 417.49 87.4171 427.554 99.6171C433.038 106.263 440.704 110.579 447.209 114.012C448.335 114.607 449.428 115.176 450.489 115.728L450.491 115.729C456.07 118.635 460.756 121.076 464.601 124.21C467.102 126.247 468.798 128.339 469.894 130.37L474.393 110.734C469.24 106.696 463.096 103.512 457.811 100.774C456.832 100.267 455.883 99.7748 454.975 99.2962C448.394 95.823 443.521 92.8234 440.39 89.0279C435.346 82.9126 435.026 73.382 437.933 65.8898C438.784 63.6982 441.793 59.9537 446.637 56.8323C451.391 53.7692 456.34 52.3276 460.171 52.7732C466.997 53.5673 474.411 57.9808 478.308 62.8132C478.564 63.1313 478.93 63.8079 479.221 65.288C479.462 66.5182 479.557 67.6838 479.682 69.2103L479.681 69.2117C479.72 69.6893 479.762 70.2023 479.812 70.7636L480.551 79.0508L481.677 78.9503L488.476 49.2837Z" fill="#0B7A38" fill-opacity="0.1"/>
<path d="M465.566 149.25C463.152 151.362 459.953 153.321 456.236 154.599C450.069 156.719 443.507 156.622 437.813 153.251C433.388 150.633 432.348 147.641 432.375 144.496C432.408 140.673 434.152 136.09 436.729 131.971L441.141 124.917L427.033 116.093L422.621 123.147C419.209 128.603 415.805 136.246 415.736 144.354C415.661 153.142 419.565 161.788 429.337 167.571C439.766 173.744 451.163 173.676 460.66 170.661L465.566 149.25Z" fill="#0B7A38" fill-opacity="0.1"/>
<path d="M440.65 257.982C440.024 254.7 439.95 251.089 440.57 248.384C440.841 247.204 441.314 245.964 442.064 244.179C442.135 244.012 442.208 243.838 442.284 243.658L442.317 243.579C442.974 242.028 443.837 239.99 444.476 237.853C447.002 229.396 447.875 220.486 444.305 211.198C442.23 205.799 438.588 198.934 431.549 195.189C426.172 192.329 419.608 191.728 415.544 191.356L415.535 191.354C415.097 191.314 414.688 191.277 414.314 191.239C408.826 190.693 404.376 189.656 400.415 187.428C396.496 185.223 393.956 181.742 393.547 176.609C392.827 167.578 388.453 154.976 376.862 150.652C368.559 147.556 359.606 150.099 353.056 154.211C346.389 158.396 340.352 165.314 338.402 173.823C336.357 182.745 337.167 192.761 339.087 200.992C340.061 205.172 341.38 209.143 342.941 212.536C344.411 215.732 346.437 219.172 349.178 221.555C352.822 224.72 356.83 226.835 360.483 228.462C362.31 229.275 364.138 230.004 365.815 230.665L366.396 230.895C367.891 231.484 369.251 232.021 370.58 232.588C374.936 234.447 379.104 236.796 383.057 239.607C389.948 244.507 393.358 252.359 392.522 263.342C388.67 280.502 389.229 293.703 392.999 304.711C396.785 315.76 403.515 323.681 410.013 330.507C412.377 332.991 415.694 334.962 418.857 336.414C419.967 336.923 421.135 337.404 422.347 337.847L426.109 321.431C426.005 321.385 425.901 321.338 425.798 321.291C423.51 320.24 422.348 319.331 422.065 319.035C415.983 312.645 411.325 306.86 408.742 299.319C406.188 291.864 405.369 281.769 408.875 266.467L409.004 265.908L409.054 265.336C410.427 249.7 405.634 235.243 392.7 226.046C387.811 222.57 382.603 219.627 377.111 217.283C375.554 216.619 373.966 215.993 372.497 215.414L371.925 215.188C370.252 214.527 368.72 213.914 367.251 213.26C364.31 211.951 361.973 210.627 360.091 208.993C360.093 208.995 360.094 208.995 360.094 208.994L360.091 208.993L360.09 208.991C360.058 208.958 359.829 208.725 359.454 208.159C359.044 207.54 358.566 206.685 358.059 205.582C357.041 203.369 356.056 200.488 355.292 197.212C353.733 190.529 353.321 183.216 354.621 177.54C355.362 174.306 358.029 170.736 361.903 168.304C365.894 165.799 369.316 165.598 371.046 166.243C373.466 167.146 376.423 171.193 376.96 177.93C377.836 188.93 383.817 197.181 392.256 201.93C399.052 205.754 406.079 207.141 412.663 207.797L413.239 207.855C418.256 208.353 421.464 208.672 423.734 209.88C425.392 210.762 427.149 212.944 428.773 217.169C430.578 221.866 430.426 226.75 428.531 233.092C428.173 234.291 427.689 235.44 426.993 237.09C426.907 237.296 426.817 237.511 426.723 237.734C425.957 239.559 424.972 241.958 424.351 244.667C423.036 250.406 423.398 256.674 424.414 261.654C425.87 268.791 430.986 274.531 434.933 277.696C435.268 277.965 435.601 278.255 435.933 278.563L440.65 257.982Z" fill="#0B7A38" fill-opacity="0.1"/>
<path d="M417.751 357.903C416.311 356.937 414.713 355.758 412.888 354.319C408.54 350.891 402.71 346.709 396.177 343.825C389.684 340.958 381.627 338.991 373.322 341.277C359.75 345.014 349.818 356.794 345.019 369.3C341.751 377.815 340.465 387.709 342.558 396.991L363.364 401.76C362.561 401.181 362.013 400.645 361.714 400.204C357.442 393.902 357.017 384.477 360.554 375.261C364.104 366.009 370.783 359.235 377.739 357.321C380.896 356.451 384.788 356.986 389.456 359.047C394.084 361.09 398.625 364.263 402.586 367.386C406.332 370.341 409.982 372.942 413.856 374.9L417.751 357.903Z" fill="#0B7A38" fill-opacity="0.1"/>
<path d="M312.008 389.991L311.408 388.577L309.455 389.406L312.008 389.991Z" fill="#0B7A38" fill-opacity="0.1"/>
<path d="M223.628 65.6184C225.375 64.9867 228.626 65.4246 233.246 67.6417C241.163 71.4395 244.034 76.688 243.485 81.1962C242.941 85.6706 241.888 90.0948 240.702 95.0743L240.585 95.5664C239.392 100.582 238.083 106.163 237.496 112.006C236.615 120.759 235.694 134.511 248.742 143.748C251.68 145.829 255.994 147.789 260.031 149.153C263.883 150.456 269.046 151.759 273.471 151.335C282.291 150.488 287.592 144.653 290.743 139.702C292.33 137.208 293.59 134.608 294.597 132.439C294.901 131.782 295.174 131.186 295.424 130.637C296.083 129.197 296.591 128.085 297.129 127.082C299.777 122.136 304.275 115.256 309.45 111.247C311.958 109.304 314.082 108.463 315.801 108.334C317.281 108.224 319.351 108.565 322.178 110.867C326.781 114.62 328.744 119.868 328.616 125.771C328.484 131.853 326.09 138.156 322.528 142.707C311.482 156.819 291.597 161.147 268.54 160.568C259.056 160.331 249.824 159.299 240.202 158.223L240.201 158.223C235.557 157.704 230.822 157.175 225.924 156.72C218.216 156.004 209.148 155.358 200.364 156.202C191.599 157.045 182.306 159.438 174.711 165.465C169.242 169.806 165.767 175.59 165.382 182.444C165.013 189.014 167.555 195.307 171.439 200.875C175.236 206.319 181.666 210.016 187.877 212.636C194.362 215.371 201.947 217.475 209.471 219.059C224.457 222.215 240.421 223.557 249.354 223.289C261.888 222.914 298.688 223.555 310.804 224.921L319.071 225.854L320.936 209.319L312.669 208.387C299.42 206.892 261.726 206.272 248.856 206.657C241.469 206.878 226.838 205.712 212.899 202.777C205.959 201.315 199.497 199.478 194.344 197.304C188.916 195.015 186.117 192.833 185.087 191.356C182.492 187.636 181.905 184.988 181.996 183.377C182.07 182.051 182.645 180.412 185.055 178.5C189.139 175.258 194.831 173.451 201.956 172.766C209.061 172.083 216.788 172.583 224.385 173.288C228.614 173.682 232.992 174.169 237.459 174.667L237.461 174.668L237.463 174.668C247.469 175.783 257.917 176.948 268.122 177.203C292.191 177.807 319.401 173.7 335.632 152.963C341.304 145.715 345.039 135.973 345.252 126.13C345.468 116.107 341.989 105.547 332.689 97.9686C327.031 93.3565 320.855 91.272 314.564 91.7398C308.511 92.1913 303.339 94.9323 299.26 98.0922C291.261 104.289 285.425 113.691 282.46 119.226C281.653 120.734 280.829 122.537 280.105 124.121L280.103 124.127C279.894 124.586 279.692 125.026 279.502 125.436C278.558 127.469 277.675 129.244 276.705 130.768C274.739 133.856 273.266 134.639 271.88 134.771C271.126 134.844 268.759 134.54 265.361 133.39C262.146 132.303 259.486 130.967 258.356 130.167C253.682 126.858 253.163 122.507 254.052 113.669C254.513 109.084 255.559 104.524 256.773 99.417L256.96 98.6345C258.089 93.8939 259.342 88.6388 260.003 83.2063C261.77 68.6898 251.66 58.0192 240.444 52.639C235.282 50.162 226.518 46.8791 217.969 49.9705C208.826 53.2766 202.257 59.9588 198.197 67.0903C192.371 77.3227 187.486 87.3482 182.822 97.9459C180.3 103.674 177.591 109.398 174.72 114.921C174.538 115.271 174.342 115.665 174.171 116.007L174.071 116.208C173.862 116.624 173.665 117.014 173.461 117.4C173.279 117.743 173.104 118.057 172.938 118.34L172.924 118.317C171.939 116.791 171.257 114.609 171.008 113.075C170.108 107.534 170.589 101.882 171.177 94.9921C171.242 94.2142 171.311 93.4206 171.378 92.6098C172.001 85.0782 172.548 76.1522 169.85 67.1374C167.467 59.1748 161.717 48.6965 149.193 45.8265C141.124 43.9774 133.929 46.8439 128.716 50.3217C123.485 53.8123 119.321 58.4943 116.63 62.2632C107.006 75.7402 104.462 92.3028 102.39 105.793L102.39 105.794C102.271 106.571 102.153 107.338 102.035 108.093C99.4867 124.482 101.998 141.421 104.225 156.449L104.225 156.451C104.413 157.72 104.6 158.977 104.78 160.218L105.981 168.451L122.447 166.051L121.246 157.818C121.085 156.712 120.923 155.612 120.763 154.517C118.469 138.924 116.336 124.423 118.478 110.649L118.635 109.637C120.901 95.0458 122.911 82.1004 130.172 71.933C132.076 69.2674 134.869 66.2202 137.951 64.1643C141.051 62.0955 143.525 61.5989 145.476 62.046C149.433 62.9528 152.252 66.3721 153.908 71.9079C155.617 77.6181 155.417 83.7155 154.794 91.237C154.73 92.0135 154.66 92.8108 154.589 93.6268C154.012 100.224 153.329 108.025 154.582 115.743C155.082 118.816 156.37 123.349 158.938 127.334C161.519 131.336 166.418 136.173 174.062 135.943C180.242 135.758 184.027 131.492 185.782 129.075C187.328 126.949 188.603 124.372 189.216 123.133C189.33 122.904 189.42 122.721 189.486 122.595C192.546 116.705 195.409 110.653 198.051 104.649C202.542 94.4467 207.177 84.951 212.658 75.3233C215.181 70.8919 218.936 67.3156 223.628 65.6184Z" fill="#0B7A38" fill-opacity="0.1"/>
<path d="M343.384 48.2754L353.099 34.7653L359.854 39.6224C382.513 55.9143 402.835 86.6276 390.735 118.631L387.792 126.413L372.228 120.529L375.17 112.746C383.345 91.1245 370.168 67.533 350.139 53.1325L343.384 48.2754Z" fill="#0B7A38" fill-opacity="0.1"/>
<path fill-rule="evenodd" clip-rule="evenodd" d="M294.906 269.485L295.124 269.513C311.726 271.592 322.657 272.961 332.335 282.75C335.272 285.721 337.332 290.319 338.261 296.025C339.181 301.68 338.866 307.744 337.704 312.815C335.858 320.871 328.936 328.653 320.7 332.976C313.632 336.686 307.945 338.509 303.282 338.346C299.237 338.205 294.974 336.539 290.424 330.594C289.892 329.899 289.369 329.224 288.857 328.564C286.015 324.894 283.536 321.696 282.028 318.35C280.488 314.933 280.613 312.863 282.088 310.733C283.61 308.537 286.749 306.12 290.927 304.461C295.093 302.805 299.134 302.365 301.873 302.891C304.087 303.316 306.33 303.978 307.97 304.863C309.045 305.443 309.396 305.853 309.485 305.983L311.428 313.977L327.597 310.048L325.632 301.964C324.14 295.822 319.564 292.211 315.874 290.219C312.11 288.188 308 287.123 305.008 286.549C298.323 285.266 290.994 286.529 284.784 288.995C278.585 291.458 272.34 295.583 268.41 301.258C262.52 309.759 263.825 318.461 266.858 325.189C269.26 330.516 273.174 335.529 275.955 339.091L275.956 339.093C276.408 339.672 276.83 340.212 277.211 340.709C284.36 350.048 293.022 354.638 302.701 354.977C311.764 355.293 320.603 351.82 328.434 347.71C339.768 341.76 350.722 330.504 353.924 316.532C355.535 309.502 355.973 301.266 354.685 293.353C353.406 285.49 350.3 277.253 344.169 271.051C330.384 257.108 314.16 255.101 298.966 253.221L297.646 253.058C297.422 253.03 297.198 253.002 296.975 252.974C280.75 250.941 265.675 253.006 250.826 260.825C238.984 267.06 227.751 274.012 219.449 287.15L215.004 294.183L229.07 303.072L233.515 296.039C239.399 286.728 247.365 281.452 258.579 275.549C270.028 269.521 281.6 267.818 294.906 269.485ZM309.51 306.026C309.51 306.026 309.505 306.019 309.499 306.004C309.508 306.018 309.511 306.025 309.51 306.026Z" fill="#0B7A38" fill-opacity="0.1"/>
<path d="M84.0762 182.139L92.1859 183.997C111.923 188.52 123.424 203.569 128.158 220.826C130.017 227.598 130.733 234.887 131.198 241.79C131.351 244.08 131.478 246.302 131.601 248.48C131.867 253.146 132.121 257.611 132.615 262.108C134.048 275.161 137.227 284.849 145.673 291.033L152.386 295.948L142.556 309.374L135.843 304.459C121.519 293.97 117.635 278.141 116.074 263.924C115.531 258.98 115.235 253.785 114.957 248.904L114.956 248.9L114.957 248.898L114.957 248.897L114.956 248.887C114.839 246.824 114.724 244.817 114.596 242.909C114.142 236.186 113.503 230.298 112.111 225.229C108.534 212.192 100.701 203.02 88.469 200.217L80.3592 198.358L84.0762 182.139Z" fill="#0B7A38" fill-opacity="0.1"/>
<path fill-rule="evenodd" clip-rule="evenodd" d="M205.035 10.1643C198.151 -1.26076 190.082 -13.9271 175.247 -21.4482C168.1 -25.0722 158.139 -30.0533 146.831 -28.8298C136.26 -27.6861 128.727 -22.335 122.915 -16.2705C120.06 -13.2915 117.535 -10.0529 115.255 -7.00488C114.484 -5.97374 113.756 -4.98585 113.05 -4.02732L113.049 -4.02606L113.048 -4.0244L113.047 -4.02293L113.045 -4.02096L113.04 -4.01394C111.566 -2.01304 110.185 -0.139775 108.702 1.73291C104.943 6.48084 100.113 14.4577 104.135 24.2265C105.788 28.2406 109.034 31.1801 111.982 33.0045C114.949 34.841 118.93 36.3654 123.086 36.2038C129.248 35.9643 135.885 32.7052 139.443 30.7022C142.084 29.2153 144.052 27.0885 145.123 25.9307L145.232 25.813L145.321 25.7166C146.659 24.2785 147.057 23.9446 147.339 23.7823C148.55 23.0884 149.66 22.9895 151.63 23.9299C153.963 25.0441 156.548 27.2685 159.251 30.1321C159.681 30.5864 160.144 31.1432 160.861 32.0042L161.021 32.1962C161.749 33.0689 162.698 34.2005 163.758 35.2902C165.724 37.3096 169.18 40.3823 174.134 41.0755C181.321 42.0806 189.634 40.3716 195.852 36.4345C199.171 34.3347 202.61 30.8746 204.802 26.808C206.959 22.8074 208.774 16.3704 205.035 10.1643ZM167.723 -6.60653C177.724 -1.53595 183.68 7.00362 190.465 18.2267C190.403 18.4034 190.305 18.6336 190.155 18.9109C189.816 19.5408 189.302 20.246 188.665 20.9195C188.024 21.5972 187.399 22.0924 186.952 22.3757C184.235 24.0954 180.087 25.0123 176.752 24.6348C176.596 24.5283 176.247 24.2629 175.682 23.6828C175.118 23.1046 174.538 22.4238 173.803 21.5417L173.592 21.2876C172.963 20.5324 172.159 19.5653 171.351 18.7093C168.309 15.4869 164.003 11.3989 158.801 8.91457C153.236 6.25662 146.169 5.27274 139.063 9.34675C136.382 10.8834 134.41 13.0109 133.307 14.2007C133.248 14.264 133.192 14.3246 133.138 14.3822C132.494 15.0746 132.112 15.4803 131.748 15.8177C131.42 16.1215 131.28 16.2022 131.28 16.2022C127.954 18.0747 124.37 19.4788 122.489 19.5743C122.454 19.5698 122.309 19.5511 122.054 19.4712C121.673 19.3523 121.209 19.1462 120.739 18.8558C120.268 18.5635 119.901 18.2558 119.662 18.003C119.566 17.9016 119.51 17.8289 119.481 17.7909C119.206 17.0738 119.227 16.5767 119.42 15.9424C119.694 15.0407 120.371 13.8012 121.748 12.063C123.413 9.95984 125.081 7.69695 126.644 5.57642L126.646 5.57387C127.313 4.66899 127.961 3.79023 128.581 2.9613C130.759 0.0481984 132.796 -2.53175 134.929 -4.75718C139.093 -9.10173 143.237 -11.7038 148.621 -12.2864C154.364 -12.9077 160.11 -10.4664 167.723 -6.60653Z" fill="#0B7A38" fill-opacity="0.1"/>
<path d="M158.269 213.193L161.033 221.04C165.659 234.174 172.746 243.429 183.912 253.359C186.042 255.254 189.722 256.472 193.676 256.406L201.996 256.265L202.276 272.903L193.957 273.043C187.073 273.16 178.922 271.19 172.853 265.793C160.19 254.532 151.137 243.034 145.338 226.568L142.574 218.72L158.269 213.193Z" fill="#0B7A38" fill-opacity="0.1"/>
<path d="M76.9635 95.7514L74.2003 87.9038L58.5047 93.4307L61.268 101.278C63.4614 107.508 63.4905 113.347 63.5264 120.527C63.5341 122.055 63.542 123.645 63.5711 125.312C63.7411 135.021 62.9126 141.677 57.4898 146.658L51.3622 152.286L62.6186 164.541L68.7459 158.913C80.0497 148.531 80.3804 134.838 80.2085 125.02C80.1874 123.816 80.1868 122.538 80.1861 121.196C80.1822 113.956 80.1775 104.879 76.9635 95.7514Z" fill="#0B7A38" fill-opacity="0.1"/>
<path d="M272.04 5.19131C265.447 1.48138 260.747 -0.979258 254.836 -1.97276C251.904 -2.46564 248.635 -2.29474 244.774 -1.69064C242.854 -1.39036 240.898 -1.00232 238.804 -0.573876C238.508 -0.513398 238.208 -0.451981 237.906 -0.389664C236.121 -0.0229391 234.22 0.367443 232.346 0.699844L224.154 2.15269L221.249 -14.2316L229.44 -15.6846C231.074 -15.974 232.725 -16.313 234.519 -16.6816C234.83 -16.7457 235.147 -16.8106 235.468 -16.8763C237.581 -17.3085 239.867 -17.7653 242.202 -18.1305C246.848 -18.8577 252.131 -19.3009 257.594 -18.3827C266.692 -16.8535 273.676 -12.9819 280.201 -9.31028C288.241 -4.78587 294.807 0.0931707 301.483 6.32939C304.254 8.91767 306.771 11.1101 309.223 12.6033L316.329 16.931L307.673 31.1426L300.568 26.8152C296.53 24.356 292.937 21.117 290.124 18.4894C284.366 13.1113 278.866 9.03243 272.04 5.19131Z" fill="#0B7A38" fill-opacity="0.1"/>
</g>
</svg>
