<svg width="21" height="22" viewBox="0 0 21 22" fill="none" xmlns="http://www.w3.org/2000/svg">
<path fill-rule="evenodd" clip-rule="evenodd" d="M4.494 6.03496L16.494 5.99696C16.9986 5.99544 17.4852 6.18475 17.8561 6.52692C18.227 6.86909 18.4549 7.33883 18.494 7.84196L18.5 7.99696V14C18.5 14.5304 18.2893 15.0391 17.9142 15.4142C17.5391 15.7892 17.0304 16 16.5 16H4.5C3.96957 16 3.46086 15.7892 3.08579 15.4142C2.71071 15.0391 2.5 14.5304 2.5 14V8.03496C2.5 7.50556 2.70989 6.99776 3.08366 6.62286C3.45744 6.24796 3.96461 6.03655 4.494 6.03496Z" stroke="white" stroke-linecap="round" stroke-linejoin="round"/>
<path fill-rule="evenodd" clip-rule="evenodd" d="M9.5 13L12.5 11L9.5 9V13Z" fill="white" stroke="white" stroke-linecap="round" stroke-linejoin="round"/>
</svg>
