<svg width="585" height="12" viewBox="0 0 585 12" fill="none" xmlns="http://www.w3.org/2000/svg">
<path d="M2.2793 9L3.52734 1.96289H1.00195L1.16602 1.03125H7.24805L7.08398 1.96289H4.55859L3.31641 9H2.2793ZM11.7073 6.29883H6.75023V6.32812C6.75023 7.42383 7.38305 8.23242 8.62523 8.23242C9.3518 8.23242 10.0432 7.85156 10.342 7.20117H11.4143C10.9866 8.36719 9.77953 9.16406 8.53734 9.16406C6.82055 9.16406 5.74242 7.9043 5.74242 6.36328C5.74242 4.74609 7.01391 2.85938 9.22289 2.85938C10.9866 2.85938 11.8186 4.125 11.8186 5.39648C11.8186 5.64844 11.7776 6.00586 11.7073 6.29883ZM9.14672 3.79102C8.06273 3.79102 7.18383 4.49414 6.87328 5.50781H10.8166C10.887 5.03906 10.553 3.79102 9.14672 3.79102ZM15.1177 9.16992C13.4067 9.16992 12.311 7.91602 12.311 6.375C12.311 4.75195 13.5942 2.85352 15.8325 2.85352C17.4028 2.85352 18.2993 3.79102 18.4458 4.98047H17.438C17.2563 4.20703 16.6235 3.80273 15.7446 3.80273C14.3677 3.80273 13.3364 4.91602 13.3364 6.28125C13.3364 7.33008 13.9634 8.22656 15.2407 8.22656C15.9321 8.22656 16.6821 7.82812 17.063 6.99609H18.1059C17.643 8.39062 16.3481 9.16992 15.1177 9.16992ZM18.8386 9L20.2917 0.75H21.3171L20.8308 3.52148L20.6902 4.18359C21.1941 3.38672 22.0964 2.85352 23.0515 2.85352C24.4988 2.85352 25.3659 3.81445 24.9851 6.01758L24.4636 9H23.4323L23.9538 6.03516C24.2468 4.3418 23.5613 3.79688 22.6823 3.79688C21.7273 3.79688 20.6433 4.58203 20.4206 5.85938L19.864 9H18.8386ZM26.0517 9L27.1064 3.02344H28.0908L27.8798 4.21289C28.3603 3.41016 29.3095 2.85352 30.2646 2.85352C31.7119 2.85352 32.5849 3.81445 32.1982 6.01758L31.6767 9H30.6513L31.167 6.03516C31.4599 4.3418 30.7744 3.79688 29.8955 3.79688C28.9404 3.79688 27.8564 4.58203 27.6338 5.85938L27.0771 9H26.0517ZM36.0539 9.16992C34.3371 9.16992 33.2531 7.91602 33.2531 6.36328C33.2531 4.72852 34.5422 2.85352 36.7687 2.85352C38.4973 2.85352 39.5812 4.11328 39.5812 5.66016C39.5812 7.44141 38.1281 9.16992 36.0539 9.16992ZM36.1594 8.2207C37.5012 8.2207 38.5617 7.03711 38.5617 5.74219C38.5617 4.69336 37.9172 3.80273 36.6867 3.80273C35.3273 3.80273 34.2727 4.92188 34.2727 6.28125C34.2727 7.33594 34.9113 8.2207 36.1594 8.2207ZM40.1733 9L41.6264 0.738281H42.6577L41.1987 9H40.1733ZM45.652 9.16992C43.9352 9.16992 42.8512 7.91602 42.8512 6.36328C42.8512 4.72852 44.1403 2.85352 46.3669 2.85352C48.0954 2.85352 49.1794 4.11328 49.1794 5.66016C49.1794 7.44141 47.7262 9.16992 45.652 9.16992ZM45.7575 8.2207C47.0993 8.2207 48.1598 7.03711 48.1598 5.74219C48.1598 4.69336 47.5153 3.80273 46.2848 3.80273C44.9255 3.80273 43.8708 4.92188 43.8708 6.28125C43.8708 7.33594 44.5095 8.2207 45.7575 8.2207ZM52.0331 11.25C49.4491 11.25 49.4609 9.48047 49.5253 9.03516H50.4804C50.4745 9.75586 50.8261 10.3887 52.1269 10.3887C53.6093 10.3887 54.4765 9.33984 54.6698 8.22656L54.8046 7.48828C54.2304 8.4375 53.2343 8.88867 52.2792 8.88867C50.7323 8.88867 49.7714 7.79883 49.7714 6.29883C49.7714 4.62305 51.207 2.85938 53.1698 2.85938C54.371 2.85938 55.1093 3.49805 55.3613 4.36523L55.5956 3.02344H56.5741L55.6601 8.19727C55.3671 9.86133 54.0956 11.25 52.0331 11.25ZM52.6132 7.99805C53.7265 7.99805 54.787 7.08984 55.039 5.95312C55.2499 5.00391 54.6581 3.80273 53.2109 3.80273C51.8573 3.80273 50.7851 4.93359 50.7851 6.23438C50.7851 7.24219 51.4648 7.99805 52.6132 7.99805ZM56.1759 11.0391L56.3224 10.1895H57.3185C57.9982 10.1895 58.3439 9.80859 58.8009 8.99414L58.8888 8.82422L57.547 3.02344H58.5607L59.5334 7.24805L59.592 7.79883L59.8205 7.25391L62.2111 3.0293L63.3595 3.02344L59.9728 8.83594C59.0002 10.5176 58.4552 11.0391 57.1603 11.0391H56.1759Z" fill="black"/>
<mask id="path-2-inside-1_981_3816" fill="white">
<path d="M70 6C70 5.17157 70.6716 4.5 71.5 4.5H583.5C584.328 4.5 585 5.17157 585 6C585 6.82843 584.328 7.5 583.5 7.5H71.5C70.6716 7.5 70 6.82843 70 6Z"/>
</mask>
<path fill-rule="evenodd" clip-rule="evenodd" d="M584.124 7.90071C584.66 7.44219 585 6.76078 585 6C585 6.16074 584.772 6.30377 584.419 6.39524C584.165 6.46091 583.846 6.5 583.5 6.5H581.995V7V8V8.5H582.5C582.856 8.5 583.194 8.42578 583.5 8.29198C583.728 8.19249 583.938 8.06006 584.124 7.90071ZM578.984 8.5V8V7V6.5H575.972V7V8V8.5H578.984ZM572.96 8.5V8V7V6.5H569.948V7V8V8.5H572.96ZM566.936 8.5V8V7V6.5H563.925V7V8V8.5H566.936ZM560.913 8.5V8V7V6.5H557.901V7V8V8.5H560.913ZM554.889 8.5V8V7V6.5H551.878V7V8V8.5H554.889ZM548.866 8.5V8V7V6.5H545.854V7V8V8.5H548.866ZM542.842 8.5V8V7V6.5H539.83V7V8V8.5H542.842ZM536.819 8.5V8V7V6.5H533.807V7V8V8.5H536.819ZM530.795 8.5V8V7V6.5H527.783V7V8V8.5H530.795ZM524.772 8.5V8V7V6.5H521.76V7V8V8.5H524.772ZM518.748 8.5V8V7V6.5H515.736V7V8V8.5H518.748ZM512.724 8.5V8V7V6.5H509.713V7V8V8.5H512.724ZM506.701 8.5V8V7V6.5H503.689V7V8V8.5H506.701ZM500.677 8.5V8V7V6.5H497.666V7V8V8.5H500.677ZM494.654 8.5V8V7V6.5H491.642V7V8V8.5H494.654ZM488.63 8.5V8V7V6.5H485.618V7V8V8.5H488.63ZM482.607 8.5V8V7V6.5H479.595V7V8V8.5H482.607ZM476.583 8.5V8V7V6.5H473.571V7V8V8.5H476.583ZM470.56 8.5V8V7V6.5H467.548V7V8V8.5H470.56ZM464.536 8.5V8V7V6.5H461.524V7V8V8.5H464.536ZM458.512 8.5V8V7V6.5H455.501V7V8V8.5H458.512ZM452.489 8.5V8V7V6.5H449.477V7V8V8.5H452.489ZM446.465 8.5V8V7V6.5H443.454V7V8V8.5H446.465ZM440.442 8.5V8V7V6.5H437.43V7V8V8.5H440.442ZM434.418 8.5V8V7V6.5H431.406V7V8V8.5H434.418ZM428.395 8.5V8V7V6.5H425.383V7V8V8.5H428.395ZM422.371 8.5V8V7V6.5H419.359V7V8V8.5H422.371ZM416.348 8.5V8V7V6.5H413.336V7V8V8.5H416.348ZM410.324 8.5V8V7V6.5H407.312V7V8V8.5H410.324ZM404.3 8.5V8V7V6.5H401.289V7V8V8.5H404.3ZM398.277 8.5V8V7V6.5H395.265V7V8V8.5H398.277ZM392.253 8.5V8V7V6.5H389.241V7V8V8.5H392.253ZM386.23 8.5V8V7V6.5H383.218V7V8V8.5H386.23ZM380.206 8.5V8V7V6.5H377.194V7V8V8.5H380.206ZM374.183 8.5V8V7V6.5H371.171V7V8V8.5H374.183ZM368.159 8.5V8V7V6.5H365.147V7V8V8.5H368.159ZM362.135 8.5V8V7V6.5H359.124V7V8V8.5H362.135ZM356.112 8.5V8V7V6.5H353.1V7V8V8.5H356.112ZM350.088 8.5V8V7V6.5H347.077V7V8V8.5H350.088ZM344.065 8.5V8V7V6.5H341.053V7V8V8.5H344.065ZM338.041 8.5V8V7V6.5H335.029V7V8V8.5H338.041ZM332.018 8.5V8V7V6.5H329.006V7V8V8.5H332.018ZM325.994 8.5V8V7V6.5H322.982V7V8V8.5H325.994ZM319.971 8.5V8V7V6.5H316.959V7V8V8.5H319.971ZM313.947 8.5V8V7V6.5H310.935V7V8V8.5H313.947ZM307.924 8.5V8V7V6.5H304.912V7V8V8.5H307.924ZM301.9 8.5V8V7V6.5H298.888V7V8V8.5H301.9ZM295.876 8.5V8V7V6.5H292.865V7V8V8.5H295.876ZM289.853 8.5V8V7V6.5H286.841V7V8V8.5H289.853ZM283.829 8.5V8V7V6.5H280.818V7V8V8.5H283.829ZM277.806 8.5V8V7V6.5H274.794V7V8V8.5H277.806ZM271.782 8.5V8V7V6.5H268.771V7V8V8.5H271.782ZM265.759 8.5V8V7V6.5H262.747V7V8V8.5H265.759ZM259.735 8.5V8V7V6.5H256.724V7V8V8.5H259.735ZM253.712 8.5V8V7V6.5H250.7V7V8V8.5H253.712ZM247.688 8.5V8V7V6.5H244.676V7V8V8.5H247.688ZM241.665 8.5V8V7V6.5H238.653V7V8V8.5H241.665ZM235.641 8.5V8V7V6.5H232.629V7V8V8.5H235.641ZM229.618 8.5V8V7V6.5H226.606V7V8V8.5H229.618ZM223.594 8.5V8V7V6.5H220.582V7V8V8.5H223.594ZM217.571 8.5V8V7V6.5H214.559V7V8V8.5H217.571ZM211.547 8.5V8V7V6.5H208.535V7V8V8.5H211.547ZM205.524 8.5V8V7V6.5H202.512V7V8V8.5H205.524ZM199.5 8.5V8V7V6.5H196.488V7V8V8.5H199.5ZM193.476 8.5V8V7V6.5H190.465V7V8V8.5H193.476ZM187.453 8.5V8V7V6.5H184.441V7V8V8.5H187.453ZM181.429 8.5V8V7V6.5H178.418V7V8V8.5H181.429ZM175.406 8.5V8V7V6.5H172.394V7V8V8.5H175.406ZM169.382 8.5V8V7V6.5H166.371V7V8V8.5H169.382ZM163.359 8.5V8V7V6.5H160.347V7V8V8.5H163.359ZM157.335 8.5V8V7V6.5H154.324V7V8V8.5H157.335ZM151.312 8.5V8V7V6.5H148.3V7V8V8.5H151.312ZM145.288 8.5V8V7V6.5H142.276V7V8V8.5H145.288ZM139.265 8.5V8V7V6.5H136.253V7V8V8.5H139.265ZM133.241 8.5V8V7V6.5H130.229V7V8V8.5H133.241ZM127.218 8.5V8V7V6.5H124.206V7V8V8.5H127.218ZM121.194 8.5V8V7V6.5H118.182V7V8V8.5H121.194ZM115.171 8.5V8V7V6.5H112.159V7V8V8.5H115.171ZM109.147 8.5V8V7V6.5H106.135V7V8V8.5H109.147ZM103.124 8.5V8V7V6.5H100.112V7V8V8.5H103.124ZM97.1 8.5V8V7V6.5H94.0882V7V8V8.5H97.1ZM91.0765 8.5V8V7V6.5H88.0647V7V8V8.5H91.0765ZM85.053 8.5V8V7V6.5H82.0412V7V8V8.5H85.053ZM79.0294 8.5V8V7V6.5H76.0177V7V8V8.5H79.0294ZM73.0059 8.5V8V7V6.5H71.5H71.5C71.1538 6.5 70.835 6.46091 70.5811 6.39524C70.2276 6.30377 70 6.16074 70 6C70 6.76078 70.3398 7.44219 70.876 7.90072C71.0623 8.06006 71.2723 8.19249 71.5 8.29198C71.8062 8.42578 72.1445 8.5 72.5 8.5H73.0059Z" fill="#C7C7C7" mask="url(#path-2-inside-1_981_3816)"/>
</svg>
