<svg width="37" height="36" viewBox="0 0 37 36" fill="none" xmlns="http://www.w3.org/2000/svg">
<rect x="0.799805" y="0.137695" width="35.7" height="35.7" rx="8.4" fill="#23E873" fill-opacity="0.04"/>
<path d="M28.0001 18.6977C26.6236 18.7002 25.2811 18.2703 24.1621 17.4687V23.0567C24.1617 24.0918 23.8453 25.102 23.2552 25.9524C22.6651 26.8027 21.8294 27.4526 20.8598 27.8151C19.8903 28.1776 18.8333 28.2354 17.83 27.9808C16.8267 27.7262 15.9251 27.1714 15.2458 26.3904C14.5665 25.6095 14.1418 24.6398 14.0286 23.6109C13.9153 22.5821 14.119 21.5432 14.6122 20.6332C15.1055 19.7232 15.8648 18.9855 16.7887 18.5189C17.7126 18.0522 18.7569 17.8787 19.7821 18.0217V20.8317C19.3137 20.6842 18.8107 20.6884 18.3449 20.8437C17.8791 20.9991 17.4743 21.2976 17.1882 21.6968C16.9022 22.0959 16.7495 22.5752 16.7521 23.0662C16.7546 23.5572 16.9123 24.0349 17.2025 24.431C17.4926 24.8271 17.9006 25.1214 18.368 25.2719C18.8354 25.4224 19.3384 25.4214 19.8052 25.269C20.272 25.1166 20.6787 24.8206 20.9673 24.4233C21.2558 24.026 21.4115 23.5477 21.4121 23.0567V12.1377H24.1621C24.1607 12.371 24.1807 12.6024 24.2221 12.8317C24.3177 13.3419 24.5164 13.8273 24.806 14.2581C25.0955 14.689 25.4698 15.0563 25.9061 15.3377C26.5271 15.7477 27.2561 15.9667 28.0001 15.9657V18.6977Z" fill="#0B7A38"/>
</svg>
