<svg width="26" height="20" viewBox="0 0 26 20" fill="none" xmlns="http://www.w3.org/2000/svg">
<g clip-path="url(#clip0_892_7184)">
<path fill-rule="evenodd" clip-rule="evenodd" d="M0 0.25H26V19.75H0V0.25Z" fill="#F7FCFF"/>
<path fill-rule="evenodd" clip-rule="evenodd" d="M0 12.1669V13.7919H26V12.1669H0ZM0 15.1456V16.7706H26V15.1456H0ZM0 6.20806V7.83306H26V6.20806H0ZM0 18.125V19.75H26V18.125H0ZM0 9.1875V10.8125H26V9.1875H0ZM0 0.25V1.875H26V0.25H0ZM0 3.22944V4.85444H26V3.22944H0Z" fill="#E31D1C"/>
<path d="M0 0.25H16.25V10.8125H0V0.25Z" fill="#2E42A5"/>
<path fill-rule="evenodd" clip-rule="evenodd" d="M1.39925 2.63799L0.809375 3.05155L1.00844 2.31543L0.484375 1.84905H1.16931L1.39844 1.2478L1.66738 1.84905H2.25075L1.7925 2.31543L1.96962 3.05155L1.39925 2.63799ZM4.64925 2.63799L4.05937 3.05155L4.25844 2.31543L3.73519 1.84905H4.41931L4.64844 1.2478L4.91738 1.84905H5.50075L5.0425 2.31543L5.21962 3.05155L4.64925 2.63799ZM7.30938 3.05155L7.89925 2.63718L8.46962 3.05155L8.2925 2.31543L8.75075 1.84905H8.16738L7.89844 1.2478L7.66931 1.84905H6.98519L7.50844 2.31543L7.30938 3.05155ZM11.1493 2.63718L10.5594 3.05155L10.7584 2.31543L10.2352 1.84905H10.9193L11.1484 1.2478L11.4174 1.84905H12.0008L11.5425 2.31543L11.7196 3.05155L11.1493 2.63718ZM0.809375 6.30237L1.39925 5.88799L1.96962 6.30237L1.7925 5.56624L2.25075 5.09987H1.66738L1.39844 4.49862L1.16931 5.09987H0.484375L1.00844 5.56624L0.809375 6.30237ZM4.64925 5.88799L4.05937 6.30237L4.25844 5.56624L3.73519 5.09987H4.41931L4.64844 4.49862L4.91738 5.09987H5.50075L5.0425 5.56624L5.21962 6.30237L4.64925 5.88799ZM7.30938 6.30237L7.89925 5.88799L8.46962 6.30237L8.2925 5.56624L8.75075 5.09987H8.16738L7.89844 4.49862L7.66931 5.09987H6.98519L7.50844 5.56624L7.30938 6.30237ZM11.1493 5.88799L10.5594 6.30237L10.7584 5.56624L10.2352 5.09987H10.9193L11.1484 4.49862L11.4174 5.09987H12.0008L11.5425 5.56624L11.7196 6.30237L11.1493 5.88799ZM0.809375 9.55237L1.39925 9.13799L1.96962 9.55237L1.7925 8.81624L2.25075 8.34987H1.66738L1.39844 7.74862L1.16931 8.34987H0.484375L1.00844 8.81624L0.809375 9.55237ZM4.64925 9.13799L4.05937 9.55237L4.25844 8.81624L3.73519 8.34987H4.41931L4.64844 7.74862L4.91738 8.34987H5.50075L5.0425 8.81624L5.21962 9.55237L4.64925 9.13799ZM7.30938 9.55237L7.89925 9.13799L8.46962 9.55237L8.2925 8.81624L8.75075 8.34987H8.16738L7.89844 7.74862L7.66931 8.34987H6.98519L7.50844 8.81624L7.30938 9.55237ZM11.1493 9.13799L10.5594 9.55237L10.7584 8.81624L10.2352 8.34987H10.9193L11.1484 7.74862L11.4174 8.34987H12.0008L11.5425 8.81624L11.7196 9.55237L11.1493 9.13799ZM13.8094 3.05237L14.3993 2.63799L14.9696 3.05237L14.7925 2.31624L15.2507 1.84987H14.6674L14.3984 1.24862L14.1693 1.84987H13.4844L14.0084 2.31624L13.8094 3.05237ZM14.3993 5.88799L13.8094 6.30237L14.0084 5.56624L13.4844 5.09987H14.1693L14.3984 4.49862L14.6674 5.09987H15.2507L14.7925 5.56624L14.9696 6.30237L14.3993 5.88799ZM13.8094 9.55237L14.3993 9.13799L14.9696 9.55237L14.7925 8.81624L15.2507 8.34987H14.6674L14.3984 7.74862L14.1693 8.34987H13.4844L14.0084 8.81624L13.8094 9.55237ZM3.02425 4.26218L2.43438 4.67655L2.63344 3.94043L2.10938 3.47405H2.79431L3.02344 2.8728L3.29238 3.47405H3.87575L3.4175 3.94043L3.59462 4.67655L3.02425 4.26218ZM5.68437 4.67655L6.27425 4.26218L6.84462 4.67655L6.6675 3.94043L7.12575 3.47405H6.54238L6.27344 2.8728L6.04431 3.47405H5.35938L5.88344 3.94043L5.68437 4.67655ZM9.52425 4.26218L8.93438 4.67655L9.13344 3.94043L8.61019 3.47405H9.29431L9.52344 2.8728L9.79238 3.47405H10.3758L9.9175 3.94043L10.0946 4.67655L9.52425 4.26218ZM2.43438 7.92655L3.02425 7.51218L3.59462 7.92655L3.4175 7.19043L3.87575 6.72405H3.29238L3.02344 6.1228L2.79431 6.72405H2.10938L2.63344 7.19043L2.43438 7.92655ZM6.27425 7.51218L5.68437 7.92655L5.88344 7.19043L5.36019 6.72405H6.04431L6.27344 6.1228L6.54238 6.72405H7.12575L6.6675 7.19043L6.84462 7.92655L6.27425 7.51218ZM8.93438 7.92655L9.52425 7.51218L10.0946 7.92655L9.9175 7.19043L10.3758 6.72405H9.79238L9.52344 6.1228L9.29431 6.72405H8.61019L9.13344 7.19043L8.93438 7.92655ZM12.7743 4.26218L12.1844 4.67655L12.3834 3.94043L11.8602 3.47405H12.5443L12.7734 2.8728L13.0424 3.47405H13.6257L13.1675 3.94043L13.3446 4.67655L12.7743 4.26218ZM12.1844 7.92655L12.7743 7.51218L13.3446 7.92655L13.1675 7.19043L13.6257 6.72405H13.0424L12.7734 6.1228L12.5443 6.72405H11.8602L12.3834 7.19043L12.1844 7.92655Z" fill="#F7FCFF"/>
</g>
<defs>
<clipPath id="clip0_892_7184">
<rect y="0.25" width="26" height="19.5" rx="1.625" fill="white"/>
</clipPath>
</defs>
</svg>
