<svg width="37" height="36" viewBox="0 0 37 36" fill="none" xmlns="http://www.w3.org/2000/svg">
<rect x="0.5" y="0.137695" width="35.7" height="35.7" rx="8.4" fill="#23E873" fill-opacity="0.04"/>
<path d="M18.051 12.1367H18.14C18.962 12.1397 23.127 12.1697 24.25 12.4717C24.5895 12.5639 24.8989 12.7435 25.1472 12.9927C25.3955 13.2419 25.574 13.5519 25.665 13.8917C25.766 14.2717 25.837 14.7747 25.885 15.2937L25.895 15.3977L25.917 15.6577L25.925 15.7617C25.99 16.6757 25.998 17.5317 25.999 17.7187V17.7937C25.998 17.9877 25.989 18.9017 25.917 19.8537L25.909 19.9587L25.9 20.0627C25.85 20.6347 25.776 21.2027 25.665 21.6207C25.574 21.9605 25.3955 22.2705 25.1472 22.5197C24.8989 22.7689 24.5895 22.9486 24.25 23.0407C23.09 23.3527 18.681 23.3747 18.07 23.3757H17.928C17.619 23.3757 16.341 23.3697 15.001 23.3237L14.831 23.3177L14.744 23.3137L14.573 23.3067L14.402 23.2997C13.292 23.2507 12.235 23.1717 11.748 23.0397C11.4086 22.9476 11.0993 22.7681 10.8511 22.5191C10.6028 22.2701 10.4241 21.9604 10.333 21.6207C10.222 21.2037 10.148 20.6347 10.098 20.0627L10.09 19.9577L10.082 19.8537C10.0324 19.1761 10.005 18.4971 10 17.8177L10 17.6947C10.002 17.4797 10.01 16.7367 10.064 15.9167L10.071 15.8137L10.074 15.7617L10.082 15.6577L10.104 15.3977L10.114 15.2937C10.162 14.7747 10.233 14.2707 10.334 13.8917C10.425 13.5519 10.6035 13.2419 10.8518 12.9927C11.1001 12.7435 11.4095 12.5639 11.749 12.4717C12.236 12.3417 13.293 12.2617 14.403 12.2117L14.573 12.2047L14.745 12.1987L14.831 12.1957L15.002 12.1887C15.9537 12.1581 16.9058 12.1411 17.858 12.1377L18.051 12.1367ZM16.4 15.3467V20.1647L20.557 17.7567L16.4 15.3467Z" fill="#0B7A38"/>
</svg>
